<svg width="1100" height="800" viewBox="0" version="1.1" xmlns="http://www.w3.org/2000/svg"><title>wzlicons</title><g stroke="none" stroke-width="1" fill="none" fill-rule="evenodd"><path d="M350 789.7C371.4 789.7 388.7 772.4 388.7 751 388.7 729.6 371.4 712.3 350 712.3 328.6 712.3 311.3 729.6 311.3 751 311.3 772.4 328.6 789.7 350 789.7ZM346.5 763.7L348 765C348 765 350.6 764 352 763.3 352.4 761 350.6 756.7 358.8 748.8 367 740.9 370.4 730.7 363 724.4 356 718.5 344.9 722.2 342.6 723.4 335.7 727 333.7 731 334.1 736.5L335.8 738.2C335.8 738.2 342.6 737.3 346.3 735.6 344.7 733 346.3 726.8 349.6 726.3 352.9 725.8 355.2 729.9 355.2 734.7 355.2 739.5 351.2 745.8 349.5 748.5 347.9 751.1 345 756.7 346.5 763.7ZM354.6 770.8C352.5 768.7 348.2 767.6 344.8 770.3 341.5 772.9 341.4 776.9 343.1 779.6 344.8 782.3 349.9 782.3 353.1 780.5 356.4 778.8 356.7 772.9 354.6 770.8Z" fill="#000000"/><path d="M250 789.7C271.4 789.7 288.7 772.4 288.7 751 288.7 729.6 271.4 712.3 250 712.3 228.6 712.3 211.3 729.6 211.3 751 211.3 772.4 228.6 789.7 250 789.7ZM246.5 763.7L248 765C248 765 250.6 764 252 763.3 252.4 761 250.6 756.7 258.8 748.8 267 740.9 270.4 730.7 263 724.4 256 718.5 244.9 722.2 242.6 723.4 235.7 727 233.7 731 234.1 736.5L235.8 738.2C235.8 738.2 242.6 737.3 246.3 735.6 244.7 733 246.3 726.8 249.6 726.3 252.9 725.8 255.2 729.9 255.2 734.7 255.2 739.5 251.2 745.8 249.5 748.5 247.9 751.1 245 756.7 246.5 763.7ZM254.6 770.8C252.5 768.7 248.2 767.6 244.8 770.3 241.5 772.9 241.4 776.9 243.1 779.6 244.8 782.3 249.9 782.3 253.1 780.5 256.4 778.8 256.7 772.9 254.6 770.8Z" fill="#FFFFFF"/><path d="M49.9 790C71.5 790 89 772.5 89 750.9 89 729.3 71.5 711.8 49.9 711.8 28.3 711.8 10.8 729.3 10.8 750.9 10.8 772.5 28.3 790 49.9 790ZM39.6 747.4L38.8 744.2C38.8 744.2 50.7 739.1 53.6 738.8 55.9 738.6 57.2 739.6 56.9 743.2 56.6 746.9 53 764.4 53 766.9 53.1 769.3 52.9 770.1 56.3 769.4 57.5 769.1 59.1 768.3 59.1 768.3L59.9 771.5C59.9 771.5 48.5 778.1 44.8 778 42 777.9 41.1 775.4 41.3 772 41.6 768.6 45.2 750 45 748.3 44.7 746.5 43.9 746.2 42.4 746.5 40.9 746.8 39.6 747.4 39.6 747.4ZM48.3 730.8C47 728.5 48.3 724.8 51.6 722.8 55 720.9 58.7 721.9 59.6 723.9 60.5 725.9 59.5 729.4 56.7 731.5 53.9 733.6 49.6 733.2 48.3 730.8Z" fill="#FFFFFF"/><g transform="translate(414.000000, 608.000000)" fill="#5C5C5C"><path d="M36 84C16.1 84 0 67.9 0 48.1 0 29.3 14.3 14 32.7 12.3L32.7 6.5 29.9 6.5 29.9 0 42.1 0 42.1 6.5 39.3 6.5 39.3 12.3C46.2 12.9 52.6 15.5 57.8 19.4L64.5 12.7 71.4 19.5 64.6 26.2C69.2 32.3 72 39.8 72 48.1 72 67.9 55.9 84 36 84ZM64 48.5C64 33.3 51.5 21 36 21 20.5 21 8 33.3 8 48.5 8 63.7 20.5 76 36 76 51.5 76 64 63.7 64 48.5Z"/><path d="M32.8 29L39 29 39 42.1C41.4 43.2 43 45.7 43 48.5 43 51.3 41.4 53.8 39 55L39 58 32.8 58 32.8 54.8C30.5 53.7 29 51.3 29 48.5 29 45.8 30.5 43.4 32.8 42.2L32.8 29Z"/></g><path d="M350.5 607.4C335.9 607.4 324 619.2 324 633.9 324 638.3 325.1 642.5 327 646.1L350.3 693.3 374 646.1C375.9 642.5 377 638.3 377 633.9 377 619.2 365.1 607.4 350.5 607.4ZM363.5 633.5C363.5 626.3 357.7 620.5 350.5 620.5 343.3 620.5 337.5 626.3 337.5 633.5 337.5 640.6 343.3 646.5 350.5 646.5 357.7 646.5 363.5 640.6 363.5 633.5Z" fill="#5C5C5C"/><path d="M211.1 624.3L211.1 675.3C211.1 677.5 212.8 679.2 214.9 679.2L284.2 679.2C286.3 679.2 288 677.5 288 675.3L288 624.3C288 622.2 286.3 620.5 284.2 620.5L214.9 620.5C212.8 620.5 211.1 622.2 211.1 624.3ZM276.5 674.4L282.3 674.4 282.3 668.6 276.5 668.6 276.5 674.4ZM264.6 674.4L270.4 674.4 270.4 668.6 264.6 668.6 264.6 674.4ZM252.7 674.4L258.4 674.4 258.4 668.6 252.7 668.6 252.7 674.4ZM240.7 674.4L246.5 674.4 246.5 668.6 240.7 668.6 240.7 674.4ZM228.8 674.4L234.6 674.4 234.6 668.6 228.8 668.6 228.8 674.4ZM216.8 674.4L222.6 674.4 222.6 668.6 216.8 668.6 216.8 674.4ZM276.5 632L282.3 632 282.3 626.2 276.5 626.2 276.5 632ZM264.6 632L270.4 632 270.4 626.2 264.6 626.2 264.6 632ZM252.7 632L258.4 632 258.4 626.2 252.7 626.2 252.7 632ZM240.7 632L246.5 632 246.5 626.2 240.7 626.2 240.7 632ZM228.8 632L234.6 632 234.6 626.2 228.8 626.2 228.8 632ZM216.8 632L222.6 632 222.6 626.2 216.8 626.2 216.8 632ZM216.8 662.3L246.5 662.3 246.5 638.3 216.8 638.3 216.8 662.3ZM252.7 662.3L282.3 662.3 282.3 638.3 252.7 638.3 252.7 662.3Z" fill="#FFFFFF"/><path d="M172.5 628.2L148.1 634.5 148.1 668.4C148.5 672.9 143.3 678.5 136.5 680 129.2 681.7 122.8 679.1 121.6 673.6 120.3 668.2 125.2 662.4 132.5 660.8 135.5 660.1 138.5 660.3 141 661.2L141 634.3 141 627.4 179.6 617.4 179.6 626.1 179.6 659.9C180.1 664.4 174.8 670 168 671.5 160.7 673.2 154.4 670.6 153.1 665.1 151.8 659.7 156.7 653.9 164 652.3 167 651.6 170 651.8 172.5 652.7L172.5 628.2Z" fill="#FFFFFF" transform="translate(150.612705, 648.893574) rotate(-315.000000) translate(-150.612705, -648.893574) "/><g transform="translate(50.434554, 650.694008) rotate(-315.000000) translate(-50.434554, -650.694008) translate(14.434554, 614.194008)" fill="#FFFFFF"><path d="M11.5 49.6L23.2 61.3 59.2 25.3 47.5 13.6 11.5 49.6ZM59.4 1.6C60.2 0.8 61.5 0.8 62.3 1.6L71.2 10.5C71.9 11.3 71.9 12.5 71.2 13.3L62.5 21.9 50.8 10.2 59.4 1.6Z"/><path d="M31.2 77.1L40.1 60.8 22.3 60.8 31.2 77.1ZM22.3 6.1L22.3 10.8 40.1 10.8 40.1 6.1 22.3 6.1Z" opacity="0.7" transform="translate(31.176243, 41.610561) rotate(-315.000000) translate(-31.176243, -41.610561) "/></g><path d="M1008 408L1008 420 1078 420 1078 408 1008 408ZM1008 426L1008 438 1090 438 1090 426 1008 426ZM1008 444L1008 456 1071 456 1071 444 1008 444ZM1008 463L1008 475 1093 475 1093 463 1008 463ZM1008 481L1008 493 1086 493 1086 481 1008 481Z" fill="#D7D0C6"/><path d="M1008 308L1008 320 1078 320 1078 308 1008 308ZM1008 326L1008 338 1090 338 1090 326 1008 326ZM1008 344L1008 356 1071 356 1071 344 1008 344ZM1008 363L1008 375 1093 375 1093 363 1008 363ZM1008 381L1008 393 1086 393 1086 381 1008 381Z" fill="#496063"/><path d="M908 408L908 478 993 478 993 408 908 408ZM908 489L908 493 993 493 993 489 908 489ZM908 483L908 487 993 487 993 483 908 483Z" fill="#D7D0C6"/><path d="M908 308L908 378 993 378 993 308 908 308ZM908 389L908 393 993 393 993 389 908 389ZM908 383L908 387 993 387 993 383 908 383Z" fill="#496063"/><path d="M860 488L860 493 890 493 890 488 860 488ZM860 455L860 485 890 485 890 455 860 455ZM860 441L860 446 890 446 890 441 860 441ZM860 408L860 438 890 438 890 408 860 408ZM810 488L810 493 840 493 840 488 810 488ZM810 455L810 485 840 485 840 455 810 455ZM810 441L810 446 840 446 840 441 810 441ZM810 408L810 438 840 438 840 408 810 408Z" fill="#D7D0C6"/><path d="M860 388L860 393 890 393 890 388 860 388ZM860 355L860 385 890 385 890 355 860 355ZM860 341L860 346 890 346 890 341 860 341ZM860 308L860 338 890 338 890 308 860 308ZM810 388L810 393 840 393 840 388 810 388ZM810 355L810 385 840 385 840 355 810 355ZM810 341L810 346 840 346 840 341 810 341ZM810 308L810 338 840 338 840 308 810 308Z" fill="#496063"/><path d="M738 438L738 493 793 493 793 438 738 438ZM708 468L708 493 733 493 733 468 708 468ZM708 408L708 463 733 463 733 408 708 408ZM738 408L738 433 793 433 793 408 738 408Z" fill="#D7D0C6"/><path d="M738 338L738 393 793 393 793 338 738 338ZM708 368L708 393 733 393 733 368 708 368ZM708 308L708 363 733 363 733 308 708 308ZM738 308L738 333 793 333 793 308 738 308Z" fill="#496063"/><g transform="translate(595.000000, 390.000000)" fill="#D7D0C6"><path d="M93.4 72.5L96.1 69.8C99.3 66.6 99.2 61.6 96.1 58.5L84.2 46.8 65.2 65.8 77.2 53.8 91.1 67.5C92.5 68.9 93.3 70.6 93.4 72.5ZM22.4 22.3L22.5 16.4 53.2 16.2 69.8 32.5 63.3 39 46.2 22.2 22.4 22.3 22.4 22.3Z" opacity="0.7"/><path d="M12.1 57.2L28.7 73.5 59.8 42.5 43.2 26.2 12.5 26.4 12.1 57.2ZM35 42C35 38.1 31.9 35 28 35 24.1 35 21 38.1 21 42 21 45.9 24.1 49 28 49 31.9 49 35 45.9 35 42ZM57 101.5C60.2 104.6 65.3 104.6 68.4 101.5L88.1 81.8C91.3 78.6 91.2 73.6 88.1 70.5L74.2 56.8 43.1 87.8 57 101.5ZM15.7 91.9L24.6 100.8 93.8 31.6 84.9 22.7 15.7 91.9Z"/></g><g transform="translate(595.000000, 290.000000)" fill="#496063"><path d="M93.4 72.5L96.1 69.8C99.3 66.6 99.2 61.6 96.1 58.5L84.2 46.8 65.2 65.8 77.2 53.8 91.1 67.5C92.5 68.9 93.3 70.6 93.4 72.5ZM22.4 22.3L22.5 16.4 53.2 16.2 69.8 32.5 63.3 39 46.2 22.2 22.4 22.3 22.4 22.3Z" opacity="0.7"/><path d="M12.1 57.2L28.7 73.5 59.8 42.5 43.2 26.2 12.5 26.4 12.1 57.2ZM35 42C35 38.1 31.9 35 28 35 24.1 35 21 38.1 21 42 21 45.9 24.1 49 28 49 31.9 49 35 45.9 35 42ZM57 101.5C60.2 104.6 65.3 104.6 68.4 101.5L88.1 81.8C91.3 78.6 91.2 73.6 88.1 70.5L74.2 56.8 43.1 87.8 57 101.5ZM15.7 91.9L24.6 100.8 93.8 31.6 84.9 22.7 15.7 91.9Z"/></g><g transform="translate(507.000000, 522.000000)" fill="#FFFFFF"><path d="M31.7 53L2 53C0.9 53 0 52.1 0 51L0 2C0 0.9 0.9 0 2 0L70 0C71.1 0 72 0.9 72 2L72 12.7 66 18.7 66 5 6 5 6 47 37.7 47 31.7 53ZM62.8 53L70 53C71.1 53 72 52.1 72 51L72 43.8 62.8 53 62.8 53ZM40.2 44.5L8.9 44.5C11.6 38.7 16.3 35.2 21.1 35.2 26 35.2 26.5 38.7 33 38.7 39.5 38.7 40.1 26.1 50.9 26.1 53 26.1 54.8 27 56.3 28.4L40.2 44.5 40.2 44.5ZM38.5 51.8L48.4 61.7 78.8 31.3 68.9 21.4 38.5 51.8ZM78.8 11.5C79.6 10.8 80.9 10.8 81.7 11.5L88.7 18.6C89.5 19.4 89.5 20.7 88.7 21.4L81.6 28.5 71.7 18.6 78.8 11.5Z"/><path d="M55.1 75.6L62.1 61.6 48.1 61.6 55.1 75.6ZM48.1 14.6L48.1 18.6 62.1 18.6 62.1 14.6 48.1 14.6Z" opacity="0.7" transform="translate(55.132359, 45.117641) rotate(-315.000000) translate(-55.132359, -45.117641) "/></g><g transform="translate(507.000000, 422.000000)" fill="#D7D0C6"><path d="M31.7 53L2 53C0.9 53 0 52.1 0 51L0 2C0 0.9 0.9 0 2 0L70 0C71.1 0 72 0.9 72 2L72 12.7 66 18.7 66 5 6 5 6 47 37.7 47 31.7 53ZM62.8 53L70 53C71.1 53 72 52.1 72 51L72 43.8 62.8 53 62.8 53ZM40.2 44.5L8.9 44.5C11.6 38.7 16.3 35.2 21.1 35.2 26 35.2 26.5 38.7 33 38.7 39.5 38.7 40.1 26.1 50.9 26.1 53 26.1 54.8 27 56.3 28.4L40.2 44.5 40.2 44.5ZM38.5 51.8L48.4 61.7 78.8 31.3 68.9 21.4 38.5 51.8ZM78.8 11.5C79.6 10.8 80.9 10.8 81.7 11.5L88.7 18.6C89.5 19.4 89.5 20.7 88.7 21.4L81.6 28.5 71.7 18.6 78.8 11.5Z"/><path d="M55.1 75.6L62.1 61.6 48.1 61.6 55.1 75.6ZM48.1 14.6L48.1 18.6 62.1 18.6 62.1 14.6 48.1 14.6Z" opacity="0.7" transform="translate(55.132359, 45.117641) rotate(-315.000000) translate(-55.132359, -45.117641) "/></g><g transform="translate(507.000000, 322.000000)" fill="#496063"><path d="M31.7 53L2 53C0.9 53 0 52.1 0 51L0 2C0 0.9 0.9 0 2 0L70 0C71.1 0 72 0.9 72 2L72 12.7 66 18.7 66 5 6 5 6 47 37.7 47 31.7 53ZM62.8 53L70 53C71.1 53 72 52.1 72 51L72 43.8 62.8 53 62.8 53ZM40.2 44.5L8.9 44.5C11.6 38.7 16.3 35.2 21.1 35.2 26 35.2 26.5 38.7 33 38.7 39.5 38.7 40.1 26.1 50.9 26.1 53 26.1 54.8 27 56.3 28.4L40.2 44.5 40.2 44.5ZM38.5 51.8L48.4 61.7 78.8 31.3 68.9 21.4 38.5 51.8ZM78.8 11.5C79.6 10.8 80.9 10.8 81.7 11.5L88.7 18.6C89.5 19.4 89.5 20.7 88.7 21.4L81.6 28.5 71.7 18.6 78.8 11.5Z"/><path d="M55.1 75.6L62.1 61.6 48.1 61.6 55.1 75.6ZM48.1 14.6L48.1 18.6 62.1 18.6 62.1 14.6 48.1 14.6Z" opacity="0.7" transform="translate(55.132359, 45.117641) rotate(-315.000000) translate(-55.132359, -45.117641) "/></g><path d="M344.8 517.5C347.7 512.8 352.5 512.8 355.4 517.5L393.7 578.5C396.6 583.2 394.5 587 389 587L311.2 587C305.7 587 303.6 583.2 306.5 578.5L344.8 517.5ZM342.3 526.6L357.5 526.6 357.5 540.5 353.6 565.9 346.3 565.9 342.3 540.5 342.3 526.6ZM342.6 570.3L357.1 570.3 357.1 581 342.6 581 342.6 570.3Z" fill="#E08C0B"/><path d="M344.8 417.5C347.7 412.8 352.5 412.8 355.4 417.5L393.7 478.5C396.6 483.2 394.5 487 389 487L311.2 487C305.7 487 303.6 483.2 306.5 478.5L344.8 417.5ZM342.3 426.6L357.5 426.6 357.5 440.5 353.6 465.9 346.3 465.9 342.3 440.5 342.3 426.6ZM342.6 470.3L357.1 470.3 357.1 481 342.6 481 342.6 470.3Z" fill="#D7D0C6"/><path d="M355.4 317.5L393.7 378.5C396.6 383.2 394.5 387 389 387L311.2 387C305.7 387 303.6 383.2 306.5 378.5L344.8 317.5C347.7 312.8 352.5 312.8 355.4 317.5ZM357.5 326.6L357.5 340.5 353.6 365.9 346.3 365.9 342.3 340.5 342.3 326.6 357.5 326.6ZM357.1 370.3L357.1 381 342.6 381 342.6 370.3 357.1 370.3Z" fill="#496063"/><g transform="translate(205.000000, 505.000000)" fill="#E04E0B"><path d="M90 45C90 20.1 69.9 0 45 0 20.1 0 0 20.1 0 45 0 69.9 20.1 90 45 90 69.9 90 90 69.9 90 45ZM76 45C76 27.9 62.1 14 45 14 27.9 14 14 27.9 14 45 14 62.1 27.9 76 45 76 62.1 76 76 62.1 76 45Z"/><rect transform="translate(45.000000, 45.000000) rotate(-315.000000) translate(-45.000000, -45.000000) " x="37" y="4" width="16" height="82"/></g><g transform="translate(205.000000, 405.000000)" fill="#D7D0C6"><path d="M90 45C90 20.1 69.9 0 45 0 20.1 0 0 20.1 0 45 0 69.9 20.1 90 45 90 69.9 90 90 69.9 90 45ZM76 45C76 27.9 62.1 14 45 14 27.9 14 14 27.9 14 45 14 62.1 27.9 76 45 76 62.1 76 76 62.1 76 45Z"/><rect transform="translate(45.000000, 45.000000) rotate(-315.000000) translate(-45.000000, -45.000000) " x="37" y="4" width="16" height="82"/></g><g transform="translate(205.000000, 305.000000)" fill="#496063"><path d="M90 45C90 20.1 69.9 0 45 0 20.1 0 0 20.1 0 45 0 69.9 20.1 90 45 90 69.9 90 90 69.9 90 45ZM76 45C76 27.9 62.1 14 45 14 27.9 14 14 27.9 14 45 14 62.1 27.9 76 45 76 62.1 76 76 62.1 76 45Z"/><rect transform="translate(45.000000, 45.000000) rotate(-315.000000) translate(-45.000000, -45.000000) " x="37" y="4" width="16" height="82"/></g><path d="M150 590.6C150 590.6 142.9 583.5 118.8 564.6 94.6 545.7 105.6 522.2 114.9 514.6 124.2 507 142.1 506.7 150 521.3L150 590.6ZM150 590.6C150 590.6 157.1 583.5 181.2 564.6 205.4 545.7 194.4 522.2 185.1 514.6 175.8 507 157.9 506.7 150 521.3L150 590.6Z" fill="#E00B0B"/><path d="M150 490.6C150 490.6 142.9 483.5 118.8 464.6 94.6 445.7 105.6 422.2 114.9 414.6 124.2 407 142.1 406.7 150 421.3L150 490.6ZM150 490.6C150 490.6 157.1 483.5 181.2 464.6 205.4 445.7 194.4 422.2 185.1 414.6 175.8 407 157.9 406.7 150 421.3L150 490.6Z" fill="#D7D0C6"/><path d="M150 390.6C150 390.6 142.9 383.5 118.8 364.6 94.6 345.7 105.6 322.2 114.9 314.6 124.2 307 142.1 306.7 150 321.3L150 390.6ZM150 390.6C150 390.6 157.1 383.5 181.2 364.6 205.4 345.7 194.4 322.2 185.1 314.6 175.8 307 157.9 306.7 150 321.3L150 390.6Z" fill="#496063"/><path d="M48.6 512.8C49.4 510.8 50.6 510.8 51.4 512.8L61.4 539 90 540.5C92.2 540.6 92.5 541.8 90.9 543.1L68.6 561.2 75.8 588.1C76.4 590.2 75.4 590.9 73.6 589.8L50 574.4 26.4 589.8C24.6 590.9 23.6 590.2 24.1 588.1L31.4 561 9.4 543.2C7.7 541.9 8.1 540.7 10.3 540.6L38.5 539.1 48.6 512.8Z" fill="#D0C517"/><path d="M48.6 412.8C49.4 410.8 50.6 410.8 51.4 412.8L61.4 439 90 440.5C92.2 440.6 92.5 441.8 90.9 443.1L68.6 461.2 75.8 488.1C76.4 490.2 75.4 490.9 73.6 489.8L50 474.4 26.4 489.8C24.6 490.9 23.6 490.2 24.1 488.1L31.4 461 9.4 443.2C7.7 441.9 8.1 440.7 10.3 440.6L38.5 439.1 48.6 412.8Z" fill="#D7D0C6"/><path d="M48.6 312.8C49.4 310.8 50.6 310.8 51.4 312.8L61.4 339 90 340.5C92.2 340.6 92.5 341.8 90.9 343.1L68.6 361.2 75.8 388.1C76.4 390.2 75.4 390.9 73.6 389.8L50 374.4 26.4 389.8C24.6 390.9 23.6 390.2 24.1 388.1L31.4 361 9.4 343.2C7.7 341.9 8.1 340.7 10.3 340.6L38.5 339.1 48.6 312.8Z" fill="#496063"/><path d="M924.5 284.3L924.5 215.1 976.5 215.1 976.5 249.7 976.5 284.3 941.8 295.9 941.8 284.3 924.5 284.3ZM930.2 278.5L930.2 220.8 964.6 220.8 941.8 231.9 941.8 278.5 930.2 278.5ZM955.9 257C955.9 254.6 954.7 252.9 953.2 253.2 951.7 253.5 950.5 255.7 950.5 258.2 950.5 260.6 951.7 262.3 953.2 262 954.7 261.7 955.9 259.5 955.9 257Z" fill="#27919E"/><path d="M924.5 184.3L924.5 115.1 976.5 115.1 976.5 149.7 976.5 184.3 941.8 195.9 941.8 184.3 924.5 184.3ZM930.2 178.5L930.2 120.8 964.6 120.8 941.8 131.9 941.8 178.5 930.2 178.5ZM955.9 157C955.9 154.6 954.7 152.9 953.2 153.2 951.7 153.5 950.5 155.7 950.5 158.2 950.5 160.6 951.7 162.3 953.2 162 954.7 161.7 955.9 159.5 955.9 157Z" fill="#FFFFFF"/><g transform="translate(806.000000, 207.000000)" fill="#27919E"><path d="M48.2 0L39.3 0C37.7 0 36.2 1.3 36 2.9L33.4 22.1 54.1 22.1 51.5 2.9C51.3 1.3 49.8 0 48.2 0ZM48.2 87L39.3 87C37.7 87 36.2 85.7 36 84.1L33.4 64.9 54.1 64.9 51.5 84.1C51.3 85.7 49.8 87 48.2 87ZM77.7 15.9L71.4 9.6C70.2 8.5 68.3 8.3 67 9.3L51.6 21.1 66.2 35.7 77.9 20.3C78.9 19 78.8 17 77.7 15.9ZM16.1 77.4L9.9 71.1C8.7 70 8.6 68 9.6 66.7L21.3 51.3 35.9 65.9 20.6 77.7C19.3 78.7 17.3 78.5 16.1 77.4ZM87.3 47.9L87.3 39.1C87.3 37.4 85.9 36 84.3 35.7L65.1 33.2 65.1 53.8 84.3 51.3C85.9 51 87.3 49.6 87.3 47.9ZM0.3 47.9L0.3 39.1C0.3 37.4 1.6 36 3.2 35.7L22.4 33.2 22.4 53.8 3.2 51.3C1.6 51 0.3 49.6 0.3 47.9ZM71.4 77.4L77.7 71.1C78.8 70 78.9 68 77.9 66.7L66.2 51.3 51.6 65.9 67 77.7C68.3 78.7 70.2 78.5 71.4 77.4ZM9.9 15.9L16.1 9.6C17.3 8.5 19.3 8.3 20.6 9.3L35.9 21.1 21.3 35.7 9.6 20.3C8.6 19 8.7 17 9.9 15.9Z"/><path d="M43.8 70.5C58.7 70.5 70.7 58.4 70.7 43.6 70.7 28.7 58.7 16.7 43.8 16.7 29 16.7 16.9 28.7 16.9 43.6 16.9 58.4 29 70.5 43.8 70.5ZM43.8 60.9C53.4 60.9 61.1 53.1 61.1 43.6 61.1 34 53.4 26.3 43.8 26.3 34.3 26.3 26.5 34 26.5 43.6 26.5 53.1 34.3 60.9 43.8 60.9Z"/></g><g transform="translate(806.000000, 107.000000)" fill="#FFFFFF"><path d="M48.2 0L39.3 0C37.7 0 36.2 1.3 36 2.9L33.4 22.1 54.1 22.1 51.5 2.9C51.3 1.3 49.8 0 48.2 0ZM48.2 87L39.3 87C37.7 87 36.2 85.7 36 84.1L33.4 64.9 54.1 64.9 51.5 84.1C51.3 85.7 49.8 87 48.2 87ZM77.7 15.9L71.4 9.6C70.2 8.5 68.3 8.3 67 9.3L51.6 21.1 66.2 35.7 77.9 20.3C78.9 19 78.8 17 77.7 15.9ZM16.1 77.4L9.9 71.1C8.7 70 8.6 68 9.6 66.7L21.3 51.3 35.9 65.9 20.6 77.7C19.3 78.7 17.3 78.5 16.1 77.4ZM87.3 47.9L87.3 39.1C87.3 37.4 85.9 36 84.3 35.7L65.1 33.2 65.1 53.8 84.3 51.3C85.9 51 87.3 49.6 87.3 47.9ZM0.3 47.9L0.3 39.1C0.3 37.4 1.6 36 3.2 35.7L22.4 33.2 22.4 53.8 3.2 51.3C1.6 51 0.3 49.6 0.3 47.9ZM71.4 77.4L77.7 71.1C78.8 70 78.9 68 77.9 66.7L66.2 51.3 51.6 65.9 67 77.7C68.3 78.7 70.2 78.5 71.4 77.4ZM9.9 15.9L16.1 9.6C17.3 8.5 19.3 8.3 20.6 9.3L35.9 21.1 21.3 35.7 9.6 20.3C8.6 19 8.7 17 9.9 15.9Z"/><path d="M43.8 70.5C58.7 70.5 70.7 58.4 70.7 43.6 70.7 28.7 58.7 16.7 43.8 16.7 29 16.7 16.9 28.7 16.9 43.6 16.9 58.4 29 70.5 43.8 70.5ZM43.8 60.9C53.4 60.9 61.1 53.1 61.1 43.6 61.1 34 53.4 26.3 43.8 26.3 34.3 26.3 26.5 34 26.5 43.6 26.5 53.1 34.3 60.9 43.8 60.9Z"/></g><g transform="translate(806.000000, 7.000000)" fill="#496063"><path d="M39.3 0C37.7 0 36.2 1.3 36 2.9L33.4 22.1 54.1 22.1 51.5 2.9C51.3 1.3 49.8 0 48.2 0L39.3 0ZM39.3 87C37.7 87 36.2 85.7 36 84.1L33.4 64.9 54.1 64.9 51.5 84.1C51.3 85.7 49.8 87 48.2 87L39.3 87ZM71.4 9.6C70.2 8.5 68.3 8.3 67 9.3L51.6 21.1 66.2 35.7 77.9 20.3C78.9 19 78.8 17 77.7 15.9L71.4 9.6ZM9.9 71.1C8.7 70 8.6 68 9.6 66.7L21.3 51.3 35.9 65.9 20.6 77.7C19.3 78.7 17.3 78.5 16.1 77.4L9.9 71.1ZM87.3 39.1C87.3 37.4 85.9 36 84.3 35.7L65.1 33.2 65.1 53.8 84.3 51.3C85.9 51 87.3 49.6 87.3 47.9L87.3 39.1ZM0.3 39.1C0.3 37.4 1.6 36 3.2 35.7L22.4 33.2 22.4 53.8 3.2 51.3C1.6 51 0.3 49.6 0.3 47.9L0.3 39.1ZM77.7 71.1C78.8 70 78.9 68 77.9 66.7L66.2 51.3 51.6 65.9 67 77.7C68.3 78.7 70.2 78.5 71.4 77.4L77.7 71.1ZM16.1 9.6C17.3 8.5 19.3 8.3 20.6 9.3L35.9 21.1 21.3 35.7 9.6 20.3C8.6 19 8.7 17 9.9 15.9L16.1 9.6Z"/><path d="M43.8 70.5C58.7 70.5 70.7 58.4 70.7 43.6 70.7 28.7 58.7 16.7 43.8 16.7 29 16.7 16.9 28.7 16.9 43.6 16.9 58.4 29 70.5 43.8 70.5ZM43.8 60.9C53.4 60.9 61.1 53.1 61.1 43.6 61.1 34 53.4 26.3 43.8 26.3 34.3 26.3 26.5 34 26.5 43.6 26.5 53.1 34.3 60.9 43.8 60.9Z"/></g><g transform="translate(724.000000, 224.000000)" fill="#27919E"><g transform="translate(42.404559, 43.108970) rotate(22.000000) translate(-42.404559, -43.108970) translate(29.904559, 30.108970)"><path d="M13.8 0L11.2 0C10.7 0 10.3 0.4 10.2 0.9L9.5 6.5 15.5 6.5 14.8 0.9C14.7 0.4 14.3 0 13.8 0ZM13.8 25.7L11.2 25.7C10.7 25.7 10.3 25.4 10.2 24.9L9.5 19.2 15.5 19.2 14.8 24.9C14.7 25.4 14.3 25.7 13.8 25.7ZM22.4 4.7L20.6 2.8C20.3 2.5 19.7 2.5 19.3 2.8L14.8 6.2 19.1 10.6 22.5 6C22.8 5.6 22.8 5 22.4 4.7ZM4.4 22.9L2.6 21.1C2.3 20.7 2.2 20.1 2.5 19.7L6 15.2 10.2 19.5 5.7 23C5.3 23.3 4.8 23.2 4.4 22.9ZM25.2 14.2L25.2 11.6C25.2 11.1 24.9 10.6 24.4 10.6L18.8 9.8 18.8 15.9 24.4 15.2C24.9 15.1 25.2 14.7 25.2 14.2ZM-0.2 14.2L-0.2 11.6C-0.2 11.1 0.2 10.6 0.6 10.6L6.3 9.8 6.3 15.9 0.6 15.2C0.2 15.1-0.2 14.7-0.2 14.2ZM20.6 22.9L22.4 21.1C22.8 20.7 22.8 20.1 22.5 19.7L19.1 15.2 14.8 19.5 19.3 23C19.7 23.3 20.3 23.2 20.6 22.9ZM2.6 4.7L4.4 2.8C4.8 2.5 5.3 2.5 5.7 2.8L10.2 6.2 6 10.6 2.5 6C2.2 5.6 2.3 5 2.6 4.7Z"/><path d="M12.5 20.9C16.9 20.9 20.4 17.3 20.4 12.9 20.4 8.5 16.9 4.9 12.5 4.9 8.2 4.9 4.7 8.5 4.7 12.9 4.7 17.3 8.2 20.9 12.5 20.9ZM12.5 18C15.3 18 17.6 15.7 17.6 12.9 17.6 10.1 15.3 7.8 12.5 7.8 9.7 7.8 7.5 10.1 7.5 12.9 7.5 15.7 9.7 18 12.5 18Z"/></g><g transform="translate(-0.333333, 0.000000)"><path d="M21.3 0L17.3 0C16.6 0 15.9 0.6 15.8 1.3L14.7 10.1 24 10.1 22.8 1.3C22.7 0.6 22.1 0 21.3 0ZM21.3 39.8L17.3 39.8C16.6 39.8 15.9 39.2 15.8 38.4L14.7 29.7 24 29.7 22.8 38.4C22.7 39.2 22.1 39.8 21.3 39.8ZM34.7 7.3L31.8 4.4C31.3 3.9 30.4 3.8 29.8 4.3L22.9 9.6 29.5 16.3 34.8 9.3C35.2 8.7 35.2 7.8 34.7 7.3ZM6.8 35.4L4 32.5C3.5 32 3.4 31.1 3.9 30.5L9.2 23.5 15.8 30.1 8.8 35.5C8.3 36 7.4 35.9 6.8 35.4ZM39 21.9L39 17.9C39 17.1 38.4 16.4 37.7 16.3L29 15.2 29 24.6 37.7 23.4C38.4 23.3 39 22.7 39 21.9ZM-0.3 21.9L-0.3 17.9C-0.3 17.1 0.3 16.4 1 16.3L9.7 15.2 9.7 24.6 1 23.4C0.3 23.3-0.3 22.7-0.3 21.9ZM31.8 35.4L34.7 32.5C35.2 32 35.2 31.1 34.8 30.5L29.5 23.5 22.9 30.1 29.8 35.5C30.4 36 31.3 35.9 31.8 35.4ZM4 7.3L6.8 4.4C7.4 3.9 8.3 3.8 8.8 4.3L15.8 9.6 9.2 16.3 3.9 9.3C3.4 8.7 3.5 7.8 4 7.3Z"/><path d="M19.4 32.2C26.1 32.2 31.5 26.7 31.5 19.9 31.5 13.1 26.1 7.6 19.4 7.6 12.6 7.6 7.2 13.1 7.2 19.9 7.2 26.7 12.6 32.2 19.4 32.2ZM19.4 27.8C23.7 27.8 27.2 24.3 27.2 19.9 27.2 15.6 23.7 12 19.4 12 15 12 11.5 15.6 11.5 19.9 11.5 24.3 15 27.8 19.4 27.8Z"/></g></g><g transform="translate(723.000000, 24.000000)" fill="#496063"><g transform="translate(43.630643, 42.994302) rotate(22.000000) translate(-43.630643, -42.994302) translate(30.963977, 30.185313)"><path d="M13.8 0L11.2 0C10.7 0 10.3 0.4 10.2 0.9L9.5 6.5 15.5 6.5 14.8 0.9C14.7 0.4 14.3 0 13.8 0ZM13.8 25.7L11.2 25.7C10.7 25.7 10.3 25.4 10.2 24.9L9.5 19.2 15.5 19.2 14.8 24.9C14.7 25.4 14.3 25.7 13.8 25.7ZM22.4 4.7L20.6 2.8C20.3 2.5 19.7 2.5 19.3 2.8L14.8 6.2 19.1 10.6 22.5 6C22.8 5.6 22.8 5 22.4 4.7ZM4.4 22.9L2.6 21.1C2.3 20.7 2.2 20.1 2.5 19.7L6 15.2 10.2 19.5 5.7 23C5.3 23.3 4.8 23.2 4.4 22.9ZM25.2 14.2L25.2 11.6C25.2 11.1 24.9 10.6 24.4 10.6L18.8 9.8 18.8 15.9 24.4 15.2C24.9 15.1 25.2 14.7 25.2 14.2ZM-0.2 14.2L-0.2 11.6C-0.2 11.1 0.2 10.6 0.6 10.6L6.3 9.8 6.3 15.9 0.6 15.2C0.2 15.1-0.2 14.7-0.2 14.2ZM20.6 22.9L22.4 21.1C22.8 20.7 22.8 20.1 22.5 19.7L19.1 15.2 14.8 19.5 19.3 23C19.7 23.3 20.3 23.2 20.6 22.9ZM2.6 4.7L4.4 2.8C4.8 2.5 5.3 2.5 5.7 2.8L10.2 6.2 6 10.6 2.5 6C2.2 5.6 2.3 5 2.6 4.7Z"/><path d="M12.5 20.9C16.9 20.9 20.4 17.3 20.4 12.9 20.4 8.5 16.9 4.9 12.5 4.9 8.2 4.9 4.7 8.5 4.7 12.9 4.7 17.3 8.2 20.9 12.5 20.9ZM12.5 18C15.3 18 17.6 15.7 17.6 12.9 17.6 10.1 15.3 7.8 12.5 7.8 9.7 7.8 7.5 10.1 7.5 12.9 7.5 15.7 9.7 18 12.5 18Z"/></g><g transform="translate(0.666667, 0.000000)"><path d="M21.3 0L17.3 0C16.6 0 15.9 0.6 15.8 1.3L14.7 10.1 24 10.1 22.8 1.3C22.7 0.6 22.1 0 21.3 0ZM21.3 39.8L17.3 39.8C16.6 39.8 15.9 39.2 15.8 38.4L14.7 29.7 24 29.7 22.8 38.4C22.7 39.2 22.1 39.8 21.3 39.8ZM34.7 7.3L31.8 4.4C31.3 3.9 30.4 3.8 29.8 4.3L22.9 9.6 29.5 16.3 34.8 9.3C35.2 8.7 35.2 7.8 34.7 7.3ZM6.8 35.4L4 32.5C3.5 32 3.4 31.1 3.9 30.5L9.2 23.5 15.8 30.1 8.8 35.5C8.3 36 7.4 35.9 6.8 35.4ZM39 21.9L39 17.9C39 17.1 38.4 16.4 37.7 16.3L29 15.2 29 24.6 37.7 23.4C38.4 23.3 39 22.7 39 21.9ZM-0.3 21.9L-0.3 17.9C-0.3 17.1 0.3 16.4 1 16.3L9.7 15.2 9.7 24.6 1 23.4C0.3 23.3-0.3 22.7-0.3 21.9ZM31.8 35.4L34.7 32.5C35.2 32 35.2 31.1 34.8 30.5L29.5 23.5 22.9 30.1 29.8 35.5C30.4 36 31.3 35.9 31.8 35.4ZM4 7.3L6.8 4.4C7.4 3.9 8.3 3.8 8.8 4.3L15.8 9.6 9.2 16.3 3.9 9.3C3.4 8.7 3.5 7.8 4 7.3Z"/><path d="M19.4 32.2C26.1 32.2 31.5 26.7 31.5 19.9 31.5 13.1 26.1 7.6 19.4 7.6 12.6 7.6 7.2 13.1 7.2 19.9 7.2 26.7 12.6 32.2 19.4 32.2ZM19.4 27.8C23.7 27.8 27.2 24.3 27.2 19.9 27.2 15.6 23.7 12 19.4 12 15 12 11.5 15.6 11.5 19.9 11.5 24.3 15 27.8 19.4 27.8Z"/></g></g><path d="M633.8 158.8C630.2 153.4 628 147 628 140 628 121.8 642.8 107 661 107 679.2 107 694 121.8 694 140 694 158.2 679.2 173 661 173 653.7 173 647 170.6 641.5 166.6L615.7 192.4C613.4 194.8 609.6 194.8 607.3 192.4L608 193.1C605.6 190.8 605.6 187 608 184.6L633.8 158.8ZM661 164.5C674.5 164.5 685.5 153.5 685.5 140 685.5 126.5 674.5 115.5 661 115.5 647.5 115.5 636.5 126.5 636.5 140 636.5 153.5 647.5 164.5 661 164.5Z" fill="#FFFFFF"/><path d="M633.8 58.8C630.2 53.4 628 47 628 40 628 21.8 642.8 7 661 7 679.2 7 694 21.8 694 40 694 58.2 679.2 73 661 73 653.7 73 647 70.6 641.5 66.6L615.7 92.4C613.4 94.8 609.6 94.8 607.3 92.4L608 93.1C605.6 90.8 605.6 87 608 84.6L633.8 58.8ZM661 64.5C674.5 64.5 685.5 53.5 685.5 40 685.5 26.5 674.5 15.5 661 15.5 647.5 15.5 636.5 26.5 636.5 40 636.5 53.5 647.5 64.5 661 64.5Z" fill="#9B82C0"/><path d="M596 151L576.8 125 550.5 125 524.2 125 505 151 550.5 151 596 151ZM596 163L589.4 157 550.5 157 511.6 157 505 163 550.5 163 596 163ZM596 176L589.4 170 550.5 170 511.6 170 505 176 550.5 176 596 176Z" fill="#FFFFFF"/><path d="M596 51L576.8 25 550.5 25 524.2 25 505 51 550.5 51 596 51ZM596 63L589.4 57 550.5 57 511.6 57 505 63 550.5 63 596 63ZM596 76L589.4 70 550.5 70 511.6 70 505 76 550.5 76 596 76Z" fill="#496063"/><path d="M405.4 422.9C405.2 423.6 405 424.3 405 425L405 475C405 475.2 405 475.5 405 475.7L434.4 447.2 405.4 422.9ZM408.8 479.9C409.2 479.9 409.6 480 410 480L490 480C490.3 480 490.6 480 491 479.9L461.3 451.1 450.2 460.5 438.7 450.8 408.8 479.9ZM494.9 475.9C495 475.6 495 475.3 495 475L495 425C495 424.4 494.9 423.8 494.7 423.2L465.7 447.5 494.9 475.9ZM490.4 420C490.3 420 490.1 420 490 420L410 420 450.2 453.7 490.4 420Z" fill="#D7D0C6"/><path d="M405.4 322.9C405.2 323.6 405 324.3 405 325L405 375C405 375.2 405 375.5 405 375.7L434.4 347.2 405.4 322.9ZM408.8 379.9C409.2 379.9 409.6 380 410 380L490 380C490.3 380 490.6 380 491 379.9L461.3 351.1 450.2 360.5 438.7 350.8 408.8 379.9ZM494.9 375.9C495 375.6 495 375.3 495 375L495 325C495 324.4 494.9 323.8 494.7 323.2L465.7 347.5 494.9 375.9ZM490.4 320C490.3 320 490.1 320 490 320L410 320 450.2 353.7 490.4 320Z" fill="#496063"/><path d="M405.4 222.9C405.2 223.6 405 224.3 405 225L405 275C405 275.2 405 275.5 405 275.7L434.4 247.2 405.4 222.9ZM408.8 279.9C409.2 279.9 409.6 280 410 280L490 280C490.3 280 490.6 280 491 279.9L461.3 251.1 450.2 260.5 438.7 250.8 408.8 279.9ZM494.9 275.9C495 275.6 495 275.3 495 275L495 225C495 224.4 494.9 223.8 494.7 223.2L465.7 247.5 494.9 275.9ZM490.4 220C490.3 220 490.1 220 490 220L410 220 450.2 253.7 490.4 220Z" fill="#27919E"/><path d="M405.4 122.9C405.2 123.6 405 124.3 405 125L405 175C405 175.2 405 175.5 405 175.7L434.4 147.2 405.4 122.9ZM408.8 179.9C409.2 179.9 409.6 180 410 180L490 180C490.3 180 490.6 180 491 179.9L461.3 151.1 450.2 160.5 438.7 150.8 408.8 179.9ZM494.9 175.9C495 175.6 495 175.3 495 175L495 125C495 124.4 494.9 123.8 494.7 123.2L465.7 147.5 494.9 175.9ZM490.4 120C490.3 120 490.1 120 490 120L410 120 450.2 153.7 490.4 120Z" fill="#FFFFFF"/><path d="M405.4 22.9C405.2 23.6 405 24.3 405 25L405 75C405 75.2 405 75.5 405 75.7L434.4 47.2 405.4 22.9ZM408.8 79.9C409.2 79.9 409.6 80 410 80L490 80C490.3 80 490.6 80 491 79.9L461.3 51.1 450.2 60.5 438.7 50.8 408.8 79.9ZM494.9 75.9C495 75.6 495 75.3 495 75L495 25C495 24.4 494.9 23.8 494.7 23.2L465.7 47.5 494.9 75.9ZM490.4 20C490.3 20 490.1 20 490 20L410 20 450.2 53.7 490.4 20Z" fill="#7D4DB8"/><g transform="translate(317.000000, 103.000000)" fill="#FFFFFF"><path d="M64 83.9L64 14.9 14.9 0.3 0.3 11.9 0.3 79.4 47.8 93.3 48.1 93 48.1 26.8 4.6 13.6 15.9 4.3 60.6 18.4 60.6 84 64 83.9Z"/><path d="M50.5 91.2L50.5 25.4 9 12.8 16.4 6.6 58.5 19.9 58.5 85.6 50.5 91.2Z" opacity="0.6"/></g><g transform="translate(317.000000, 3.000000)" fill="#536CB8"><path d="M64 83.9L64 14.9 14.9 0.3 0.3 11.9 0.3 79.4 47.8 93.3 48.1 93 48.1 26.8 4.6 13.6 15.9 4.3 60.6 18.4 60.6 84 64 83.9Z"/><path d="M50.5 91.2L50.5 25.4 9 12.8 16.4 6.6 58.5 19.9 58.5 85.6 50.5 91.2Z" opacity="0.6"/></g><path d="M252.2 160.7C251.4 162.1 251 163.8 251 165.5 251 171.3 255.7 176 261.5 176 267.3 176 272 171.3 272 165.5 272 163.1 271.2 160.8 269.8 159L269.8 159 282.8 139.7C283.7 139.9 284.6 140 285.5 140 291.3 140 296 135.3 296 129.5 296 123.7 291.3 119 285.5 119 279.7 119 275 123.7 275 129.5 275 131.8 275.8 134 277 135.7L263.9 155.3C263.1 155.1 262.3 155 261.5 155 260 155 258.6 155.3 257.3 155.9L248 146.9C248.6 145.6 249 144.1 249 142.5 249 136.7 244.3 132 238.5 132 232.7 132 228 136.7 228 142.5 228 144.3 228.4 145.9 229.2 147.4L229.2 147.4 218.1 161.6C217 161.2 215.8 161 214.5 161 208.7 161 204 165.7 204 171.5 204 177.3 208.7 182 214.5 182 220.3 182 225 177.3 225 171.5 225 169.5 224.5 167.7 223.5 166.1L234.4 152.2C235.7 152.7 237 153 238.5 153 240.2 153 241.7 152.6 243.1 151.9L252.2 160.7Z" fill="#FFFFFF"/><path d="M252.2 60.7C251.4 62.1 251 63.8 251 65.5 251 71.3 255.7 76 261.5 76 267.3 76 272 71.3 272 65.5 272 63.1 271.2 60.8 269.8 59L269.8 59 282.8 39.7C283.7 39.9 284.6 40 285.5 40 291.3 40 296 35.3 296 29.5 296 23.7 291.3 19 285.5 19 279.7 19 275 23.7 275 29.5 275 31.8 275.8 34 277 35.7L263.9 55.3C263.1 55.1 262.3 55 261.5 55 260 55 258.6 55.3 257.3 55.9L248 46.9C248.6 45.6 249 44.1 249 42.5 249 36.7 244.3 32 238.5 32 232.7 32 228 36.7 228 42.5 228 44.3 228.4 45.9 229.2 47.4L229.2 47.4 218.1 61.6C217 61.2 215.8 61 214.5 61 208.7 61 204 65.7 204 71.5 204 77.3 208.7 82 214.5 82 220.3 82 225 77.3 225 71.5 225 69.5 224.5 67.7 223.5 66.1L234.4 52.2C235.7 52.7 237 53 238.5 53 240.2 53 241.7 52.6 243.1 51.9L252.2 60.7Z" fill="#3586B3"/><path d="M235.4 279.1L219 279.1C212.4 279.1 207 273.7 207 267.1L207 230C207 223.4 212.4 218 219 218L281 218C287.6 218 293 223.4 293 230L293 267.1C293 273.7 287.6 279.1 281 279.1L251.9 279.1 235.4 295.6 235.4 279.1Z" fill="#D7D0C6"/><path d="M135.4 279.1L119 279.1C112.4 279.1 107 273.7 107 267.1L107 230C107 223.4 112.4 218 119 218L181 218C187.6 218 193 223.4 193 230L193 267.1C193 273.7 187.6 279.1 181 279.1L151.9 279.1 135.4 295.6 135.4 279.1Z" fill="#496063"/><path d="M135.4 179.1L119 179.1C112.4 179.1 107 173.7 107 167.1L107 130C107 123.4 112.4 118 119 118L181 118C187.6 118 193 123.4 193 130L193 167.1C193 173.7 187.6 179.1 181 179.1L151.9 179.1 135.4 195.6 135.4 179.1Z" fill="#FFFFFF"/><path d="M135.4 79.1L119 79.1C112.4 79.1 107 73.7 107 67.1L107 30C107 23.4 112.4 18 119 18L181 18C187.6 18 193 23.4 193 30L193 67.1C193 73.7 187.6 79.1 181 79.1L151.9 79.1 135.4 95.6 135.4 79.1Z" fill="#2997A8"/><path d="M41.7 155C50.6 143.4 73.6 113.2 75.6 110.5 78 107.3 84.2 103.9 89.5 108 94.9 112.1 95.4 116.8 90.6 123.5 86.8 128.8 62.8 153 53 164.4L41.7 155ZM37.3 159.7C30.6 161.9 24.3 168.7 21.3 176.3 18.2 184.3 9.7 183.8 7.2 183.8 19.5 201.1 47.4 191.1 48.8 170.7L37.3 159.7Z" fill="#FFFFFF"/><path d="M41.7 55C50.6 43.4 73.6 13.2 75.6 10.5 78 7.3 84.2 3.9 89.5 8 94.9 12.1 95.4 16.8 90.6 23.5 86.8 28.8 62.8 53 53 64.4L41.7 55ZM37.3 59.7C30.6 61.9 24.3 68.7 21.3 76.3 18.2 84.3 9.7 83.8 7.2 83.8 19.5 101.1 47.4 91.1 48.8 70.7L37.3 59.7Z" fill="#38A58E"/></g></svg>