<svg width="1000" height="400" viewBox="0" version="1.1" xmlns="http://www.w3.org/2000/svg"><title>icons-social</title><description>Created with Sketch (http://www.bohemiancoding.com/sketch)</description><g stroke="none" stroke-width="1" fill="none" fill-rule="evenodd"><g fill="#FFFFFF"><g transform="translate(5.000000, 8.000000)"><path d="M270.75 363.28L265.94 363.28 265.96 360.48C265.96 359.24 266.98 358.23 268.23 358.23L268.53 358.23C269.78 358.23 270.8 359.24 270.8 360.48L270.75 363.28 270.75 363.28ZM252.72 357.29C251.5 357.29 250.5 358.11 250.5 359.12L250.5 372.7C250.5 373.7 251.5 374.52 252.72 374.52 253.94 374.52 254.94 373.7 254.94 372.7L254.94 359.12C254.94 358.11 253.94 357.29 252.72 357.29L252.72 357.29ZM282 349.7L282 375.53C282 381.73 276.63 386.8 270.06 386.8L220.94 386.8C214.37 386.8 209 381.73 209 375.53L209 349.7C209 343.5 214.37 338.43 220.94 338.43L270.06 338.43C276.63 338.43 282 343.5 282 349.7L282 349.7ZM224.22 378.34L224.22 351.12 230.3 351.12 230.3 347.09 214.07 347.07 214.07 351.03 219.14 351.05 219.14 378.34 224.22 378.34 224.22 378.34ZM242.47 355.18L237.39 355.18 237.39 369.71C237.39 371.81 237.52 372.86 237.39 373.23 236.97 374.36 235.12 375.56 234.4 373.35 234.27 372.97 234.38 371.81 234.38 369.81L234.36 355.18 229.31 355.18 229.33 369.58C229.33 371.79 229.28 373.43 229.34 374.18 229.47 375.5 229.42 377.04 230.65 377.92 232.93 379.57 237.31 377.68 238.4 375.32L238.39 378.33 242.47 378.33 242.47 355.18 242.47 355.18ZM258.71 371.82L258.7 359.72C258.69 355.11 255.25 352.35 250.56 356.08L250.58 347.09 245.51 347.1 245.49 378.14 249.66 378.07 250.04 376.14C255.37 381.03 258.72 377.68 258.71 371.82L258.71 371.82ZM274.59 370.21L270.79 370.23C270.79 370.39 270.78 370.56 270.78 370.75L270.78 372.87C270.78 374.01 269.84 374.94 268.7 374.94L267.95 374.94C266.81 374.94 265.87 374.01 265.87 372.87L265.87 372.64 265.87 370.3 265.87 367.29 274.59 367.29 274.59 364.01C274.59 361.61 274.53 359.21 274.33 357.84 273.7 353.51 267.62 352.82 264.55 355.04 263.58 355.73 262.84 356.66 262.41 357.91 261.98 359.15 261.77 360.86 261.77 363.02L261.77 370.23C261.77 382.22 276.33 380.53 274.59 370.21L274.59 370.21ZM255.07 331.06C255.33 331.7 255.74 332.21 256.29 332.6 256.84 332.98 257.53 333.18 258.37 333.18 259.1 333.18 259.75 332.98 260.31 332.57 260.88 332.17 261.35 331.56 261.74 330.75L261.64 332.74 267.3 332.74 267.3 308.68 262.84 308.68 262.84 327.41C262.84 328.42 262.01 329.25 260.99 329.25 259.97 329.25 259.14 328.42 259.14 327.41L259.14 308.68 254.49 308.68 254.49 324.91C254.49 326.98 254.52 328.36 254.59 329.05 254.65 329.75 254.81 330.41 255.07 331.06L255.07 331.06ZM237.92 317.47C237.92 315.16 238.12 313.36 238.5 312.06 238.89 310.76 239.58 309.72 240.58 308.93 241.58 308.14 242.86 307.75 244.42 307.75 245.72 307.75 246.85 308.01 247.78 308.51 248.72 309.02 249.45 309.67 249.95 310.48 250.47 311.3 250.82 312.13 251 312.99 251.19 313.86 251.28 315.16 251.28 316.93L251.28 323.01C251.28 325.25 251.19 326.89 251.02 327.93 250.85 328.98 250.48 329.94 249.91 330.85 249.34 331.75 248.61 332.43 247.73 332.85 246.84 333.29 245.81 333.5 244.66 333.5 243.37 333.5 242.28 333.32 241.39 332.95 240.49 332.58 239.8 332.02 239.3 331.28 238.8 330.54 238.45 329.64 238.24 328.58 238.02 327.53 237.92 325.95 237.92 323.84L237.92 317.47 237.92 317.47ZM242.36 327.03C242.36 328.39 243.37 329.5 244.61 329.5 245.84 329.5 246.85 328.39 246.85 327.03L246.85 314.22C246.85 312.86 245.84 311.75 244.61 311.75 243.37 311.75 242.36 312.86 242.36 314.22L242.36 327.03 242.36 327.03ZM226.7 333.5L232.03 333.5 232.04 315.04 238.35 299.23 232.51 299.23 229.16 310.97 225.76 299.2 219.98 299.2 226.69 315.05 226.7 333.5 226.7 333.5Z"/><path d="M173.01 331.55C170.74 332.15 150.03 348.13 148.67 352.04 148.37 353.4 148.7 366.53 149 368.49 150.37 368.8 160.22 368.53 162.02 368.83L161.81 372.89C160.04 372.76 147.52 372.79 140.38 372.79 136.75 372.79 125.08 373.19 121.49 373.08L122.17 369.22C124.14 369.08 132.28 369.58 134.06 367.69 134.95 366.75 134.67 354.27 134.37 352.16 133.61 349.91 115.46 327.29 110.72 323.59L98.5 323.59 98.5 317.9 139.72 317.9 139.72 318.29C139.76 318.29 139.83 318.3 139.86 318.31L139.72 319.27 139.72 323.59 127.29 323.59C132.83 331.64 140.78 341.37 144.16 346.05L160.77 331.08 150.9 331.08 149.51 325.4 185.66 325.4 185.39 325.81C185.42 325.81 185.48 325.81 185.52 325.81L182.94 329.54C182.91 329.54 182.87 329.55 182.85 329.55L181.81 331.08 175.14 331.08C174.28 331.27 173.52 331.44 173.01 331.55L173.01 331.55ZM184.69 366.93L181.49 366.77 177.91 366.32 177.94 372.62 180.76 372.87 183.8 373.1 184.69 366.93 184.69 366.93ZM190.5 338.48C189.47 338.44 180.1 337.52 178.88 337.27L179.02 362.97 184.33 363.42 190.5 338.48 190.5 338.48Z"/><path d="M26.83 347.91L26.83 365 30.66 365 30.66 343.94 26.83 347.91 26.83 347.91ZM69.68 343.94C67.18 343.94 65.13 345.96 65.13 348.5L65.13 360.44C65.13 362.95 67.18 365 69.68 365L89.08 365 89.08 361.01 69.65 361.01C69.36 361.01 69.1 360.77 69.1 360.44L69.1 356.45 80.33 356.45 83.22 352.49 69.1 352.49 69.1 348.5C69.1 348.18 69.36 347.93 69.65 347.93L85.98 347.93 90.02 343.94 69.68 343.94 69.68 343.94ZM0.98 343.94L0.98 361.4C1.43 363.46 3.28 365 5.49 365L23 365 23 361.01 5.46 361.01C5.16 361.01 4.91 360.77 4.91 360.44L4.91 343.94 0.98 343.94 0.98 343.94ZM59.57 343.94L49.84 360.74C49.73 360.91 49.54 361.01 49.33 361.01 49.13 361.01 48.95 360.91 48.84 360.74L39.1 343.94 34.49 343.94 45.38 362.73C46.16 364.08 47.65 365 49.33 365 51.02 365 52.49 364.08 53.3 362.73L64.17 343.94 59.57 343.94 59.57 343.94ZM21.76 328.74L28.74 338.19 26.47 338.19 20.61 330.3 14.75 338.19 12.47 338.19 19.45 328.74 12.96 320 15.25 320C15.25 320 19.86 326.21 20.59 327.2L20.6 327.19C20.6 327.19 20.6 327.2 20.61 327.2 20.61 327.2 20.61 327.19 20.61 327.19L20.62 327.2C21.35 326.21 25.97 320 25.97 320L28.25 320 21.76 328.74ZM63.21 329.57C63.21 335.2 59.48 339.15 54.13 339.15 48.77 339.15 45.02 335.2 45.02 329.57 45.02 323.93 48.77 320 54.13 320 59.48 320 63.21 323.93 63.21 329.57L63.21 329.57ZM60.93 329.58C60.93 325.07 58.18 321.91 54.24 321.91 50.28 321.91 47.53 325.07 47.53 329.58 47.53 334.09 50.28 337.23 54.24 337.23 58.18 337.23 60.93 334.09 60.93 329.58L60.93 329.58ZM44.06 332.87C44.06 336.15 41.51 338.19 37.4 338.19L29.82 338.19 29.82 329.7 25.87 329.7 27.28 327.81 29.82 327.81 29.82 320 37.4 320C43.03 320 43.47 323.79 43.47 324.95 43.47 326.52 42.58 327.88 41.23 328.6 41.63 328.77 42.05 329.03 42.45 329.35 43.5 330.23 44.06 331.45 44.06 332.87L44.06 332.87ZM31.81 327.57L37.36 327.57C39.92 327.57 41.38 326.49 41.38 324.6 41.38 322.18 38.86 321.83 37.36 321.83L31.81 321.83 31.81 327.57 31.81 327.57ZM41.53 332.95C41.53 330.29 39.16 329.73 37.18 329.73L31.96 329.73 31.96 336.43 37.18 336.43C38.8 336.43 41.53 335.98 41.53 332.95L41.53 332.95ZM77.57 338.19L70.6 328.74 77.08 320 74.79 320C74.79 320 70.21 326.18 69.46 327.19L69.46 327.19C69.45 327.2 69.44 327.21 69.44 327.21 69.44 327.21 69.43 327.2 69.42 327.19L69.42 327.19C68.66 326.17 64.08 320 64.08 320L61.78 320 68.27 328.74 61.3 338.19 63.58 338.19 69.43 330.31 75.29 338.19 77.57 338.19 77.57 338.19Z"/><path d="M975.62 204.52C963.59 204.12 955.45 210.87 951.18 224.77 953.38 223.87 955.51 223.41 957.59 223.41 961.98 223.41 963.92 225.87 963.4 230.81 963.15 233.8 961.21 238.15 957.59 243.86 953.96 249.58 951.25 252.43 949.45 252.43 947.11 252.43 944.99 248.01 943.04 239.19 942.39 236.59 941.23 229.97 939.56 219.32 937.99 209.45 933.86 204.84 927.14 205.49 924.3 205.75 920.04 208.35 914.35 213.28 910.2 217.05 906 220.81 901.73 224.58L905.8 229.83C909.68 227.1 911.96 225.75 912.59 225.75 915.56 225.75 918.35 230.42 920.93 239.76 923.25 248.34 925.59 256.91 927.92 265.47 931.4 274.82 935.68 279.5 940.71 279.5 948.85 279.5 958.82 271.84 970.58 256.52 981.96 241.85 987.83 230.29 988.23 221.84 988.75 210.55 984.55 204.77 975.62 204.52L975.62 204.52Z"/><path d="M844.25 224.93L844.44 228.09 841.25 227.7C829.64 226.22 819.5 221.2 810.89 212.76L806.68 208.57 805.59 211.67C803.3 218.56 804.76 225.83 809.55 230.73 812.1 233.43 811.52 233.82 807.12 232.21 805.59 231.69 804.25 231.31 804.13 231.5 803.68 231.95 805.21 237.81 806.42 240.13 808.08 243.35 811.46 246.5 815.16 248.37L818.29 249.85 814.59 249.92C811.01 249.92 810.89 249.98 811.27 251.33 812.54 255.52 817.58 259.96 823.2 261.89L827.15 263.25 823.71 265.31C818.6 268.27 812.61 269.94 806.61 270.07 803.74 270.14 801.38 270.39 801.38 270.59 801.38 271.23 809.16 274.84 813.69 276.25 827.28 280.44 843.42 278.64 855.54 271.49 864.15 266.4 872.76 256.29 876.78 246.5 878.95 241.29 881.11 231.76 881.11 227.18 881.11 224.22 881.31 223.84 884.88 220.29 886.98 218.23 888.96 215.98 889.34 215.34 889.98 214.11 889.92 214.11 886.66 215.21 881.24 217.14 880.48 216.88 883.15 213.98 885.13 211.92 887.49 208.19 887.49 207.09 887.49 206.9 886.54 207.22 885.45 207.8 884.3 208.45 881.75 209.41 879.84 209.99L876.39 211.09 873.27 208.96C871.55 207.8 869.12 206.51 867.85 206.13 864.59 205.23 859.62 205.35 856.68 206.38 848.71 209.28 843.67 216.75 844.25 224.93Z"/><path d="M752.84 268.55C751.44 267.73 750.14 266.31 749.63 264.94 749.11 263.56 749.17 260.76 749.17 255.91L749.17 234.45 768.69 234.45 768.69 219.51 749.18 219.51 749.18 200.16 737.17 200.16C736.63 204.47 735.65 208.03 734.22 210.82 732.78 213.62 730.89 216.01 728.52 218.01 726.16 220 722.31 221.54 719 222.6L719 234.45 730.46 234.45 730.46 263.8C730.46 267.63 730.87 270.55 731.68 272.56 732.49 274.57 733.94 276.48 736.03 278.27 738.13 280.04 740.66 281.43 743.62 282.4 746.58 283.36 748.86 283.84 752.72 283.84 756.11 283.84 759.28 283.5 762.21 282.83 765.13 282.14 768.4 280.96 772 279.29L772 266.08C767.77 268.84 763.52 270.21 759.25 270.21 756.84 270.21 754.72 269.66 752.84 268.55L752.84 268.55Z"/><path d="M684.5 230.84C684.5 235.54 680.7 239.34 676 239.34 671.31 239.34 667.5 235.54 667.5 230.84 667.5 226.15 671.31 222.34 676 222.34 680.7 222.34 684.5 226.15 684.5 230.84L684.5 230.84ZM680.69 245.61L670.38 254.36C670.49 255.06 670.56 255.77 670.56 256.5 670.56 263.96 664.48 270 656.97 270 650.5 270 645.09 265.5 643.72 259.49L618.24 250.9C616.22 252.42 613.72 253.33 610.99 253.33 604.37 253.33 599 248 599 241.42 599 234.84 604.37 229.51 610.99 229.51 616.69 229.51 621.45 233.45 622.68 238.74L647.29 247.03C649.69 244.62 653 243.1 656.66 243.02L660.35 231.89C660.34 231.67 660.32 231.45 660.32 231.23 660.32 222.82 667.19 216 675.66 216 684.13 216 691 222.82 691 231.23 691 237.89 686.69 243.54 680.69 245.61L680.69 245.61ZM619 237.38C617.54 234.77 614.75 233 611.54 233 606.82 233 603 236.81 603 241.5 603 246.19 606.82 250 611.54 250 612.41 250 613.25 249.87 614.04 249.63L609.98 248.26C606.72 246.51 605.49 242.46 607.24 239.21 608.99 235.96 613.06 234.73 616.32 236.47L619 237.38 619 237.38ZM664 231C664 237.63 669.37 243 676 243 682.62 243 688 237.63 688 231 688 224.37 682.62 219 676 219 669.37 219 664 224.37 664 231L664 231ZM654.8 249C654.08 249 653.39 249.09 652.73 249.24L657.87 250.94C661.13 252.65 662.36 256.62 660.61 259.81 658.86 263 654.8 264.2 651.54 262.49L646 260.65C647.16 264.33 650.66 267 654.8 267 659.88 267 664 262.97 664 258 664 253.03 659.88 249 654.8 249Z"/><path d="M500 251.02C500 254.07 501.39 256.79 503.57 258.62L503.57 243.43C501.39 245.26 500 247.98 500 251.02M507.34 241.43L507.34 260.62C508.23 260.86 509.17 261 510.14 261L511.12 261 511.12 241.09C510.79 241.07 510.47 241.05 510.14 241.05 509.17 241.05 508.23 241.18 507.34 241.43M515.68 242.68C515.42 242.51 515.16 242.36 514.89 242.22L514.89 261 518.66 261 518.66 235.88C517.16 237.84 516.11 240.16 515.68 242.68M522.44 232.35L522.44 261 526.21 261 526.21 230.49C524.86 230.95 523.6 231.58 522.44 232.35M529.98 229.71L529.98 261 533.76 261 533.76 229.83C532.99 229.71 532.19 229.65 531.38 229.65 530.91 229.65 530.44 229.67 529.98 229.71M539.61 231.92C538.38 231.19 537.05 230.61 535.65 230.23L535.65 261 541.31 261 541.31 229.65C540.69 230.36 540.12 231.12 539.61 231.92M543.2 227.75L543.2 261 579.05 261 579.05 260.96C586.6 260.47 590 255.79 590 250.08 590 244.04 585.44 239.15 579.3 239.15 577.72 239.15 576.42 239.48 575.05 240.06 574.07 230.48 565.94 223 555.93 223 551.04 223 546.59 224.79 543.2 227.75"/><g transform="translate(401.700855, 219.500000)"><path d="M86.95 24.07C86.95 36.36 76.99 46.32 64.71 46.32 63.02 46.32 61.38 46.13 59.81 45.78 55.4 41.85 52.62 36.13 52.62 29.76 52.62 17.93 62.21 8.33 74.05 8.33 76.75 8.33 79.34 8.83 81.72 9.74 84.98 13.61 86.95 18.61 86.95 24.07Z" opacity="0.65"/><path d="M2.53 36.47C6.05 42.94 13.92 48.56 23.87 47.34 33.83 46.12 37.18 38.71 38.19 32.6 39.21 26.5 37.81 19.2 36.18 16.15 34.55 13.1 34.03 11.47 35.15 10.56 37.85 8.34 41.63 9.74 45.81 12.32 43.69 15.73 42.46 19.76 42.46 24.07 42.46 34.68 49.88 43.55 59.81 45.78 55.4 41.85 52.62 36.13 52.62 29.76 52.62 17.93 62.21 8.33 74.05 8.33 76.75 8.33 79.34 8.83 81.72 9.74 77.64 4.9 71.53 1.83 64.71 1.83 58.67 1.83 53.2 4.23 49.2 8.13 47.85 6.58 45.15 4.01 40.44 1.63 34.69-1.29 29.46-0.2 26.21 3.15 22.96 6.5 22.86 13.35 24.59 17.72 26.31 22.09 26.64 27.44 23.99 29.05 21.63 30.48 18.27 30.68 13.29 27.12 12.25 26.38 11.35 25.6 10.55 24.77L10.67 27.53 5.99 25.7 4.57 30.07 0.01 27.01C0.25 30.59 1.2 34.02 2.53 36.47Z"/><path d="M3.76 13.55C6.12 18.35 7.77 21.88 10.55 24.77L10.67 27.53 5.99 25.7 4.57 30.07 0.01 27.01C-0.32 22.12 0.65 16.94 3.76 13.55Z" opacity="0.65"/></g><path d="M345.38 201.86C345.16 201.85 345.04 201.85 345.04 201.85 342.3 202.07 331.94 203.28 325.94 211.1 318.97 220.17 322.65 234.93 322.65 234.93 322.65 234.93 321.38 236.35 318.9 235.45 316.43 234.55 314.65 233.94 313.38 234.61 312.1 235.28 311.35 237.31 311.5 238.51 311.65 239.71 312.76 240.62 314.18 241.45 315.61 242.27 319.13 242.87 320.25 243.47 321.38 244.07 322.5 246.02 321.68 248.12 320.85 250.21 318.9 253.57 315.08 257.09 311.26 260.61 307.22 262.64 305.27 262.94 303.31 263.23 301.89 264.36 303.01 266.16 304.14 267.95 308.19 269.23 310.06 269.75 311.93 270.28 313.65 270.12 314.18 270.95 314.71 271.78 314.26 274.25 315.23 275.08 316.21 275.9 317.71 276.42 319.8 275.6 321.9 274.78 326.47 274.48 329.02 275.9 331.54 277.31 336.98 283.45 345.38 283.53 353.78 283.45 359.22 277.31 361.74 275.9 364.29 274.48 368.86 274.78 370.96 275.6 373.05 276.42 374.55 275.9 375.53 275.08 376.5 274.25 376.05 271.78 376.58 270.95 377.11 270.12 378.83 270.28 380.7 269.75 382.57 269.23 386.62 267.95 387.75 266.16 388.87 264.36 387.45 263.23 385.49 262.94 383.54 262.64 379.5 260.61 375.68 257.09 371.85 253.57 369.91 250.21 369.08 248.12 368.26 246.02 369.38 244.07 370.51 243.47 371.63 242.87 375.15 242.27 376.58 241.45 378 240.62 379.11 239.71 379.26 238.51 379.41 237.31 378.66 235.28 377.38 234.61 376.11 233.94 374.33 234.55 371.86 235.45 369.38 236.35 368.11 234.93 368.11 234.93 368.11 234.93 371.79 220.17 364.82 211.1 358.82 203.28 348.46 202.07 345.72 201.88 345.72 201.85 345.6 201.85 345.38 201.86Z"/><path d="M285.33 248.37C285.65 246.29 285.83 244.17 285.83 242 285.83 219.45 267.55 201.17 245 201.17 242.83 201.17 240.7 201.35 238.63 201.67 234.87 199.35 230.43 198 225.67 198 212.05 198 201 209.04 201 222.67 201 227.43 202.35 231.86 204.67 235.63 204.35 237.71 204.17 239.83 204.17 242 204.17 264.55 222.45 282.82 245 282.82 247.16 282.82 249.29 282.66 251.37 282.33 255.13 284.65 259.57 286 264.32 286 277.95 286 289 274.95 289 261.33 289 256.57 287.65 252.14 285.33 248.37L285.33 248.37ZM264.38 260.57C262.65 263.05 260.12 265 256.8 266.39 253.48 267.79 249.55 268.49 245.02 268.49 239.59 268.49 235.09 267.54 231.54 265.62 229.02 264.25 226.97 262.4 225.4 260.1 223.82 257.8 223.02 255.54 223.02 253.35 223.02 252.05 223.51 250.92 224.48 250 225.45 249.08 226.7 248.61 228.18 248.61 229.39 248.61 230.43 248.98 231.28 249.7 232.12 250.42 232.82 251.47 233.4 252.86 234.09 254.46 234.84 255.81 235.64 256.88 236.44 257.94 237.55 258.82 239 259.51 240.43 260.2 242.34 260.55 244.72 260.55 247.98 260.55 250.62 259.85 252.64 258.45 254.66 257.05 255.64 255.34 255.64 253.27 255.64 251.63 255.11 250.32 254.04 249.3 252.95 248.27 251.55 247.48 249.8 246.93 248.06 246.38 245.71 245.79 242.77 245.17 238.82 244.31 235.51 243.3 232.84 242.15 230.16 240.99 228.02 239.41 226.44 237.41 224.86 235.4 224.07 232.89 224.07 229.92 224.07 227.09 224.9 224.56 226.57 222.35 228.24 220.14 230.66 218.45 233.81 217.27 236.94 216.09 240.64 215.51 244.87 215.51 248.25 215.51 251.18 215.9 253.66 216.68 256.13 217.46 258.19 218.5 259.84 219.8 261.47 221.09 262.68 222.46 263.44 223.9 264.2 225.33 264.59 226.74 264.59 228.11 264.59 229.39 264.09 230.55 263.13 231.56 262.16 232.58 260.93 233.09 259.49 233.09 258.2 233.09 257.18 232.79 256.47 232.15 255.78 231.54 255.06 230.57 254.28 229.21 253.29 227.31 252.11 225.83 250.74 224.77 249.4 223.73 247.19 223.19 244.12 223.2 241.27 223.2 239 223.78 237.28 224.92 235.55 226.07 234.73 227.41 234.72 228.98 234.73 229.96 235.01 230.79 235.58 231.5 236.16 232.22 236.96 232.84 237.99 233.36 239.03 233.89 240.08 234.3 241.13 234.6 242.2 234.9 243.98 235.34 246.44 235.92 249.53 236.59 252.34 237.33 254.86 238.14 257.37 238.96 259.52 239.94 261.29 241.11 263.08 242.28 264.48 243.77 265.47 245.57 266.48 247.37 266.98 249.57 266.98 252.16 266.98 255.28 266.11 258.08 264.38 260.57L264.38 260.57Z"/><path d="M157.59 259.46C153.64 261.82 148.99 263.11 144.39 263.11 140.93 263.11 137.49 262.38 134.37 260.85 133.87 260.64 133.34 260.23 132.75 259.84 132.46 259.65 130.46 258.08 128.73 259.96 127 261.84 128.86 264.1 129.32 264.34 133.77 267.34 139.01 268.71 144.27 268.7 149.02 268.7 153.79 267.6 158.04 265.6 158.64 265.24 159.39 264.95 160.09 264.51 160.43 264.29 162.52 262.83 161.54 260.75 160.57 258.66 158 259.18 157.59 259.46ZM189.81 238.69C189.81 240.89 189.11 243 187.94 244.79 186.85 246.47 185.35 247.87 183.62 248.82 183.73 249.7 183.79 250.58 183.79 251.45 183.79 256.18 182.17 260.83 179.35 264.55 174.13 271.53 166.13 275.65 158.04 277.73 153.72 278.78 149.28 279.32 144.83 279.32 138.21 279.32 131.59 278.12 125.41 275.63 119 272.96 112.9 268.74 109.16 262.55 107.14 259.25 106.04 255.38 106.04 251.49 106.04 250.61 106.1 249.73 106.21 248.85 104.53 247.9 103.07 246.54 101.98 244.93 100.83 243.19 100.09 241.16 100 239 100 235.96 101.3 233.1 103.32 231 105.34 228.9 108.1 227.52 111.06 227.52 111.5 227.5 111.81 227.49 112.12 227.49 113.61 227.49 115.1 227.73 116.52 228.28 117.74 228.8 118.94 229.41 120.01 230.27 120.36 230.09 120.74 229.88 121.16 229.72 127.65 225.85 135.19 224.36 142.53 223.93 142.6 220.27 143.04 216.43 144.82 213.08 146.3 210.29 148.86 208.12 151.92 207.37 153.11 207.13 154.28 207.03 155.45 207.03 158.55 207.03 161.62 207.77 164.49 208.92 165.76 206.99 167.58 205.49 169.71 204.64 171 204.23 172.32 204 173.64 204 174.37 204 176.71 204.2 178.68 205.21 180.46 206.13 181.88 207.83 182.42 208.63 183.56 210.32 184.23 212.35 184.23 214.43 184.23 214.82 184.2 215.2 184.16 215.58 183.93 218.3 182.58 220.67 180.66 222.35 178.73 224.04 176.23 225.06 173.67 225.06 173.26 225.06 172.84 225.04 172.43 224.98 169.88 224.79 167.51 223.55 165.77 221.71 164.02 219.87 162.89 217.41 162.89 214.76 162.89 214.63 162.91 214.5 162.91 214.37 160.52 213.3 157.99 212.41 155.47 212.41 155.1 212.41 154.74 212.43 154.37 212.47 152.48 212.65 150.73 213.85 149.88 215.57 148.59 218.11 148.33 221.06 148.29 224 155.53 224.47 162.8 226.22 169.18 229.91 169.4 230.04 169.63 230.16 169.83 230.27 170.27 229.91 170.73 229.54 171.26 229.23 173.2 227.93 175.49 227.29 177.78 227.29 178.8 227.29 179.82 227.42 180.81 227.67 183.22 228.29 185.34 229.64 186.93 231.46 188.51 233.28 189.58 235.59 189.79 238.09 189.8 238.3 189.81 238.5 189.81 238.69ZM168.56 213.62C168.56 213.71 168.56 213.81 168.57 213.91L168.57 213.91 168.57 213.93C168.62 215.14 169.18 216.28 170.04 217.12 170.91 217.95 172.05 218.47 173.21 218.48L173.23 218.48 173.24 218.48C173.33 218.49 173.41 218.49 173.49 218.49 174.67 218.49 175.83 217.97 176.71 217.14 177.58 216.3 178.16 215.16 178.21 213.93L178.21 213.92 178.21 213.91C178.22 213.82 178.22 213.73 178.22 213.63 178.22 212.37 177.64 211.16 176.73 210.27 175.82 209.38 174.6 208.83 173.4 208.83 173.01 208.83 172.63 208.88 172.25 209L172.24 209 172.23 209.01C171.24 209.27 170.31 209.89 169.64 210.72 168.97 211.54 168.56 212.56 168.56 213.62L168.56 213.62ZM115.45 233.71C114.44 233.28 113.4 232.97 112.38 232.97 112.2 232.97 112.03 232.98 111.86 233L111.83 233 111.81 233C110.33 233.04 108.84 233.63 107.73 234.59 106.61 235.54 105.87 236.82 105.81 238.23L105.81 238.25 105.81 238.26C105.8 238.37 105.79 238.49 105.79 238.6 105.79 239.47 106.08 240.31 106.57 241.08 106.94 241.65 107.41 242.17 107.95 242.63 109.68 239.14 112.37 236.17 115.45 233.71L115.45 233.71ZM178.22 252.28C178.22 248.99 177.05 245.69 175.15 243.03 171.37 237.7 165.49 234.22 159.39 232.28L159.35 232.27C158.17 231.9 156.99 231.58 155.8 231.31 152.23 230.48 148.57 230.07 144.91 230.07 140 230.07 135.09 230.81 130.39 232.28 124.29 234.24 118.4 237.69 114.62 243.04L114.62 243.04C112.71 245.71 111.59 249.03 111.59 252.33 111.59 253.54 111.74 254.76 112.06 255.94L112.06 255.94C112.75 258.6 114.09 260.96 115.83 263.03 117.57 265.1 119.7 266.86 121.95 268.3 122.44 268.61 122.94 268.91 123.45 269.2 129.97 272.88 137.48 274.49 144.93 274.49 146.19 274.49 147.46 274.45 148.71 274.36 156.22 273.73 163.75 271.49 169.84 266.91L169.84 266.9C171.78 265.45 173.58 263.69 175 261.7 176.43 259.7 177.47 257.46 177.94 255.04L177.94 255.03 177.94 255.03C178.13 254.12 178.22 253.2 178.22 252.28L178.22 252.28ZM184.01 238.39C184.01 237.63 183.83 236.88 183.42 236.18L183.41 236.17 183.4 236.16C182.86 235.11 182 234.32 180.97 233.79 179.93 233.25 178.73 232.97 177.51 232.97 176.42 232.97 175.33 233.2 174.36 233.65 177.44 236.13 180.14 239.12 181.88 242.63 182.44 242.17 182.92 241.62 183.28 241 183.75 240.19 184.01 239.28 184.01 238.39ZM158.91 252.28C162.11 252.28 164.7 249.69 164.7 246.49 164.7 243.29 162.11 240.7 158.91 240.7 155.71 240.7 153.11 243.29 153.11 246.49 153.11 249.69 155.71 252.28 158.91 252.28ZM130.9 252.28C134.1 252.28 136.7 249.69 136.7 246.49 136.7 243.29 134.1 240.7 130.9 240.7 127.7 240.7 125.11 243.29 125.11 246.49 125.11 249.69 127.7 252.28 130.9 252.28Z"/><path d="M0.12 239.76L23.11 199.34 46.11 239.76 0.12 239.76ZM9.09 234.74L23.11 210.04 37.13 234.74 9.09 234.74ZM68.25 198.73C56.17 198.73 46.38 208.53 46.38 220.62 46.38 232.72 56.17 242.52 68.25 242.52 80.33 242.52 90.12 232.72 90.12 220.62 90.12 208.53 80.33 198.73 68.25 198.73ZM68.25 205.04C59.65 205.04 52.68 212.02 52.68 220.62 52.68 229.23 59.65 236.21 68.25 236.21 76.85 236.21 83.82 229.23 83.82 220.62 83.82 212.02 76.85 205.04 68.25 205.04ZM43.3 250.42L28.18 265.56 43.3 280.7 38.77 285.24 23.65 270.1 8.52 285.24 3.99 280.7 19.11 265.56 3.99 250.42 8.52 245.89 23.65 261.02 38.77 245.89 43.3 250.42ZM88.73 284.67L88.73 245.37 49.47 245.37 49.47 284.67 88.73 284.67ZM83.12 279.05L83.12 250.98 55.08 250.98 55.08 279.05 83.12 279.05Z"/><path d="M911.9 130.43C911.9 139.03 915.06 146.67 921.82 149.52 922.93 149.99 923.92 149.54 924.25 148.27 924.47 147.4 925 145.18 925.24 144.26 925.56 143.01 925.43 142.57 924.54 141.48 922.59 139.1 921.34 136.03 921.34 131.68 921.34 119.05 930.5 107.74 945.19 107.74 958.19 107.74 965.34 115.94 965.34 126.89 965.34 141.3 959.16 153.46 949.98 153.46 944.92 153.46 941.12 149.14 942.34 143.84 943.8 137.51 946.62 130.67 946.62 126.1 946.62 122.01 944.49 118.6 940.08 118.6 934.9 118.6 930.74 124.13 930.74 131.54 930.74 136.25 932.29 139.44 932.29 139.44 932.29 139.44 926.99 162.62 926.06 166.67 924.21 174.76 925.78 184.66 925.91 185.67 925.99 186.26 926.73 186.4 927.07 185.95 927.54 185.31 933.71 177.45 935.81 169.6 936.4 167.37 939.21 155.86 939.21 155.86 940.9 159.17 945.82 162.09 951.05 162.09 966.61 162.09 977.18 147.45 977.18 127.84 977.18 113.02 965.01 99.21 946.52 99.21 923.51 99.21 911.9 116.24 911.9 130.43Z"/><path d="M824.6 103.24C813.66 107.57 806.23 115.92 804.16 127.16 802.88 134.07 803.37 141.59 806.42 148.04 807.09 149.47 807.91 150.85 808.88 152.13 809.35 152.75 809.85 153.35 810.4 153.91 811.37 153.57 812.31 153.13 813.2 152.63 816.9 150.54 819.62 147.33 822.79 144.63 812.21 132.37 823.42 117.18 837.45 113.79 850.5 110.64 868.2 116.08 872.16 129.51 873.8 135.08 872.73 141.23 868.19 145.26 865.82 147.36 862.81 148.76 859.62 149.33 857.76 149.66 855.85 149.71 853.97 149.52 852.93 149.42 851.88 149.24 850.86 149 849.12 148.59 847.58 148.65 847.58 146.78L847.58 132.09 847.58 124.74C847.58 123.24 847.72 123.53 846.48 123.37 845.49 123.25 844.51 123.15 843.53 123.08 840.06 122.81 836.44 122.62 833.01 123.21 831.72 123.43 831.64 123.23 831.64 124.62L831.64 128 831.64 136.24C831.64 144.44 832.26 152.74 831.92 160.93 831.82 163.37 831.75 169.23 829.02 170.44 825.85 171.84 823.06 168.88 820.14 168.26 820.54 172.37 817.96 180.52 822.76 182.6 827.15 184.5 832.21 185.21 836.84 183.64 846.55 180.34 849.69 169.54 848.46 160.67 863.44 165.14 879.61 157.65 886.02 144.12 890.59 134.49 888.66 122.52 881.79 114.33 868.92 98.98 842.8 96.04 824.6 103.24L824.6 103.24Z"/><path d="M790 159.16L790 163.6 790 171 700 171 700 163.6 700 159.16 700 142 711.65 142 711.65 159.16 778.35 159.16 778.35 142 790 142 790 159.16Z"/><path d="M599.57 153.26C601.06 139.24 612.63 134.29 614.33 133.64 611.45 131.35 609.61 127.84 609.61 123.91 609.61 117.01 615.28 111.41 622.28 111.41 629.28 111.41 634.95 117.01 634.95 123.91 634.95 127.8 633.14 131.28 630.31 133.57 632.68 134.41 635.01 135.67 637.09 137.31 631.59 140.08 619.46 148.07 617.62 165.31 617.62 165.45 617.62 165.59 617.62 165.73 606.97 165.06 605.88 162.16 605.88 162.16L605.88 162.15C605.2 161.49 604.68 160.68 604.35 159.67 602.8 159.31 601.83 158.37 601.83 158.37 601.83 158.37 599.44 157.47 599.57 153.26L599.57 153.26ZM644 137.14C641.5 138.1 624.49 145.38 622.28 165.97 622.1 172.16 625.61 173.47 625.61 173.47 625.61 173.47 625.61 173.47 625.61 173.47 625.61 173.47 627.05 174.85 629.33 175.38 629.8 176.87 630.57 178.06 631.57 179.04L631.57 179.04C631.57 179.04 633.25 183.54 650.1 184.37 650.35 184.41 650.6 184.45 650.84 184.5L655.03 184.5C655.56 184.5 656.09 184.5 656.64 184.5L661.46 184.5C661.87 184.42 662.3 184.35 662.72 184.28 680.04 183.13 681.86 177.69 681.86 177.69L681.86 177.68C682.32 177 682.7 176.24 682.97 175.38 690.85 173.81 690.23 164.38 687.87 157.14 684.59 147.08 676.25 140.15 667.5 137.05 671.67 133.68 674.33 128.57 674.33 122.85 674.33 112.72 665.98 104.5 655.69 104.5 645.4 104.5 637.06 112.72 637.06 122.85 637.06 128.63 639.76 133.78 644 137.14L644 137.14Z"/><path d="M579.39 183.75C579.29 183.75 579.19 183.73 579.09 183.69L549.48 171.31C549.24 171.21 549.07 171 549.02 170.74 548.98 170.49 549.06 170.23 549.24 170.05 552.65 166.74 554.52 162.31 554.52 157.56 554.52 155.55 554.18 153.58 553.51 151.7 553.48 151.61 553.46 151.53 553.46 151.45L531.84 122.41C527.5 126.17 523.39 131.79 523.86 137.27 523.89 137.69 523.58 138.07 523.15 138.1 522.74 138.13 522.36 137.82 522.32 137.4 521.77 130.86 526.94 124.28 531.97 120.31 538.02 115.52 544.59 113.47 549.1 114.96 549.5 115.09 549.73 115.53 549.59 115.93 549.46 116.34 549.03 116.56 548.62 116.42 544.68 115.13 538.57 117.09 533.03 121.43L555.11 151.08C560.81 154.58 568.46 154.4 574.01 150.6 574.22 150.45 574.5 150.42 574.75 150.53 574.99 150.63 575.16 150.85 575.2 151.12L580.15 182.86C580.19 183.13 580.08 183.41 579.86 183.58 579.73 183.69 579.56 183.75 579.39 183.75L579.39 183.75ZM550.74 170.36L578.26 181.85 573.67 152.44C568.12 155.74 560.9 155.95 555.19 153.01 555.54 154.48 555.73 155.99 555.73 157.51 555.73 162.32 553.96 166.84 550.74 170.36L550.74 170.36ZM516.45 129.67C516.05 129.67 515.71 129.36 515.68 128.96 515.12 122.39 520.32 115.79 525.38 111.8 531.47 106.99 538.08 104.93 542.62 106.42 543.03 106.56 543.25 106.99 543.11 107.4 542.98 107.81 542.55 108.03 542.14 107.89 538.14 106.58 531.94 108.59 526.34 113.01 521.6 116.75 516.72 122.87 517.22 128.82 517.26 129.25 516.94 129.63 516.51 129.66 516.49 129.67 516.47 129.67 516.45 129.67L516.45 129.67ZM568.77 177.78C569.92 174.08 573.21 171.22 577.31 170.46L579.21 181.85 568.77 177.78 568.77 177.78ZM534.16 101.2C524.04 101.2 508.32 115.42 513.99 125.42L547.44 169.61 579.21 182.8 573.79 148.26 540.34 104.25C538.93 102.12 536.73 101.2 534.16 101.2L534.16 101.2ZM534.24 98.36C537.95 98.36 541.01 99.89 542.9 102.68L576.05 146.37C576.36 146.78 576.56 147.25 576.64 147.75L582.02 182.1C582.19 183.2 581.75 184.31 580.88 184.99 580.32 185.42 579.65 185.64 578.97 185.64 578.57 185.64 578.17 185.57 577.78 185.41L546.24 172.29C545.74 172.08 545.3 171.74 544.97 171.31L511.75 127.35C511.67 127.24 511.6 127.13 511.53 127.01 509.12 122.77 509.47 117.58 512.5 112.41 517.05 104.66 526.8 98.36 534.24 98.36L534.24 98.36 534.24 98.36Z"/><path d="M490 151.73L490 185 470.71 185 470.71 153.96C470.71 146.16 467.92 140.83 460.94 140.83 455.61 140.83 452.44 144.42 451.04 147.89 450.53 149.13 450.4 150.86 450.4 152.59L450.4 185 431.1 185C431.1 185 431.36 132.42 431.1 126.97L450.4 126.97 450.4 135.2C450.36 135.26 450.31 135.32 450.27 135.39L450.4 135.39 450.4 135.2C452.96 131.25 457.54 125.61 467.79 125.61 480.48 125.61 490 133.9 490 151.73L490 151.73ZM410.92 99C404.32 99 400 103.33 400 109.02 400 114.59 404.19 119.06 410.66 119.06L410.79 119.06C417.52 119.06 421.71 114.6 421.71 109.02 421.58 103.33 417.52 99 410.92 99L410.92 99ZM401.15 185L420.44 185 420.44 126.97 401.15 126.97 401.15 185 401.15 185Z"/><path d="M354.79 157.11L353.79 154.86 345.14 134.92C342.27 127.87 335.15 123.1 327.11 123.1 316.24 123.1 307.42 132.01 307.42 143 307.42 154 316.24 162.91 327.11 162.91 334.7 162.91 341.29 158.58 344.58 152.22L348.08 160.38C343.12 166.5 335.56 170.4 327.11 170.4 312.14 170.4 300 158.14 300 143 300 127.87 312.14 115.6 327.11 115.6 338.41 115.6 347.54 121.7 352.17 132.51 352.53 133.34 357.07 144.1 361.04 153.25 363.5 158.91 365.6 162.67 372.4 162.9 379.08 163.13 383.66 159.02 383.66 153.83 383.66 148.76 380.16 147.54 374.26 145.56 363.66 142.02 358.18 138.48 358.18 129.98 358.18 121.68 363.76 116.16 372.83 116.16 378.74 116.16 383.01 118.81 385.96 124.11L380.16 127.1C377.98 124.01 375.57 122.79 372.51 122.79 368.25 122.79 365.21 125.78 365.21 129.76 365.21 135.41 370.21 136.27 377.21 138.59 386.62 141.69 391 145.23 391 154.06 391 163.34 383.12 170.1 372.83 170.08 363.36 170.05 358.3 165.36 354.79 157.11Z"/><g transform="translate(207.129822, 96.321121)"><path d="M37.7 17.22C39.03 8.73 36.15 2.9 34.01 1.06 31.87-0.79 29.36 0.1 27.07 1.65 24.78 3.2 16.74 9.62 10.91 21.57 5.07 33.53 3.23 44.08 2.49 50.43 1.75 56.78 0.35 60.39-0.02 65.12 -0.39 69.84 0.65 76.05 2.72 79.07 4.79 82.1 15.04 86.45 18.14 88.08 21.24 89.7 27.96 92.35 29.95 92.28 31.94 92.21 33.83 91.45 39.95 88.35 46.08 85.25 48.96 82.01 49.92 80.53 50.88 79.06 50.59 77.21 50.22 76.32 49.85 75.44 48.52 74.41 48.45 73.3 48.37 72.19 51.39 61.86 51.1 60.68 51.05 60.47 50.76 60.07 50.33 59.53 54.59 58.25 58.5 55.76 62.7 51.85 66.98 47.86 73.03 40.71 75.62 35.83 78.2 30.96 80.19 23.28 79.53 20.33 78.87 17.37 76.36 14.13 72.81 14.27 69.27 14.42 62.77 17.6 59.08 19.51 55.39 21.43 43.95 27.56 39.81 30.36 37.72 31.78 36.07 32.9 34.94 33.66 35.8 28.72 36.87 22.54 37.7 17.22Z" opacity="0.5"/><path d="M33.71 40.69C33.54 41.69 33.29 42.64 32.96 43.54 34.62 44.57 35.86 45.6 39.23 48.98 35.56 46.47 34.58 45.35 32.62 44.4 31.51 46.95 29.76 49 27.51 50.36 26.82 50.77 26.99 49.68 27.28 49.17 27.85 48.17 30.45 42.83 31.12 39.95 31.78 37.06 33.92 25.55 34.59 19.87 35.25 14.18 34.51 5.92 33.7 4.37 32.89 2.82 30.97 2.96 28.98 4 26.98 5.03 21.37 10.57 18.64 14.77 15.91 18.98 11.93 25.11 9.71 31.38 7.5 37.66 5.68 47.1 4.92 53.59 4.82 54.37 4.69 54.48 4.32 55.14 3.96 55.81 2.11 60.32 1.52 64.67 0.93 69.02 1.23 75.22 4.55 79.87 7.87 84.52 14.66 85.48 18.65 87.4 22.63 89.32 27.21 91.09 29.94 91.01 32.67 90.94 36.95 88.87 39.75 87.39 42.56 85.92 47.57 82.23 48.39 80.16 49.2 78.09 49.57 77.5 48.39 76.4 47.2 75.29 46.46 74.55 46.76 73.59 47.05 72.63 49.27 64.22 49.56 62.67 49.86 61.12 49.49 60.01 48.75 59.13 48.01 58.24 43.06 51.89 43.06 51.89 43.06 51.89 45.01 53.81 46.99 55.87 48.53 56.11 51.61 55.82 53.18 55.32 54.8 54.81 61.08 50.45 66.17 44.62 71.26 38.79 74.73 32.66 75.69 29.04 76.65 25.43 77.46 21.52 76.21 19.38 74.95 17.24 72.44 16.94 70.01 17.75 67.57 18.56 59.45 22.62 53.1 25.94 46.76 29.27 41.02 32.88 38.96 34.21 37.2 35.34 35.18 37.11 33.93 39.42 33.85 39.89 33.78 40.31 33.71 40.69ZM37.7 17.22C39.03 8.73 36.15 2.9 34.01 1.06 31.87-0.79 29.36 0.1 27.07 1.65 24.78 3.2 16.74 9.62 10.91 21.57 5.07 33.53 3.23 44.08 2.49 50.43 1.75 56.78 0.35 60.39-0.02 65.12 -0.39 69.84 0.65 76.05 2.72 79.07 4.79 82.1 15.04 86.45 18.14 88.08 21.24 89.7 27.96 92.35 29.95 92.28 31.94 92.21 33.83 91.45 39.95 88.35 46.08 85.25 48.96 82.01 49.92 80.53 50.88 79.06 50.59 77.21 50.22 76.32 49.85 75.44 48.52 74.41 48.45 73.3 48.37 72.19 51.39 61.86 51.1 60.68 51.05 60.47 50.76 60.07 50.33 59.53 54.59 58.25 58.5 55.76 62.7 51.85 66.98 47.86 73.03 40.71 75.62 35.83 78.2 30.96 80.19 23.28 79.53 20.33 78.87 17.37 76.36 14.13 72.81 14.27 69.27 14.42 62.77 17.6 59.08 19.51 55.39 21.43 43.95 27.56 39.81 30.36 37.72 31.78 36.07 32.9 34.94 33.66 35.8 28.72 36.87 22.54 37.7 17.22Z"/><path d="M21.12 63.87C23.48 64.45 24.75 66.28 24.46 69.14L26.06 69.3C26.43 65.65 24.64 63.08 21.5 62.31 18.2 61.51 14.84 63.51 13.77 67.41L15.32 67.83C16.16 64.77 18.66 63.27 21.12 63.87ZM44.33 69.6C44.96 69.69 46.01 71.11 45.9 73.96L46.23 74.11C46.37 70.47 45.69 69.04 44.47 68.27 43.2 67.46 41.91 69.01 41.5 72.91L42.74 73.1C43.07 70.04 43.7 69.51 44.33 69.6ZM32.19 70.77C32.19 70.77 35.17 71.4 36.43 71.68 37.69 71.97 39.76 72.14 39.76 72.14 39.76 72.14 37.12 74.15 36.49 74.15 35.86 74.15 32.19 70.77 32.19 70.77ZM20.62 79.88C23.6 82.17 30.02 82.34 33.86 80.68 35.63 82.85 38.38 83.83 38.38 83.83 38.38 83.83 34.89 81.94 34.37 79.36 29.68 81.59 26.98 81.64 20.62 79.88Z"/></g><path d="M188.09 145.38C187.06 143.86 186.03 142.34 184.47 141.33 183.18 140.44 181.62 139.8 180.21 139.17 184.21 137.26 186.95 134.6 188.25 131.17 189.15 128.38 188.74 125.91 187.5 123.56 186.26 121.21 183.98 119.37 180.75 118.49 178.81 118.11 176.66 118.11 174.73 118.23L170.48 119.12 171.92 115.95C173.21 111.89 172.83 107.95 170.63 104.27L170.25 103.64C168.31 100.47 165.46 98.56 161.58 97.55 157.58 96.53 154.16 96.91 150.54 98.82 146.92 100.72 143.5 103.64 143.5 107.44L143.04 108.59 142.36 107.7 140.98 105.42C138.91 102.24 136.29 100.34 133.05 99.45 130.21 98.82 127.87 99.07 125.41 100.34 122.7 101.99 121.13 104.53 120.48 108.08 119.83 111.76 120.48 115.32 122.42 118.86L123.32 120.14 120.22 119.12C116.34 118.23 112.72 118.74 109.1 120.64 105.34 122.54 103.02 125.21 101.46 128.89 100.04 132.44 100.17 135.86 101.98 139.04 102.76 140.44 103.92 141.58 104.96 142.34 106.51 143.86 108.45 144.75 110.78 145.13L111.68 145.38 109.74 147.04C107.93 148.56 106.9 150.46 106.25 152.37 105.61 154.65 105.86 156.93 107.16 159.09 107.8 160.11 108.45 160.99 109.48 161.63 110.52 162.51 111.81 163.15 113.36 163.28 116.21 163.92 119.18 163.92 122.41 162.9L120.08 166.71 119.44 168.35C118.15 172.41 118.53 175.96 120.47 179.64 121.38 181.05 122.41 182.31 123.45 183.45 125 184.85 126.93 185.74 129.27 186.37 133.14 187.39 137.02 187.25 140.77 185.35 144.39 183.45 146.72 180.4 147.88 176.6L148.01 175.84C150.47 178.5 152.79 180.28 155.38 180.92 157.97 181.67 160.55 181.55 162.88 180.03 165.08 178.75 166.63 176.6 167.4 173.93 168.05 171.14 168.05 168.35 167.4 165.19 168.69 166.07 169.99 166.7 171.54 167.08 175.67 168.35 179.3 168.22 182.92 166.32 186.41 164.42 188.74 161.37 189.9 157.44 190.94 153.63 190.68 149.95 188.74 146.4L188.09 145.38ZM169.99 125.21L171.54 124.57C173.87 123.56 176.07 123.31 178.4 123.56 180.59 123.82 182.15 124.83 182.92 126.35L183.44 128 183.18 129.27C182.27 131.56 180.33 133.33 177.1 134.73 175.81 135.36 174.39 135.61 172.84 135.86L156.93 137.77 156.67 136.88 156.41 136.5 156.93 135.86 169.99 125.21 169.99 125.21ZM148.01 109.22C148.65 106.69 150.47 104.78 152.79 103.51 155.12 102.24 157.71 101.99 160.16 102.88 162.88 103.51 164.82 104.91 165.99 107.06 166.63 108.33 167.02 109.86 167.02 111.51L166.63 114.3C166.11 115.69 165.47 116.96 164.69 118.11L153.06 132.06C151.89 131.17 150.6 130.54 149.3 129.91L148.01 115.57 147.88 110.49 148.01 109.22 148.01 109.22ZM125.91 109.6C126.03 107.32 126.93 105.8 128.49 104.91 129.27 104.27 130.43 104.27 131.46 104.78 133.79 105.42 135.73 107.07 137.28 110.24 137.93 111.51 138.57 112.78 138.83 114.3L141.42 129.27 139.48 129.91 127.97 117.6 127.32 116.33C126.29 114.04 125.65 111.89 125.91 109.6L125.91 109.6ZM106.9 136.5C105.86 134.6 105.86 132.7 106.64 130.8 107.55 128.38 109.23 126.48 111.68 125.46 114.01 124.19 116.33 123.82 118.92 124.45L122.41 125.84 133.79 133.96C132.76 135.24 132.11 136.5 131.72 137.77L113.1 140.06 111.81 139.8C109.48 139.42 107.93 138.41 106.9 136.5L106.9 136.5ZM143.5 173.94L143.04 175.21C142.14 177.49 140.42 179.39 138.09 180.4 135.77 181.68 133.22 181.93 130.9 181.3 128.31 180.66 126.33 179.14 125.3 177.11 124.65 175.84 124.12 174.32 124.12 172.79L124.75 169.88C125.01 168.61 125.65 167.34 126.69 166.32L137.54 153.63C138.84 154.27 140.45 154.9 141.88 155.03 142.13 159.34 143.5 163.92 143.5 168.86L143.5 173.94 143.5 173.94ZM138.57 148.56C136.89 147.04 135.99 144.88 135.99 142.6 135.99 140.31 136.89 138.41 138.57 136.63 140.12 135.24 142.19 134.35 144.65 134.35 146.98 134.35 149.18 135.24 150.6 136.63 152.4 138.41 153.19 140.31 153.19 142.6 153.19 144.88 152.4 147.04 150.6 148.56 148.92 150.21 146.98 151.09 144.65 151.09 142.19 151.1 140.12 150.21 138.57 148.56L138.57 148.56ZM162.49 170.76C162.24 173.05 161.46 174.7 159.9 175.34 159 175.97 157.97 175.97 156.93 175.85 154.48 175.21 152.54 173.31 151.12 170.26L149.56 166.07 147.63 155.03 149.82 154.27 151.5 153.39 156.93 158.84 160.3 162.9 160.94 164.16C162.1 166.32 162.75 168.36 162.49 170.76L162.49 170.76ZM180.33 161.37C178.01 162.64 175.68 162.9 173.1 162.01 171.54 161.63 170.51 160.99 169.6 159.98L156.03 148.94 156.93 147.04 157.32 145.51 171.93 144.24 177.1 144.12 178.4 144.24C180.33 144.88 182.15 146.02 183.18 147.92 184.47 149.32 185.12 151.23 185.12 153.39L184.73 155.92C184.08 158.46 182.53 160.36 180.33 161.37Z"/><path d="M71 102L48.71 102C42.87 102 35.51 102.87 29.34 107.97 24.68 111.99 22.42 117.53 22.42 122.53 22.42 131.01 28.91 139.59 40.38 139.59 41.46 139.59 42.65 139.48 43.85 139.38 43.3 140.68 42.76 141.77 42.76 143.62 42.76 146.99 44.49 149.05 46 151 41.14 151.33 32.05 151.87 25.34 156 18.95 159.81 17 165.34 17 169.26 17 177.3 24.58 184.8 40.27 184.8 58.88 184.8 68.73 174.48 68.73 164.26 68.73 156.77 64.4 153.07 59.64 149.05L55.74 146C54.56 145.02 52.94 143.72 52.94 141.33 52.94 138.94 54.56 137.42 55.96 136.01 60.51 132.42 65.05 128.62 65.05 120.58 65.05 112.32 59.85 107.97 57.37 105.91L64.08 105.91 71 102 71 102ZM62 168.6C62 175.32 56.46 180.3 46.02 180.3 34.4 180.3 26.9 174.78 26.9 167.09 26.9 159.39 33.85 156.8 36.24 155.93 40.81 154.42 46.67 154.2 47.65 154.2 48.74 154.2 49.28 154.2 50.16 154.31 58.42 160.15 62 163.08 62 168.6L62 168.6ZM53.02 133.2C51.3 134.91 48.4 136.2 45.71 136.2 36.48 136.2 32.3 124.28 32.3 117.09 32.3 114.3 32.84 111.4 34.66 109.14 36.38 107 39.38 105.6 42.17 105.6 51.08 105.6 55.7 117.63 55.7 125.35 55.7 127.29 55.48 130.72 53.02 133.2L53.02 133.2Z"/><path d="M964.63 7C965.85 9.77 966.64 14.38 965.46 17.75 970.29 21.87 971.95 31.89 969.62 40.07 976.51 40.6 984.71 39.82 990 41.93 985.05 41.3 978.29 40.05 971.91 40.48 970.7 40.57 968.91 40.44 969 42.14 976.39 42.72 983.73 43.35 989.79 45.24 983.78 44.26 976.47 42.76 969 42.55 965.91 48.64 959.69 51.64 951.11 52.27 952.04 54.27 953.8 55.03 954.23 58.26 954.88 63.08 953.23 70.14 954.85 73.35 955.64 74.89 956.91 74.93 957.77 76.24 955.67 78.73 950.46 75.96 949.86 73.35 948.85 68.87 951.41 61.92 948.62 58.88 948.81 63.77 947.46 70.63 948.82 75 949.36 76.72 950.92 77.38 950.49 78.93 940.72 79.92 944.8 66.3 943.21 58.26 941.73 58.36 942.38 60.46 942.38 61.36 942.33 69.21 943.98 79.98 935.51 78.93 935.27 77.28 936.65 76.72 937.18 75.21 938.72 70.79 936.89 64.21 937.6 58.88 934.36 61.31 937.94 69.81 935.93 74.17 934.78 76.68 931.06 77.77 928.24 76.65 928.61 74.79 930.54 75.09 931.35 73.35 932.5 70.92 931.36 67.43 931.77 63.84 925.79 65.03 921.15 63.67 918.87 59.91 917.86 58.23 917.61 56.24 916.38 54.75 915.16 53.25 913.2 53.05 912.64 51.03 920.05 49.24 920.33 58.65 926.99 58.88 929.03 58.95 930.09 58.29 931.98 57.85 932.51 55.48 933.64 53.71 935.3 52.47 927.02 51.34 920.18 48.76 917 42.55 909.48 42.92 906.59 43.93 900.21 45.44 906 43.34 909.14 42.59 916.8 42.34 916.35 39.63 912.39 40.38 909.93 40.48 905.37 40.68 903.63 41.25 900 41.93 905.26 40.06 908.64 40.29 915.76 40.28 913.58 33.45 914.34 22.61 919.09 18.58 917.74 15.19 918.16 9.64 919.92 7 925.22 7.24 928.44 9.55 931.77 11.76 935.91 10.58 940.25 10 945.91 10.31 948.3 10.44 950.77 11.51 952.57 11.34 954.33 11.17 956.27 9.2 957.97 8.45 960.2 7.47 962.08 7.09 964.63 7L964.63 7Z"/><path d="M842.64 29.99C847.23 31.55 853.36 33.2 855.86 41.41 858.37 49.63 855.83 52.17 857.2 62.71 858.56 73.26 856.8 81.76 850.16 83.42 843.52 85.08 835.9 81.66 833.36 76.48 830.82 71.31 825.84 61.93 823.98 59.88 822.13 57.83 812.75 49.72 807.19 47.87 801.62 46.01 802.69 32.73 809.04 30.29 815.39 27.85 838.05 28.42 842.64 29.99ZM836.33 1.38C839.5 3.39 838.8 10.13 833.17 16.42 827.53 22.7 822.11 24.23 818.12 20.32 814.14 16.42 814.43 11.25 821.73 5.28 829.03-0.68 833.17-0.64 836.33 1.38ZM861.33 1.38C864.5 3.39 863.81 10.13 858.17 16.42 852.53 22.7 847.11 24.23 843.13 20.32 839.14 16.42 839.44 11.25 846.74 5.28 854.04-0.68 858.17-0.64 861.33 1.38ZM880.09 14.27C883.25 16.28 882.56 23.02 876.92 29.31 871.28 35.59 865.86 37.12 861.88 33.21 857.9 29.31 858.19 24.14 865.49 18.17 872.79 12.21 876.92 12.25 880.09 14.27ZM884.26 40.04C888.28 43.28 886.32 50.01 880.05 54.82 873.78 59.64 868.12 61.61 864.78 57.67 861.43 53.73 863.68 47.86 869.43 42.92 875.17 37.98 880.24 36.8 884.26 40.04Z"/><path d="M789.88 39.5C789.88 50.55 780.93 59.5 769.88 59.5 758.83 59.5 749.88 50.55 749.88 39.5 749.88 28.46 758.83 19.5 769.88 19.5 780.93 19.5 789.88 28.46 789.88 39.5L789.88 39.5ZM720.12 19.5C709.08 19.5 700.12 28.46 700.12 39.5 700.12 50.55 709.08 59.5 720.12 59.5 731.17 59.5 740.12 50.55 740.12 39.5 740.12 28.46 731.17 19.5 720.12 19.5L720.12 19.5Z"/><path d="M651.94 84.91L651.94 42.31 663.5 42.31 665.04 27.64 651.94 27.64 651.96 20.29C651.96 16.46 652.32 14.41 657.72 14.41L664.95 14.41 664.95-0.27 653.39-0.27C639.49-0.27 634.6 6.85 634.6 18.82L634.6 27.64 625.94 27.64 625.94 42.32 634.6 42.32 634.6 84.91 651.94 84.91Z"/><path d="M527.59 59.38C524.79 56.35 523.38 52.11 523.38 46.67 523.38 40.36 525.53 34.45 529.82 28.95 534.1 23.44 539.37 20.68 545.61 20.68 549.27 20.68 552.11 21.7 554.13 23.72 555.67 25.29 556.69 27.08 557.22 29.1L559.1 22.51 568.98 22.51 562.29 45.21C561.77 47.06 561.39 48.43 561.17 49.31 560.94 50.2 560.83 50.98 560.83 51.64 560.83 52.69 561.17 53.67 561.87 54.6 562.57 55.52 563.68 55.98 565.22 55.98 568.22 55.98 571.22 54.02 574.24 50.1 577.25 46.18 578.76 40.97 578.76 34.49 578.76 24.9 574.65 18.02 566.42 13.83 561.26 11.18 555.46 9.86 549.01 9.86 537.16 9.86 527.64 13.49 520.46 20.74 513.97 27.29 510.73 35.15 510.73 44.32 510.73 54.5 514.53 62.57 522.13 68.53 528.86 73.8 537.07 76.43 546.76 76.43 553.38 76.43 559.57 75.21 565.32 72.77 568.46 71.48 571.7 69.65 575.05 67.28L576.3 66.39 580.12 72.24C575.17 76.08 569.81 79 564.04 81 558.27 83.01 552.28 84.01 546.08 84.01 531.61 84.01 520.4 79.51 512.46 70.52 505.87 63.06 502.57 54.22 502.57 44.01 502.57 32.57 506.69 22.88 514.91 14.93 523.56 6.53 534.63 2.33 548.12 2.33 559.1 2.33 568.2 5.21 575.41 10.96 583.01 17.02 586.81 25.08 586.81 35.12 586.81 43.03 584.41 49.82 579.6 55.48 574.79 61.15 569.3 63.98 563.13 63.98 559.92 63.98 557.45 63.08 555.73 61.26 554 59.45 553.14 57.58 553.14 55.67 553.14 55.42 553.15 55.15 553.16 54.86 553.18 54.56 553.21 54.24 553.24 53.89 551.92 56.4 550.44 58.4 548.8 59.9 545.84 62.59 542.28 63.93 538.13 63.93 533.91 63.93 530.4 62.41 527.59 59.38ZM552.56 29.73C551.45 28.48 549.95 27.85 548.07 27.85 544.44 27.85 541.32 30.11 538.71 34.62 536.09 39.13 534.78 43.5 534.78 47.72 534.78 50.26 535.37 52.32 536.54 53.89 537.7 55.46 539.35 56.24 541.48 56.24 545.21 56.24 548.27 53.41 550.65 47.75 553.04 42.08 554.24 37.63 554.24 34.38 554.24 32.54 553.68 30.99 552.56 29.73Z"/><path d="M445.5 0C422.03 0 403 19.03 403 42.5 403 65.97 422.03 85 445.5 85 468.97 85 488 65.97 488 42.5 488 19.03 468.97 0 445.5 0L445.5 0ZM471.54 22.04C475.69 27.3 478.28 33.82 478.61 40.94 473.81 39.92 469.28 39.43 465.05 39.43L465.05 39.43 465.02 39.43C461.62 39.43 458.42 39.74 455.42 40.27 454.68 38.48 453.94 36.75 453.2 35.11 459.9 32.17 466.33 27.98 471.54 22.04L471.54 22.04ZM445.5 9.34C453.32 9.34 460.49 12.08 466.17 16.63 461.83 21.83 456.09 25.6 449.89 28.26 445.54 19.84 441.33 13.82 438.45 10.13 440.73 9.63 443.08 9.34 445.5 9.34L445.5 9.34ZM430.85 12.8C433.15 15.52 437.76 21.5 442.68 30.83 432.67 33.81 422.6 34.51 416.5 34.51 416.32 34.51 416.15 34.51 415.98 34.51L415.98 34.51C414.95 34.51 414.07 34.49 413.33 34.47 415.71 24.95 422.23 17.07 430.85 12.8L430.85 12.8ZM412.34 42.5C412.34 42.35 412.35 42.19 412.36 42.02 413.3 42.06 414.52 42.09 415.98 42.09L415.99 42.09C422.65 42.05 434.29 41.49 446.08 37.77 446.72 39.17 447.36 40.63 447.99 42.15 440.11 44.79 433.91 48.98 429.32 53.16 424.91 57.19 421.92 61.17 420.18 63.83 415.3 58.06 412.34 50.63 412.34 42.5L412.34 42.5ZM445.5 75.66C438.12 75.66 431.32 73.22 425.8 69.12 426.97 67.19 429.49 63.49 433.49 59.65 437.61 55.71 443.3 51.64 450.72 49.23 453.25 56.3 455.53 64.39 457.27 73.49 453.6 74.89 449.64 75.66 445.5 75.66L445.5 75.66ZM464.26 69.77C462.58 61.54 460.47 54.12 458.14 47.49 460.3 47.18 462.56 47.01 464.95 47.01L465.03 47.01 465.04 47.01 465.04 47.01C469 47.01 473.34 47.5 478.06 48.57 476.42 57.34 471.35 64.89 464.26 69.77L464.26 69.77Z"/><path d="M331.76 25.87C331.49 25.91 331.26 25.98 330.99 26.02L326.62 17 313.63 18.5 318.92 29.48C291.55 40.95 303.68 68 303.68 68L345.45 55.8 333.97 32.16C354.57 26.15 371.77 38.43 371.77 38.43L357.59 42.32 353.51 34.62C349.67 33.9 345.3 33.68 340.64 34.47L350.29 54.38 392 42.18C392 42.18 376.87 18.08 331.76 25.87L331.76 25.87ZM314.69 54C314.69 54 310.55 44.84 322.59 37L329 50.13 314.69 54 314.69 54Z"/><path d="M282 25L259 25 259 19 282 19 282 25 282 25ZM243.77 48.45C245.26 50.74 246 53.53 246 56.8 246 60.18 245.16 63.21 243.45 65.89 242.37 67.66 241.02 69.16 239.4 70.37 237.57 71.76 235.41 72.72 232.92 73.23 230.43 73.74 227.73 74 224.83 74L199 74 199 17 226.7 17C233.68 17.11 238.63 19.12 241.55 23.07 243.3 25.49 244.17 28.4 244.17 31.78 244.17 35.26 243.29 38.05 241.52 40.17 240.54 41.36 239.08 42.44 237.15 43.41 240.07 44.47 242.29 46.14 243.77 48.45L243.77 48.45ZM212 40L223.83 40C226.26 40 228.22 39.51 229.73 38.54 231.25 37.57 232 35.84 232 33.36 232 30.62 231 28.8 229 27.92 227.28 27.31 225.07 27 222.4 27L212 27 212 40 212 40ZM234 55.98C234 53.06 232.77 51.04 230.3 49.95 228.92 49.34 226.98 49.02 224.48 49L212 49 212 64 224.29 64C226.82 64 228.77 63.68 230.18 63.01 232.72 61.79 234 59.45 234 55.98L234 55.98ZM290.63 46.28C290.91 48.13 291.04 50.82 290.99 54.33L260.89 54.33C261.06 58.4 262.49 61.25 265.21 62.88 266.85 63.9 268.84 64.4 271.17 64.4 273.62 64.4 275.63 63.79 277.17 62.54 278.01 61.88 278.75 60.94 279.39 59.76L290.42 59.76C290.13 62.16 288.8 64.6 286.41 67.08 282.72 71.02 277.53 73 270.87 73 265.36 73 260.51 71.33 256.3 68.01 252.11 64.68 250 59.28 250 51.78 250 44.75 251.89 39.37 255.69 35.62 259.5 31.87 264.42 30 270.48 30 274.07 30 277.31 30.63 280.2 31.9 283.08 33.16 285.46 35.16 287.34 37.9 289.03 40.31 290.12 43.1 290.63 46.28L290.63 46.28ZM279 48C278.8 45.05 277.88 42.82 276.21 41.3 274.55 39.77 272.48 39 270.02 39 267.33 39 265.26 39.82 263.78 41.43 262.3 43.04 261.38 45.23 261 48L279 48 279 48Z"/><path d="M148.89 83.78L140.61 83.78C122.35 83.78 107.5 68.92 107.5 50.67L107.5 9.28C107.5 4.7 111.2 1 115.78 1 120.35 1 124.06 4.7 124.06 9.28L124.06 50.67C124.06 59.79 131.48 67.22 140.61 67.22L148.89 67.22C158.02 67.22 165.44 60.72 165.44 52.74 165.44 44.57 160.99 38.25 157.17 38.25L140.61 38.25C136.04 38.25 132.33 34.54 132.33 29.97 132.33 25.4 136.04 21.69 140.61 21.69L157.17 21.69C170.86 21.69 182 35.61 182 52.74 182 69.85 167.14 83.78 148.89 83.78L148.89 83.78Z"/><path d="M54.84 54.28C63.45 58.46 72.49 66.15 76.17 75.03 71.45 78.86 70.83 79.33 65.28 84 59.94 73.71 53.47 68.04 44.62 65.77 39.42 72.47 30.97 80.29 17.74 83.9 14.79 77.66 13.99 75.89 12 71.19 22.58 68.74 26.43 65.39 31.61 55.47 31.24 43.43 34.33 31.6 42.05 26.86 46.07 28.18 52.71 32.14 54.59 32.73 54.33 33.96 55.21 35.34 58.45 36.05 60.91 36.59 66.69 37.44 72.27 32.38 75.69 37.64 78.4 42.73 78.4 42.73 78.4 42.73 67.72 53.34 55.07 50 54.99 51.65 54.92 52.18 54.84 54.28L54.84 54.28ZM56.34 24.61C49.88 24.61 44.48 19.33 44.48 12.81 44.48 6.28 49.88 1 56.34 1 62.8 1 68.29 6.28 68.29 12.81 68.29 19.32 62.8 24.61 56.34 24.61L56.34 24.61Z"/></g></g></g></svg>