<svg width="413" height="126" preserveAspectRatio="xMinYMin meet" viewBox="0 0 413 126" version="1.1" xmlns="http://www.w3.org/2000/svg"><title>Logotype</title><g stroke="none" stroke-width="1" fill="none" fill-rule="evenodd"><g transform="translate(-40.000000, -111.000000)" fill="#333333"><path d="M134.1 206L118.2 206 103.1 152.8C102.5 150.5 101.6 147.1 100.7 142.7 99.7 138.4 99.1 135.3 98.9 133.6 98.5 136.2 97.8 139.6 96.9 143.7 96 147.9 95.2 151 94.6 153L79.9 206 64 206 52.5 161.3 40.7 116.8 55.6 116.8 68.4 168.8C70.4 177.1 71.8 184.5 72.7 190.9 73.1 187.4 73.8 183.5 74.7 179.3 75.6 175 76.4 171.5 77.1 168.9L91.6 116.8 106.1 116.8 121 169.1C122.4 174 123.9 181.2 125.5 190.9 126.1 185 127.6 177.6 129.9 168.6L142.6 116.8 157.4 116.8 134.1 206ZM195.5 207.2C185 207.2 176.7 204.2 170.8 198 164.9 191.9 161.9 183.5 161.9 172.7 161.9 161.7 164.7 153 170.2 146.7 175.7 140.4 183.2 137.3 192.8 137.3 201.7 137.3 208.8 140 214 145.4 219.1 150.8 221.7 158.3 221.7 167.7L221.7 175.5 176.7 175.5C176.9 182 178.7 187.1 182 190.6 185.4 194.1 190.1 195.9 196.1 195.9 200.1 195.9 203.8 195.5 207.3 194.7 210.7 194 214.4 192.7 218.3 191L218.3 202.6C214.8 204.3 211.3 205.5 207.7 206.2 204.1 206.9 200.1 207.2 195.5 207.2ZM192.8 148.1C188.3 148.1 184.6 149.6 181.9 152.5 179.1 155.4 177.5 159.6 177 165.1L207.6 165.1C207.5 159.5 206.2 155.3 203.6 152.4 201 149.6 197.4 148.1 192.8 148.1ZM280.2 206L277.4 196.6 276.9 196.6C273.6 200.7 270.3 203.5 267.1 205 263.8 206.5 259.5 207.2 254.4 207.2 247.7 207.2 242.5 205.4 238.8 201.8 235.1 198.3 233.2 193.2 233.2 186.7 233.2 179.7 235.8 174.4 241 170.9 246.2 167.4 254 165.4 264.6 165.1L276.3 164.7 276.3 161.1C276.3 156.8 275.3 153.6 273.2 151.5 271.2 149.3 268.1 148.3 263.9 148.3 260.4 148.3 257.1 148.8 253.9 149.8 250.8 150.8 247.7 152 244.8 153.4L240.1 143.1C243.8 141.2 247.8 139.8 252.2 138.8 256.5 137.8 260.6 137.3 264.5 137.3 273.1 137.3 279.6 139.1 283.9 142.9 288.3 146.6 290.5 152.5 290.5 160.5L290.5 206 280.2 206ZM258.9 196.2C264.1 196.2 268.3 194.8 271.4 191.9 274.6 189 276.1 184.9 276.1 179.6L276.1 173.8 267.5 174.1C260.7 174.4 255.8 175.5 252.7 177.5 249.7 179.5 248.1 182.6 248.1 186.8 248.1 189.8 249 192.1 250.8 193.8 252.6 195.4 255.3 196.2 258.9 196.2ZM355.9 186.8C355.9 193.4 353.5 198.4 348.7 201.9 343.9 205.5 337 207.2 328 207.2 319 207.2 311.8 205.9 306.4 203.1L306.4 190.7C314.3 194.4 321.7 196.2 328.5 196.2 337.3 196.2 341.8 193.6 341.8 188.2 341.8 186.5 341.3 185.1 340.3 184 339.3 182.8 337.7 181.6 335.5 180.4 333.2 179.2 330.1 177.8 326.1 176.3 318.4 173.3 313.1 170.3 310.4 167.2 307.6 164.2 306.2 160.3 306.2 155.5 306.2 149.7 308.6 145.3 313.2 142.1 317.9 138.9 324.2 137.3 332.2 137.3 340.2 137.3 347.7 138.9 354.8 142.1L350.1 152.9C342.8 149.9 336.7 148.4 331.7 148.4 324.2 148.4 320.4 150.5 320.4 154.9 320.4 157 321.4 158.8 323.4 160.2 325.3 161.7 329.6 163.7 336.3 166.3 341.8 168.4 345.9 170.4 348.4 172.2 350.9 174 352.8 176 354 178.4 355.2 180.7 355.9 183.5 355.9 186.8ZM361.1 138.5L376.7 138.5 390.5 176.8C392.5 182.2 393.9 187.3 394.6 192.1L395.1 192.1C395.5 189.9 396.1 187.2 397.1 184 398.1 180.8 403.3 165.6 412.6 138.5L428.1 138.5 399.3 215C394 229 385.3 236 373 236 369.8 236 366.7 235.7 363.7 235L363.7 223.6C365.9 224.1 368.3 224.4 371.1 224.4 378 224.4 382.9 220.4 385.7 212.3L388.2 206 361.1 138.5ZM452.7 206L438.4 206 438.4 111 452.7 111 452.7 206Z"/></g></g></svg>