<svg xmlns="http://www.w3.org/2000/svg" width="1000" height="400" viewBox="0" version="1.1"><title>icons-social</title><description>Created with Sketch.</description><g stroke="none" stroke-width="1" fill="none" fill-rule="evenodd"><path d="M330.25 394L350.5 394C374.52 394 394 374.52 394 350.5 394 326.48 374.52 307 350.5 307 326.48 307 307 326.55 307 350.58L307 394 317.5 394 317.5 350.76C317.5 332.64 332.19 317.88 350.31 317.88 368.43 317.88 383.13 332.57 383.13 350.69 383.13 368.81 368.43 383.5 350.31 383.5 346.7 383.5 343.22 382.92 339.96 381.83L339.96 367.96C342.94 369.73 346.41 370.75 350.13 370.75 361.1 370.75 370 361.85 370 350.88 370 339.9 361.1 331 350.13 331 339.27 331 330.45 339.7 330.25 350.51L330.25 394Z" fill="#EBEAE9"/><path d="M275.75 371.28L270.94 371.28 270.96 368.48C270.96 367.24 271.98 366.23 273.23 366.23L273.53 366.23C274.78 366.23 275.8 367.24 275.8 368.48L275.75 371.28 275.75 371.28ZM257.72 365.29C256.5 365.29 255.5 366.11 255.5 367.12L255.5 380.7C255.5 381.7 256.5 382.52 257.72 382.52 258.94 382.52 259.94 381.7 259.94 380.7L259.94 367.12C259.94 366.11 258.94 365.29 257.72 365.29L257.72 365.29ZM287 357.7L287 383.53C287 389.73 281.63 394.8 275.06 394.8L225.94 394.8C219.37 394.8 214 389.73 214 383.53L214 357.7C214 351.5 219.37 346.43 225.94 346.43L275.06 346.43C281.63 346.43 287 351.5 287 357.7L287 357.7ZM229.22 386.34L229.22 359.12 235.3 359.12 235.3 355.09 219.07 355.07 219.07 359.03 224.14 359.05 224.14 386.34 229.22 386.34 229.22 386.34ZM247.47 363.18L242.39 363.18 242.39 377.71C242.39 379.81 242.52 380.86 242.39 381.23 241.97 382.36 240.12 383.56 239.4 381.35 239.27 380.97 239.38 379.81 239.38 377.81L239.36 363.18 234.31 363.18 234.33 377.58C234.33 379.79 234.28 381.43 234.34 382.18 234.47 383.5 234.42 385.04 235.65 385.92 237.93 387.57 242.31 385.68 243.4 383.32L243.39 386.33 247.47 386.33 247.47 363.18 247.47 363.18ZM263.71 379.82L263.7 367.72C263.69 363.11 260.25 360.35 255.56 364.08L255.58 355.09 250.51 355.1 250.49 386.14 254.66 386.07 255.04 384.14C260.37 389.03 263.72 385.68 263.71 379.82L263.71 379.82ZM279.59 378.21L275.79 378.23C275.79 378.39 275.78 378.56 275.78 378.75L275.78 380.87C275.78 382.01 274.84 382.94 273.7 382.94L272.95 382.94C271.81 382.94 270.87 382.01 270.87 380.87L270.87 380.64 270.87 378.3 270.87 375.29 279.59 375.29 279.59 372.01C279.59 369.61 279.53 367.21 279.33 365.84 278.7 361.51 272.62 360.82 269.55 363.04 268.58 363.73 267.84 364.66 267.41 365.91 266.98 367.15 266.77 368.86 266.77 371.02L266.77 378.23C266.77 390.22 281.33 388.53 279.59 378.21L279.59 378.21ZM260.07 339.06C260.33 339.7 260.74 340.21 261.29 340.6 261.84 340.98 262.53 341.18 263.37 341.18 264.1 341.18 264.75 340.98 265.31 340.57 265.88 340.17 266.35 339.56 266.74 338.75L266.64 340.74 272.3 340.74 272.3 316.68 267.84 316.68 267.84 335.41C267.84 336.42 267.01 337.25 265.99 337.25 264.97 337.25 264.14 336.42 264.14 335.41L264.14 316.68 259.49 316.68 259.49 332.91C259.49 334.98 259.52 336.36 259.59 337.05 259.65 337.75 259.81 338.41 260.07 339.06L260.07 339.06ZM242.92 325.47C242.92 323.16 243.12 321.36 243.5 320.06 243.89 318.76 244.58 317.72 245.58 316.93 246.58 316.14 247.86 315.75 249.42 315.75 250.72 315.75 251.85 316.01 252.78 316.51 253.72 317.02 254.45 317.67 254.95 318.48 255.47 319.3 255.82 320.13 256 320.99 256.19 321.86 256.28 323.16 256.28 324.93L256.28 331.01C256.28 333.25 256.19 334.89 256.02 335.93 255.85 336.98 255.48 337.94 254.91 338.85 254.34 339.75 253.61 340.43 252.73 340.85 251.84 341.29 250.81 341.5 249.66 341.5 248.37 341.5 247.28 341.32 246.39 340.95 245.49 340.58 244.8 340.02 244.3 339.28 243.8 338.54 243.45 337.64 243.24 336.58 243.02 335.53 242.92 333.95 242.92 331.84L242.92 325.47 242.92 325.47ZM247.36 335.03C247.36 336.39 248.37 337.5 249.61 337.5 250.84 337.5 251.85 336.39 251.85 335.03L251.85 322.22C251.85 320.86 250.84 319.75 249.61 319.75 248.37 319.75 247.36 320.86 247.36 322.22L247.36 335.03 247.36 335.03ZM231.7 341.5L237.03 341.5 237.04 323.04 243.35 307.23 237.51 307.23 234.16 318.97 230.76 307.2 224.98 307.2 231.69 323.05 231.7 341.5 231.7 341.5Z" fill="#EBEAE9"/><path d="M178.01 339.55C175.74 340.15 155.03 356.13 153.67 360.04 153.37 361.4 153.7 374.53 154 376.49 155.37 376.8 165.22 376.53 167.02 376.83L166.81 380.89C165.04 380.76 152.52 380.79 145.38 380.79 141.75 380.79 130.08 381.19 126.49 381.08L127.17 377.22C129.14 377.08 137.28 377.58 139.06 375.69 139.95 374.75 139.67 362.27 139.37 360.16 138.61 357.91 120.46 335.29 115.72 331.59L103.5 331.59 103.5 325.9 144.72 325.9 144.72 326.29C144.76 326.29 144.83 326.3 144.86 326.31L144.72 327.27 144.72 331.59 132.29 331.59C137.83 339.64 145.78 349.37 149.16 354.05L165.77 339.08 155.9 339.08 154.51 333.4 190.66 333.4 190.39 333.81C190.42 333.81 190.48 333.81 190.52 333.81L187.94 337.54C187.91 337.54 187.87 337.55 187.85 337.55L186.81 339.08 180.14 339.08C179.28 339.27 178.52 339.44 178.01 339.55L178.01 339.55ZM189.69 374.93L186.49 374.77 182.91 374.32 182.94 380.62 185.76 380.87 188.8 381.1 189.69 374.93 189.69 374.93ZM195.5 346.48C194.47 346.44 185.1 345.52 183.88 345.27L184.02 370.97 189.33 371.42 195.5 346.48 195.5 346.48Z" fill="#EBEAE9"/><path d="M31.83 355.91L31.83 373 35.66 373 35.66 351.94 31.83 355.91 31.83 355.91ZM74.68 351.94C72.18 351.94 70.13 353.96 70.13 356.5L70.13 368.44C70.13 370.95 72.18 373 74.68 373L94.08 373 94.08 369.01 74.65 369.01C74.36 369.01 74.1 368.77 74.1 368.44L74.1 364.45 85.33 364.45 88.22 360.49 74.1 360.49 74.1 356.5C74.1 356.18 74.36 355.93 74.65 355.93L90.98 355.93 95.02 351.94 74.68 351.94 74.68 351.94ZM5.98 351.94L5.98 369.4C6.43 371.46 8.28 373 10.49 373L28 373 28 369.01 10.46 369.01C10.16 369.01 9.91 368.77 9.91 368.44L9.91 351.94 5.98 351.94 5.98 351.94ZM64.57 351.94L54.84 368.74C54.73 368.91 54.54 369.01 54.33 369.01 54.13 369.01 53.95 368.91 53.84 368.74L44.1 351.94 39.49 351.94 50.38 370.73C51.16 372.08 52.65 373 54.33 373 56.02 373 57.49 372.08 58.3 370.73L69.17 351.94 64.57 351.94 64.57 351.94ZM26.76 336.74L33.74 346.19 31.47 346.19 25.61 338.3 19.75 346.19 17.47 346.19 24.45 336.74 17.96 328 20.25 328C20.25 328 24.86 334.21 25.59 335.2L25.6 335.19C25.6 335.19 25.6 335.2 25.61 335.2 25.61 335.2 25.61 335.19 25.61 335.19L25.62 335.2C26.35 334.21 30.97 328 30.97 328L33.25 328 26.76 336.74 26.76 336.74ZM68.21 337.57C68.21 343.2 64.48 347.15 59.13 347.15 53.77 347.15 50.02 343.2 50.02 337.57 50.02 331.93 53.77 328 59.13 328 64.48 328 68.21 331.93 68.21 337.57L68.21 337.57ZM65.93 337.58C65.93 333.07 63.18 329.91 59.24 329.91 55.28 329.91 52.53 333.07 52.53 337.58 52.53 342.09 55.28 345.23 59.24 345.23 63.18 345.23 65.93 342.09 65.93 337.58L65.93 337.58ZM49.06 340.87C49.06 344.15 46.51 346.19 42.4 346.19L34.82 346.19 34.82 337.7 30.87 337.7 32.28 335.81 34.82 335.81 34.82 328 42.4 328C48.03 328 48.47 331.79 48.47 332.95 48.47 334.52 47.58 335.88 46.23 336.6 46.63 336.77 47.05 337.03 47.45 337.35 48.5 338.23 49.06 339.45 49.06 340.87L49.06 340.87ZM36.81 335.57L42.36 335.57C44.92 335.57 46.38 334.49 46.38 332.6 46.38 330.18 43.86 329.83 42.36 329.83L36.81 329.83 36.81 335.57 36.81 335.57ZM46.53 340.95C46.53 338.29 44.16 337.73 42.18 337.73L36.96 337.73 36.96 344.43 42.18 344.43C43.8 344.43 46.53 343.98 46.53 340.95L46.53 340.95ZM82.57 346.19L75.6 336.74 82.08 328 79.79 328C79.79 328 75.21 334.18 74.46 335.19L74.46 335.19C74.45 335.2 74.44 335.21 74.44 335.21 74.44 335.21 74.43 335.2 74.42 335.19L74.42 335.19C73.66 334.17 69.08 328 69.08 328L66.78 328 73.27 336.74 66.3 346.19 68.58 346.19 74.43 338.31 80.29 346.19 82.57 346.19 82.57 346.19Z" fill="#EBEAE9"/><path d="M980.62 212.52C968.59 212.12 960.45 218.87 956.18 232.77 958.38 231.87 960.51 231.41 962.59 231.41 966.98 231.41 968.92 233.87 968.4 238.81 968.15 241.8 966.21 246.15 962.59 251.86 958.96 257.58 956.25 260.43 954.45 260.43 952.11 260.43 949.99 256.01 948.04 247.19 947.39 244.59 946.23 237.97 944.56 227.32 942.99 217.45 938.86 212.84 932.14 213.49 929.3 213.75 925.04 216.35 919.35 221.28 915.2 225.05 911 228.81 906.73 232.58L910.8 237.83C914.68 235.1 916.96 233.75 917.59 233.75 920.56 233.75 923.35 238.42 925.93 247.76 928.25 256.34 930.59 264.91 932.92 273.47 936.4 282.82 940.68 287.5 945.71 287.5 953.85 287.5 963.82 279.84 975.58 264.52 986.96 249.85 992.83 238.29 993.23 229.84 993.75 218.55 989.55 212.77 980.62 212.52L980.62 212.52Z" fill="#EBEAE9"/><path d="M849.25 232.93L849.44 236.09 846.25 235.7C834.64 234.22 824.5 229.2 815.89 220.76L811.68 216.57 810.59 219.67C808.3 226.56 809.76 233.83 814.55 238.73 817.1 241.43 816.52 241.82 812.12 240.21 810.59 239.69 809.25 239.31 809.13 239.5 808.68 239.95 810.21 245.81 811.42 248.13 813.08 251.35 816.46 254.5 820.16 256.37L823.29 257.85 819.59 257.92C816.01 257.92 815.89 257.98 816.27 259.33 817.54 263.52 822.58 267.96 828.2 269.89L832.15 271.25 828.71 273.31C823.6 276.27 817.61 277.94 811.61 278.07 808.74 278.14 806.38 278.39 806.38 278.59 806.38 279.23 814.16 282.84 818.69 284.25 832.28 288.44 848.42 286.64 860.54 279.49 869.15 274.4 877.76 264.29 881.78 254.5 883.95 249.29 886.11 239.76 886.11 235.18 886.11 232.22 886.31 231.84 889.88 228.29 891.98 226.23 893.96 223.98 894.34 223.34 894.98 222.11 894.92 222.11 891.66 223.21 886.24 225.14 885.48 224.88 888.15 221.98 890.13 219.92 892.49 216.19 892.49 215.09 892.49 214.9 891.54 215.22 890.45 215.8 889.3 216.45 886.75 217.41 884.84 217.99L881.39 219.09 878.27 216.96C876.55 215.8 874.12 214.51 872.85 214.13 869.59 213.23 864.62 213.35 861.68 214.38 853.71 217.28 848.67 224.75 849.25 232.93Z" fill="#EBEAE9"/><path d="M757.84 276.55C756.44 275.73 755.14 274.31 754.63 272.94 754.11 271.56 754.17 268.76 754.17 263.91L754.17 242.45 773.69 242.45 773.69 227.51 754.18 227.51 754.18 208.16 742.17 208.16C741.63 212.47 740.65 216.03 739.22 218.82 737.78 221.62 735.89 224.01 733.52 226.01 731.16 228 727.31 229.54 724 230.6L724 242.45 735.46 242.45 735.46 271.8C735.46 275.63 735.87 278.55 736.68 280.56 737.49 282.57 738.94 284.48 741.03 286.27 743.13 288.04 745.66 289.43 748.62 290.4 751.58 291.36 753.86 291.84 757.72 291.84 761.11 291.84 764.28 291.5 767.21 290.83 770.13 290.14 773.4 288.96 777 287.29L777 274.08C772.77 276.84 768.52 278.21 764.25 278.21 761.84 278.21 759.72 277.66 757.84 276.55L757.84 276.55Z" fill="#EBEAE9"/><path d="M689.5 238.84C689.5 243.54 685.7 247.34 681 247.34 676.31 247.34 672.5 243.54 672.5 238.84 672.5 234.15 676.31 230.34 681 230.34 685.7 230.34 689.5 234.15 689.5 238.84L689.5 238.84ZM685.69 253.61L675.38 262.36C675.49 263.06 675.56 263.77 675.56 264.5 675.56 271.96 669.48 278 661.97 278 655.5 278 650.09 273.5 648.72 267.49L623.24 258.9C621.22 260.42 618.72 261.33 615.99 261.33 609.37 261.33 604 256 604 249.42 604 242.84 609.37 237.51 615.99 237.51 621.69 237.51 626.45 241.45 627.68 246.74L652.29 255.03C654.69 252.62 658 251.1 661.66 251.02L665.35 239.89C665.34 239.67 665.32 239.45 665.32 239.23 665.32 230.82 672.19 224 680.66 224 689.13 224 696 230.82 696 239.23 696 245.89 691.69 251.54 685.69 253.61L685.69 253.61ZM624 245.38C622.54 242.77 619.75 241 616.54 241 611.82 241 608 244.81 608 249.5 608 254.19 611.82 258 616.54 258 617.41 258 618.25 257.87 619.04 257.63L614.98 256.26C611.72 254.51 610.49 250.46 612.24 247.21 613.99 243.96 618.06 242.73 621.32 244.47L624 245.38 624 245.38ZM669 239C669 245.63 674.37 251 681 251 687.62 251 693 245.63 693 239 693 232.37 687.62 227 681 227 674.37 227 669 232.37 669 239L669 239ZM659.8 257C659.08 257 658.39 257.09 657.73 257.24L662.87 258.94C666.13 260.65 667.36 264.62 665.61 267.81 663.86 271 659.8 272.2 656.54 270.49L651 268.65C652.16 272.33 655.66 275 659.8 275 664.88 275 669 270.97 669 266 669 261.03 664.88 257 659.8 257Z" fill="#EBEAE9"/><path d="M505 259.02C505 262.07 506.39 264.79 508.57 266.62L508.57 251.43C506.39 253.26 505 255.98 505 259.02M512.34 249.43L512.34 268.62C513.23 268.86 514.17 269 515.14 269L516.12 269 516.12 249.09C515.79 249.07 515.47 249.05 515.14 249.05 514.17 249.05 513.23 249.18 512.34 249.43M520.68 250.68C520.42 250.51 520.16 250.36 519.89 250.22L519.89 269 523.66 269 523.66 243.88C522.16 245.84 521.11 248.16 520.68 250.68M527.44 240.35L527.44 269 531.21 269 531.21 238.49C529.86 238.95 528.6 239.58 527.44 240.35M534.98 237.71L534.98 269 538.76 269 538.76 237.83C537.99 237.71 537.19 237.65 536.38 237.65 535.91 237.65 535.44 237.67 534.98 237.71M544.61 239.92C543.38 239.19 542.05 238.61 540.65 238.23L540.65 269 546.31 269 546.31 237.65C545.69 238.36 545.12 239.12 544.61 239.92M548.2 235.75L548.2 269 584.05 269 584.05 268.96C591.6 268.47 595 263.79 595 258.08 595 252.04 590.44 247.15 584.3 247.15 582.72 247.15 581.42 247.48 580.05 248.06 579.07 238.48 570.94 231 560.93 231 556.04 231 551.59 232.79 548.2 235.75" fill="#EBEAE9"/><g transform="translate(406.700855, 227.500000)" fill="#EBEAE9"><path d="M86.95 24.07C86.95 36.36 76.99 46.32 64.71 46.32 63.02 46.32 61.38 46.13 59.81 45.78 55.4 41.85 52.62 36.13 52.62 29.76 52.62 17.93 62.21 8.33 74.05 8.33 76.75 8.33 79.34 8.83 81.72 9.74 84.98 13.61 86.95 18.61 86.95 24.07Z" opacity="0.65"/><path d="M2.53 36.47C6.05 42.94 13.92 48.56 23.87 47.34 33.83 46.12 37.18 38.71 38.19 32.6 39.21 26.5 37.81 19.2 36.18 16.15 34.55 13.1 34.03 11.47 35.15 10.56 37.85 8.34 41.63 9.74 45.81 12.32 43.69 15.73 42.46 19.76 42.46 24.07 42.46 34.68 49.88 43.55 59.81 45.78 55.4 41.85 52.62 36.13 52.62 29.76 52.62 17.93 62.21 8.33 74.05 8.33 76.75 8.33 79.34 8.83 81.72 9.74 77.64 4.9 71.53 1.83 64.71 1.83 58.67 1.83 53.2 4.23 49.2 8.13 47.85 6.58 45.15 4.01 40.44 1.63 34.69-1.29 29.46-0.2 26.21 3.15 22.96 6.5 22.86 13.35 24.59 17.72 26.31 22.09 26.64 27.44 23.99 29.05 21.63 30.48 18.27 30.68 13.29 27.12 12.25 26.38 11.35 25.6 10.55 24.77L10.67 27.53 5.99 25.7 4.57 30.07 0.01 27.01C0.25 30.59 1.2 34.02 2.53 36.47Z"/><path d="M3.76 13.55C6.12 18.35 7.77 21.88 10.55 24.77L10.67 27.53 5.99 25.7 4.57 30.07 0.01 27.01C-0.32 22.12 0.65 16.94 3.76 13.55Z" opacity="0.65"/></g><path d="M350.38 209.86C350.16 209.85 350.04 209.85 350.04 209.85 347.3 210.07 336.94 211.28 330.94 219.1 323.97 228.17 327.65 242.93 327.65 242.93 327.65 242.93 326.38 244.35 323.9 243.45 321.43 242.55 319.65 241.94 318.38 242.61 317.1 243.28 316.35 245.31 316.5 246.51 316.65 247.71 317.76 248.62 319.18 249.45 320.61 250.27 324.13 250.87 325.25 251.47 326.38 252.07 327.5 254.02 326.68 256.12 325.85 258.21 323.9 261.57 320.08 265.09 316.26 268.61 312.22 270.64 310.27 270.94 308.31 271.23 306.89 272.36 308.01 274.16 309.14 275.95 313.19 277.23 315.06 277.75 316.93 278.28 318.65 278.12 319.18 278.95 319.71 279.78 319.26 282.25 320.23 283.08 321.21 283.9 322.71 284.42 324.8 283.6 326.9 282.78 331.47 282.48 334.02 283.9 336.54 285.31 341.98 291.45 350.38 291.53 358.78 291.45 364.22 285.31 366.74 283.9 369.29 282.48 373.86 282.78 375.96 283.6 378.05 284.42 379.55 283.9 380.53 283.08 381.5 282.25 381.05 279.78 381.58 278.95 382.11 278.12 383.83 278.28 385.7 277.75 387.57 277.23 391.62 275.95 392.75 274.16 393.87 272.36 392.45 271.23 390.49 270.94 388.54 270.64 384.5 268.61 380.68 265.09 376.85 261.57 374.91 258.21 374.08 256.12 373.26 254.02 374.38 252.07 375.51 251.47 376.63 250.87 380.15 250.27 381.58 249.45 383 248.62 384.11 247.71 384.26 246.51 384.41 245.31 383.66 243.28 382.38 242.61 381.11 241.94 379.33 242.55 376.86 243.45 374.38 244.35 373.11 242.93 373.11 242.93 373.11 242.93 376.79 228.17 369.82 219.1 363.82 211.28 353.46 210.07 350.72 209.88 350.72 209.85 350.6 209.85 350.38 209.86Z" fill="#EBEAE9"/><path d="M290.33 256.37C290.65 254.29 290.83 252.17 290.83 250 290.83 227.45 272.55 209.17 250 209.17 247.83 209.17 245.7 209.35 243.63 209.67 239.87 207.35 235.43 206 230.67 206 217.05 206 206 217.04 206 230.67 206 235.43 207.35 239.86 209.67 243.63 209.35 245.71 209.17 247.83 209.17 250 209.17 272.55 227.45 290.82 250 290.82 252.16 290.82 254.29 290.66 256.37 290.33 260.13 292.65 264.57 294 269.32 294 282.95 294 294 282.95 294 269.33 294 264.57 292.65 260.14 290.33 256.37L290.33 256.37ZM269.38 268.57C267.65 271.05 265.12 273 261.8 274.39 258.48 275.79 254.55 276.49 250.02 276.49 244.59 276.49 240.09 275.54 236.54 273.62 234.02 272.25 231.97 270.4 230.4 268.1 228.82 265.8 228.02 263.54 228.02 261.35 228.02 260.05 228.51 258.92 229.48 258 230.45 257.08 231.7 256.61 233.18 256.61 234.39 256.61 235.43 256.98 236.28 257.7 237.12 258.42 237.82 259.47 238.4 260.86 239.09 262.46 239.84 263.81 240.64 264.88 241.44 265.94 242.55 266.82 244 267.51 245.43 268.2 247.34 268.55 249.72 268.55 252.98 268.55 255.62 267.85 257.64 266.45 259.66 265.05 260.64 263.34 260.64 261.27 260.64 259.63 260.11 258.32 259.04 257.3 257.95 256.27 256.55 255.48 254.8 254.93 253.06 254.38 250.71 253.79 247.77 253.17 243.82 252.31 240.51 251.3 237.84 250.15 235.16 248.99 233.02 247.41 231.44 245.41 229.86 243.4 229.07 240.89 229.07 237.92 229.07 235.09 229.9 232.56 231.57 230.35 233.24 228.14 235.66 226.45 238.81 225.27 241.94 224.09 245.64 223.51 249.87 223.51 253.25 223.51 256.18 223.9 258.66 224.68 261.13 225.46 263.19 226.5 264.84 227.8 266.47 229.09 267.68 230.46 268.44 231.9 269.2 233.33 269.59 234.74 269.59 236.11 269.59 237.39 269.09 238.55 268.13 239.56 267.16 240.58 265.93 241.09 264.49 241.09 263.2 241.09 262.18 240.79 261.47 240.15 260.78 239.54 260.06 238.57 259.28 237.21 258.29 235.31 257.11 233.83 255.74 232.77 254.4 231.73 252.19 231.19 249.12 231.2 246.27 231.2 244 231.78 242.28 232.92 240.55 234.07 239.73 235.41 239.72 236.98 239.73 237.96 240.01 238.79 240.58 239.5 241.16 240.22 241.96 240.84 242.99 241.36 244.03 241.89 245.08 242.3 246.13 242.6 247.2 242.9 248.98 243.34 251.44 243.92 254.53 244.59 257.34 245.33 259.86 246.14 262.37 246.96 264.52 247.94 266.29 249.11 268.08 250.28 269.48 251.77 270.47 253.57 271.48 255.37 271.98 257.57 271.98 260.16 271.98 263.28 271.11 266.08 269.38 268.57L269.38 268.57Z" fill="#EBEAE9"/><path d="M162.59 267.46C158.64 269.82 153.99 271.11 149.39 271.11 145.93 271.11 142.49 270.38 139.37 268.85 138.87 268.64 138.34 268.23 137.75 267.84 137.46 267.65 135.46 266.08 133.73 267.96 132 269.84 133.86 272.1 134.32 272.34 138.77 275.34 144.01 276.71 149.27 276.7 154.02 276.7 158.79 275.6 163.04 273.6 163.64 273.24 164.39 272.95 165.09 272.51 165.43 272.29 167.52 270.83 166.54 268.75 165.57 266.66 163 267.18 162.59 267.46ZM194.81 246.69C194.81 248.89 194.11 251 192.94 252.79 191.85 254.47 190.35 255.87 188.62 256.82 188.73 257.7 188.79 258.58 188.79 259.45 188.79 264.18 187.17 268.83 184.35 272.55 179.13 279.53 171.13 283.65 163.04 285.73 158.72 286.78 154.28 287.32 149.83 287.32 143.21 287.32 136.59 286.12 130.41 283.63 124 280.96 117.9 276.74 114.16 270.55 112.14 267.25 111.04 263.38 111.04 259.49 111.04 258.61 111.1 257.73 111.21 256.85 109.53 255.9 108.07 254.54 106.98 252.93 105.83 251.19 105.09 249.16 105 247 105 243.96 106.3 241.1 108.32 239 110.34 236.9 113.1 235.52 116.06 235.52 116.5 235.5 116.81 235.49 117.12 235.49 118.61 235.49 120.1 235.73 121.52 236.28 122.74 236.8 123.94 237.41 125.01 238.27 125.36 238.09 125.74 237.88 126.16 237.72 132.65 233.85 140.19 232.36 147.53 231.93 147.6 228.27 148.04 224.43 149.82 221.08 151.3 218.29 153.86 216.12 156.92 215.37 158.11 215.13 159.28 215.03 160.45 215.03 163.55 215.03 166.62 215.77 169.49 216.92 170.76 214.99 172.58 213.49 174.71 212.64 176 212.23 177.32 212 178.64 212 179.37 212 181.71 212.2 183.68 213.21 185.46 214.13 186.88 215.83 187.42 216.63 188.56 218.32 189.23 220.35 189.23 222.43 189.23 222.82 189.2 223.2 189.16 223.58 188.93 226.3 187.58 228.67 185.66 230.35 183.73 232.04 181.23 233.06 178.67 233.06 178.26 233.06 177.84 233.04 177.43 232.98 174.88 232.79 172.51 231.55 170.77 229.71 169.02 227.87 167.89 225.41 167.89 222.76 167.89 222.63 167.91 222.5 167.91 222.37 165.52 221.3 162.99 220.41 160.47 220.41 160.1 220.41 159.74 220.43 159.37 220.47 157.48 220.65 155.73 221.85 154.88 223.57 153.59 226.11 153.33 229.06 153.29 232 160.53 232.47 167.8 234.22 174.18 237.91 174.4 238.04 174.63 238.16 174.83 238.27 175.27 237.91 175.73 237.54 176.26 237.23 178.2 235.93 180.49 235.29 182.78 235.29 183.8 235.29 184.82 235.42 185.81 235.67 188.22 236.29 190.34 237.64 191.93 239.46 193.51 241.28 194.58 243.59 194.79 246.09 194.8 246.3 194.81 246.5 194.81 246.69ZM173.56 221.62C173.56 221.71 173.56 221.81 173.57 221.91L173.57 221.91 173.57 221.93C173.62 223.14 174.18 224.28 175.04 225.12 175.91 225.95 177.05 226.47 178.21 226.48L178.23 226.48 178.24 226.48C178.33 226.49 178.41 226.49 178.49 226.49 179.67 226.49 180.83 225.97 181.71 225.14 182.58 224.3 183.16 223.16 183.21 221.93L183.21 221.92 183.21 221.91C183.22 221.82 183.22 221.73 183.22 221.63 183.22 220.37 182.64 219.16 181.73 218.27 180.82 217.38 179.6 216.83 178.4 216.83 178.01 216.83 177.63 216.88 177.25 217L177.24 217 177.23 217.01C176.24 217.27 175.31 217.89 174.64 218.72 173.97 219.54 173.56 220.56 173.56 221.62L173.56 221.62ZM120.45 241.71C119.44 241.28 118.4 240.97 117.38 240.97 117.2 240.97 117.03 240.98 116.86 241L116.83 241 116.81 241C115.33 241.04 113.84 241.63 112.73 242.59 111.61 243.54 110.87 244.82 110.81 246.23L110.81 246.25 110.81 246.26C110.8 246.37 110.79 246.49 110.79 246.6 110.79 247.47 111.08 248.31 111.57 249.08 111.94 249.65 112.41 250.17 112.95 250.63 114.68 247.14 117.37 244.17 120.45 241.71L120.45 241.71ZM180.15 251.03C176.37 245.7 170.49 242.22 164.39 240.28 163.17 239.9 161.99 239.58 160.8 239.31 157.23 238.48 153.57 238.07 149.91 238.07 145 238.07 140.09 238.81 135.39 240.28 129.29 242.24 123.4 245.69 119.62 251.04 117.71 253.71 116.59 257.03 116.59 260.33 116.59 261.54 116.74 262.76 117.06 263.94 117.75 266.6 119.09 268.96 120.83 271.03 122.57 273.1 124.7 274.86 126.95 276.3 127.44 276.61 127.94 276.91 128.45 277.2 134.97 280.88 142.48 282.49 149.93 282.49 151.19 282.49 152.46 282.45 153.71 282.36 161.22 281.73 168.75 279.49 174.84 274.91 176.78 273.45 178.58 271.69 180 269.7 181.43 267.7 182.47 265.46 182.94 263.04 183.13 262.12 183.22 261.2 183.22 260.28 183.22 256.99 182.05 253.69 180.15 251.03ZM189.01 246.39C189.01 245.63 188.83 244.88 188.42 244.18L188.41 244.17 188.4 244.16C187.86 243.11 187 242.32 185.97 241.79 184.93 241.25 183.73 240.97 182.51 240.97 181.42 240.97 180.33 241.2 179.36 241.65 182.44 244.13 185.14 247.12 186.88 250.63 187.44 250.17 187.92 249.62 188.28 249 188.75 248.19 189.01 247.28 189.01 246.39L189.01 246.39ZM163.91 260.28C167.11 260.28 169.7 257.69 169.7 254.49 169.7 251.29 167.11 248.7 163.91 248.7 160.71 248.7 158.11 251.29 158.11 254.49 158.11 257.69 160.71 260.28 163.91 260.28ZM135.9 260.28C139.1 260.28 141.7 257.69 141.7 254.49 141.7 251.29 139.1 248.7 135.9 248.7 132.7 248.7 130.11 251.29 130.11 254.49 130.11 257.69 132.7 260.28 135.9 260.28Z" fill="#EBEAE9"/><path d="M5.12 247.76L28.11 207.34 51.11 247.76 5.12 247.76ZM14.09 242.74L28.11 218.04 42.13 242.74 14.09 242.74ZM73.25 206.73C61.17 206.73 51.38 216.53 51.38 228.62 51.38 240.72 61.17 250.52 73.25 250.52 85.33 250.52 95.12 240.72 95.12 228.62 95.12 216.53 85.33 206.73 73.25 206.73ZM73.25 213.04C64.65 213.04 57.68 220.02 57.68 228.62 57.68 237.23 64.65 244.21 73.25 244.21 81.85 244.21 88.82 237.23 88.82 228.62 88.82 220.02 81.85 213.04 73.25 213.04ZM48.3 258.42L33.18 273.56 48.3 288.7 43.77 293.24 28.65 278.1 13.52 293.24 8.99 288.7 24.11 273.56 8.99 258.42 13.52 253.89 28.65 269.02 43.77 253.89 48.3 258.42ZM93.73 292.67L93.73 253.37 54.47 253.37 54.47 292.67 93.73 292.67ZM88.12 287.05L88.12 258.98 60.08 258.98 60.08 287.05 88.12 287.05Z" fill="#EBEAE9"/><path d="M916.9 138.43C916.9 147.03 920.06 154.67 926.82 157.52 927.93 157.99 928.92 157.54 929.25 156.27 929.47 155.4 930 153.18 930.24 152.26 930.56 151.01 930.43 150.57 929.54 149.48 927.59 147.1 926.34 144.03 926.34 139.68 926.34 127.05 935.5 115.74 950.19 115.74 963.19 115.74 970.34 123.94 970.34 134.89 970.34 149.3 964.16 161.46 954.98 161.46 949.92 161.46 946.12 157.14 947.34 151.84 948.8 145.51 951.62 138.67 951.62 134.1 951.62 130.01 949.49 126.6 945.08 126.6 939.9 126.6 935.74 132.13 935.74 139.54 935.74 144.25 937.29 147.44 937.29 147.44 937.29 147.44 931.99 170.62 931.06 174.67 929.21 182.76 930.78 192.66 930.91 193.67 930.99 194.26 931.73 194.4 932.07 193.95 932.54 193.31 938.71 185.45 940.81 177.6 941.4 175.37 944.21 163.86 944.21 163.86 945.9 167.17 950.82 170.09 956.05 170.09 971.61 170.09 982.18 155.45 982.18 135.84 982.18 121.02 970.01 107.21 951.52 107.21 928.51 107.21 916.9 124.24 916.9 138.43Z" fill="#EBEAE9"/><path d="M829.6 111.24C818.66 115.57 811.23 123.92 809.16 135.16 807.88 142.07 808.37 149.59 811.42 156.04 812.09 157.47 812.91 158.85 813.88 160.13 814.35 160.75 814.85 161.35 815.4 161.91 816.37 161.57 817.31 161.13 818.2 160.63 821.9 158.54 824.62 155.33 827.79 152.63 817.21 140.37 828.42 125.18 842.45 121.79 855.5 118.64 873.2 124.08 877.16 137.51 878.8 143.08 877.73 149.23 873.19 153.26 870.82 155.36 867.81 156.76 864.62 157.33 862.76 157.66 860.85 157.71 858.97 157.52 857.93 157.42 856.88 157.24 855.86 157 854.12 156.59 852.58 156.65 852.58 154.78L852.58 140.09 852.58 132.74C852.58 131.24 852.72 131.53 851.48 131.37 850.49 131.25 849.51 131.15 848.53 131.08 845.06 130.81 841.44 130.62 838.01 131.21 836.72 131.43 836.64 131.23 836.64 132.62L836.64 136 836.64 144.24C836.64 152.44 837.26 160.74 836.92 168.93 836.82 171.37 836.75 177.23 834.02 178.44 830.85 179.84 828.06 176.88 825.14 176.26 825.54 180.37 822.96 188.52 827.76 190.6 832.15 192.5 837.21 193.21 841.84 191.64 851.55 188.34 854.69 177.54 853.46 168.67 868.44 173.14 884.61 165.65 891.02 152.12 895.59 142.49 893.66 130.52 886.79 122.33 873.92 106.98 847.8 104.04 829.6 111.24L829.6 111.24Z" fill="#EBEAE9"/><path d="M795 167.16L795 171.6 795 179 705 179 705 171.6 705 167.16 705 150 716.65 150 716.65 167.16 783.35 167.16 783.35 150 795 150 795 167.16Z" fill="#EBEAE9"/><path d="M604.57 161.26C606.06 147.24 617.63 142.29 619.33 141.64 616.45 139.35 614.61 135.84 614.61 131.91 614.61 125.01 620.28 119.41 627.28 119.41 634.28 119.41 639.95 125.01 639.95 131.91 639.95 135.8 638.14 139.28 635.31 141.57 637.68 142.41 640.01 143.67 642.09 145.31 636.59 148.08 624.46 156.07 622.62 173.31 622.62 173.45 622.62 173.59 622.62 173.73 611.97 173.06 610.88 170.16 610.88 170.16L610.88 170.15C610.2 169.49 609.68 168.68 609.35 167.67 607.8 167.31 606.83 166.37 606.83 166.37 606.83 166.37 604.44 165.47 604.57 161.26L604.57 161.26ZM649 145.14C646.5 146.1 629.49 153.38 627.28 173.97 627.1 180.16 630.61 181.47 630.61 181.47 630.61 181.47 630.61 181.47 630.61 181.47 630.61 181.47 632.05 182.85 634.33 183.38 634.8 184.87 635.57 186.06 636.57 187.04L636.57 187.04C636.57 187.04 638.25 191.54 655.1 192.37 655.35 192.41 655.6 192.45 655.84 192.5L660.03 192.5C660.56 192.5 661.09 192.5 661.64 192.5L666.46 192.5C666.87 192.42 667.3 192.35 667.72 192.28 685.04 191.13 686.86 185.69 686.86 185.69L686.86 185.68C687.32 185 687.7 184.24 687.97 183.38 695.85 181.81 695.23 172.38 692.87 165.14 689.59 155.08 681.25 148.15 672.5 145.05 676.67 141.68 679.33 136.57 679.33 130.85 679.33 120.72 670.98 112.5 660.69 112.5 650.4 112.5 642.06 120.72 642.06 130.85 642.06 136.63 644.76 141.78 649 145.14L649 145.14Z" fill="#EBEAE9"/><path d="M554.25 178.04C553.08 177.56 552.38 177.27 552.38 177.27L528.58 145.86C528.43 140.25 532.65 134.58 537.09 130.74 539.59 133.96 559.81 160.18 559.85 160.25 562.88 164.95 560.02 172.76 554.25 178.04L554.25 178.04ZM556.22 178.86C560.96 180.82 568.98 184.15 573.78 186.14 573.78 182.43 578.56 178.61 582.1 178.61 581.34 173.79 580.1 165.88 579.31 160.82 576.22 163.04 566.72 165.11 563.43 163.54 564.63 168.18 559.71 175.64 556.22 178.86L556.22 178.86ZM578.93 158.42C578.7 156.96 578.56 156.07 578.56 156.07L554.36 124.26C550.16 123.2 543.94 125.31 538.29 129.75L561.37 159.12C564.8 163.45 573.17 161.59 578.93 158.42L578.93 158.42ZM527.06 143.85L522.58 137.94C522.37 131.83 527.37 125.63 532.23 121.8 537.85 117.37 544.04 115.23 548.25 116.23L552.94 122.39C548.39 122.05 542.61 124.26 537.21 128.52 532.59 132.17 527.86 137.89 527.06 143.85L527.06 143.85 527.06 143.85ZM521.05 135.92L519.14 133.4C513.5 123.47 529.12 109.36 539.18 109.36 541.73 109.36 543.92 110.26 545.32 112.38L546.84 114.38C542.31 114.08 536.57 116.29 531.21 120.52 526.58 124.18 521.82 129.93 521.05 135.92L521.05 135.92 521.05 135.92ZM539.21 106.36C542.9 106.36 545.97 107.88 547.85 110.67L580.95 154.21C581.26 154.62 581.46 155.09 581.54 155.59L586.91 189.83C587.08 190.92 586.64 192.02 585.77 192.7 585.22 193.13 584.55 193.36 583.87 193.36 583.47 193.36 583.06 193.28 582.68 193.12L551.19 180.05C550.68 179.84 550.24 179.5 549.91 179.06L516.75 135.26C516.67 135.15 516.6 135.04 516.53 134.92 514.12 130.69 514.47 125.52 517.49 120.37 522.04 112.64 531.78 106.36 539.21 106.36L539.21 106.36Z" fill="#EBEAE9"/><path d="M495 159.73L495 193 475.71 193 475.71 161.96C475.71 154.16 472.92 148.83 465.94 148.83 460.61 148.83 457.44 152.42 456.04 155.89 455.53 157.13 455.4 158.86 455.4 160.59L455.4 193 436.1 193C436.1 193 436.36 140.42 436.1 134.97L455.4 134.97 455.4 143.2C455.36 143.26 455.31 143.32 455.27 143.39L455.4 143.39 455.4 143.2C457.96 139.25 462.54 133.61 472.79 133.61 485.48 133.61 495 141.9 495 159.73L495 159.73ZM415.92 107C409.32 107 405 111.33 405 117.02 405 122.59 409.19 127.06 415.66 127.06L415.79 127.06C422.52 127.06 426.71 122.6 426.71 117.02 426.58 111.33 422.52 107 415.92 107L415.92 107ZM406.15 193L425.44 193 425.44 134.97 406.15 134.97 406.15 193 406.15 193Z" fill="#EBEAE9"/><path d="M359.79 165.11L358.79 162.86 350.14 142.92C347.27 135.87 340.15 131.1 332.11 131.1 321.24 131.1 312.42 140.01 312.42 151 312.42 162 321.24 170.91 332.11 170.91 339.7 170.91 346.29 166.58 349.58 160.22L353.08 168.38C348.12 174.5 340.56 178.4 332.11 178.4 317.14 178.4 305 166.14 305 151 305 135.87 317.14 123.6 332.11 123.6 343.41 123.6 352.54 129.7 357.17 140.51 357.53 141.34 362.07 152.1 366.04 161.25 368.5 166.91 370.6 170.67 377.4 170.9 384.08 171.13 388.66 167.02 388.66 161.83 388.66 156.76 385.16 155.54 379.26 153.56 368.66 150.02 363.18 146.48 363.18 137.98 363.18 129.68 368.76 124.16 377.83 124.16 383.74 124.16 388.01 126.81 390.96 132.11L385.16 135.1C382.98 132.01 380.57 130.79 377.51 130.79 373.25 130.79 370.21 133.78 370.21 137.76 370.21 143.41 375.21 144.27 382.21 146.59 391.62 149.69 396 153.23 396 162.06 396 171.34 388.12 178.1 377.83 178.08 368.36 178.05 363.3 173.36 359.79 165.11Z" fill="#EBEAE9"/><g transform="translate(212.129822, 104.321121)"><path d="M37.7 17.22C39.03 8.73 36.15 2.9 34.01 1.06 31.87-0.79 29.36 0.1 27.07 1.65 24.78 3.2 16.74 9.62 10.91 21.57 5.07 33.53 3.23 44.08 2.49 50.43 1.75 56.78 0.35 60.39-0.02 65.12 -0.39 69.84 0.65 76.05 2.72 79.07 4.79 82.1 15.04 86.45 18.14 88.08 21.24 89.7 27.96 92.35 29.95 92.28 31.94 92.21 33.83 91.45 39.95 88.35 46.08 85.25 48.96 82.01 49.92 80.53 50.88 79.06 50.59 77.21 50.22 76.32 49.85 75.44 48.52 74.41 48.45 73.3 48.37 72.19 51.39 61.86 51.1 60.68 51.05 60.47 50.76 60.07 50.33 59.53 54.59 58.25 58.5 55.76 62.7 51.85 66.98 47.86 73.03 40.71 75.62 35.83 78.2 30.96 80.19 23.28 79.53 20.33 78.87 17.37 76.36 14.13 72.81 14.27 69.27 14.42 62.77 17.6 59.08 19.51 55.39 21.43 43.95 27.56 39.81 30.36 37.72 31.78 36.07 32.9 34.94 33.66 35.8 28.72 36.87 22.54 37.7 17.22Z" opacity="0.4" fill="#FFFFFF"/><path d="M33.71 40.69C33.54 41.69 33.29 42.64 32.96 43.54 34.62 44.57 35.86 45.6 39.23 48.98 35.56 46.47 34.58 45.35 32.62 44.4 31.51 46.95 29.76 49 27.51 50.36 26.82 50.77 26.99 49.68 27.28 49.17 27.85 48.17 30.45 42.83 31.12 39.95 31.78 37.06 33.92 25.55 34.59 19.87 35.25 14.18 34.51 5.92 33.7 4.37 32.89 2.82 30.97 2.96 28.98 4 26.98 5.03 21.37 10.57 18.64 14.77 15.91 18.98 11.93 25.11 9.71 31.38 7.5 37.66 5.68 47.1 4.92 53.59 4.82 54.37 4.69 54.48 4.32 55.14 3.96 55.81 2.11 60.32 1.52 64.67 0.93 69.02 1.23 75.22 4.55 79.87 7.87 84.52 14.66 85.48 18.65 87.4 22.63 89.32 27.21 91.09 29.94 91.01 32.67 90.94 36.95 88.87 39.75 87.39 42.56 85.92 47.57 82.23 48.39 80.16 49.2 78.09 49.57 77.5 48.39 76.4 47.2 75.29 46.46 74.55 46.76 73.59 47.05 72.63 49.27 64.22 49.56 62.67 49.86 61.12 49.49 60.01 48.75 59.13 48.01 58.24 43.06 51.89 43.06 51.89 43.06 51.89 45.01 53.81 46.99 55.87 48.53 56.11 51.61 55.82 53.18 55.32 54.8 54.81 61.08 50.45 66.17 44.62 71.26 38.79 74.73 32.66 75.69 29.04 76.65 25.43 77.46 21.52 76.21 19.38 74.95 17.24 72.44 16.94 70.01 17.75 67.57 18.56 59.45 22.62 53.1 25.94 46.76 29.27 41.02 32.88 38.96 34.21 37.2 35.34 35.18 37.11 33.93 39.42 33.85 39.89 33.78 40.31 33.71 40.69ZM37.7 17.22C39.03 8.73 36.15 2.9 34.01 1.06 31.87-0.79 29.36 0.1 27.07 1.65 24.78 3.2 16.74 9.62 10.91 21.57 5.07 33.53 3.23 44.08 2.49 50.43 1.75 56.78 0.35 60.39-0.02 65.12 -0.39 69.84 0.65 76.05 2.72 79.07 4.79 82.1 15.04 86.45 18.14 88.08 21.24 89.7 27.96 92.35 29.95 92.28 31.94 92.21 33.83 91.45 39.95 88.35 46.08 85.25 48.96 82.01 49.92 80.53 50.88 79.06 50.59 77.21 50.22 76.32 49.85 75.44 48.52 74.41 48.45 73.3 48.37 72.19 51.39 61.86 51.1 60.68 51.05 60.47 50.76 60.07 50.33 59.53 54.59 58.25 58.5 55.76 62.7 51.85 66.98 47.86 73.03 40.71 75.62 35.83 78.2 30.96 80.19 23.28 79.53 20.33 78.87 17.37 76.36 14.13 72.81 14.27 69.27 14.42 62.77 17.6 59.08 19.51 55.39 21.43 43.95 27.56 39.81 30.36 37.72 31.78 36.07 32.9 34.94 33.66 35.8 28.72 36.87 22.54 37.7 17.22Z" fill="#EBEAE9"/><path d="M21.12 63.87C23.48 64.45 24.75 66.28 24.46 69.14L26.06 69.3C26.43 65.65 24.64 63.08 21.5 62.31 18.2 61.51 14.84 63.51 13.77 67.41L15.32 67.83C16.16 64.77 18.66 63.27 21.12 63.87ZM44.33 69.6C44.96 69.69 46.01 71.11 45.9 73.96L46.23 74.11C46.37 70.47 45.69 69.04 44.47 68.27 43.2 67.46 41.91 69.01 41.5 72.91L42.74 73.1C43.07 70.04 43.7 69.51 44.33 69.6ZM32.19 70.77C32.19 70.77 35.17 71.4 36.43 71.68 37.69 71.97 39.76 72.14 39.76 72.14 39.76 72.14 37.12 74.15 36.49 74.15 35.86 74.15 32.19 70.77 32.19 70.77ZM20.62 79.88C23.6 82.17 30.02 82.34 33.86 80.68 35.63 82.85 38.38 83.83 38.38 83.83 38.38 83.83 34.89 81.94 34.37 79.36 29.68 81.59 26.98 81.64 20.62 79.88Z" fill="#EBEAE9"/></g><path d="M193.09 153.38C192.06 151.86 191.03 150.34 189.47 149.33 188.18 148.44 186.62 147.8 185.21 147.17 189.21 145.26 191.95 142.6 193.25 139.17 194.15 136.38 193.74 133.91 192.5 131.56 191.26 129.21 188.98 127.37 185.75 126.49 183.81 126.11 181.66 126.11 179.73 126.23L175.48 127.12 176.92 123.95C178.21 119.89 177.83 115.95 175.63 112.27L175.25 111.64C173.31 108.47 170.46 106.56 166.58 105.55 162.58 104.53 159.16 104.91 155.54 106.82 151.92 108.72 148.5 111.64 148.5 115.44L148.04 116.59 147.36 115.7 145.98 113.42C143.91 110.24 141.29 108.34 138.05 107.45 135.21 106.82 132.87 107.07 130.41 108.34 127.7 109.99 126.13 112.53 125.48 116.08 124.83 119.76 125.48 123.32 127.42 126.86L128.32 128.14 125.22 127.12C121.34 126.23 117.72 126.74 114.1 128.64 110.34 130.54 108.02 133.21 106.46 136.89 105.04 140.44 105.17 143.86 106.98 147.04 107.76 148.44 108.92 149.58 109.96 150.34 111.51 151.86 113.45 152.75 115.78 153.13L116.68 153.38 114.74 155.04C112.93 156.56 111.9 158.46 111.25 160.37 110.61 162.65 110.86 164.93 112.16 167.09 112.8 168.11 113.45 168.99 114.48 169.63 115.52 170.51 116.81 171.15 118.36 171.28 121.21 171.92 124.18 171.92 127.41 170.9L125.08 174.71 124.44 176.35C123.15 180.41 123.53 183.96 125.47 187.64 126.38 189.05 127.41 190.31 128.45 191.45 130 192.85 131.93 193.74 134.27 194.37 138.14 195.39 142.02 195.25 145.77 193.35 149.39 191.45 151.72 188.4 152.88 184.6L153.01 183.84C155.47 186.5 157.79 188.28 160.38 188.92 162.97 189.67 165.55 189.55 167.88 188.03 170.08 186.75 171.63 184.6 172.4 181.93 173.05 179.14 173.05 176.35 172.4 173.19 173.69 174.07 174.99 174.7 176.54 175.08 180.67 176.35 184.3 176.22 187.92 174.32 191.41 172.42 193.74 169.37 194.9 165.44 195.94 161.63 195.68 157.95 193.74 154.4L193.09 153.38ZM174.99 133.21L176.54 132.57C178.87 131.56 181.07 131.31 183.4 131.56 185.59 131.82 187.15 132.83 187.92 134.35L188.44 136 188.18 137.27C187.27 139.56 185.33 141.33 182.1 142.73 180.81 143.36 179.39 143.61 177.84 143.86L161.93 145.77 161.67 144.88 161.41 144.5 161.93 143.86 174.99 133.21 174.99 133.21ZM153.01 117.22C153.65 114.69 155.47 112.78 157.79 111.51 160.12 110.24 162.71 109.99 165.16 110.88 167.88 111.51 169.82 112.91 170.99 115.06 171.63 116.33 172.02 117.86 172.02 119.51L171.63 122.3C171.11 123.69 170.47 124.96 169.69 126.11L158.06 140.06C156.89 139.17 155.6 138.54 154.3 137.91L153.01 123.57 152.88 118.49 153.01 117.22 153.01 117.22ZM130.91 117.6C131.03 115.32 131.93 113.8 133.49 112.91 134.27 112.27 135.43 112.27 136.46 112.78 138.79 113.42 140.73 115.07 142.28 118.24 142.93 119.51 143.57 120.78 143.83 122.3L146.42 137.27 144.48 137.91 132.97 125.6 132.32 124.33C131.29 122.04 130.65 119.89 130.91 117.6L130.91 117.6ZM111.9 144.5C110.86 142.6 110.86 140.7 111.64 138.8 112.55 136.38 114.23 134.48 116.68 133.46 119.01 132.19 121.33 131.82 123.92 132.45L127.41 133.84 138.79 141.96C137.76 143.24 137.11 144.5 136.72 145.77L118.1 148.06 116.81 147.8C114.48 147.42 112.93 146.41 111.9 144.5L111.9 144.5ZM148.5 181.94L148.04 183.21C147.14 185.49 145.42 187.39 143.09 188.4 140.77 189.68 138.22 189.93 135.9 189.3 133.31 188.66 131.33 187.14 130.3 185.11 129.65 183.84 129.12 182.32 129.12 180.79L129.75 177.88C130.01 176.61 130.65 175.34 131.69 174.32L142.54 161.63C143.84 162.27 145.45 162.9 146.88 163.03 147.13 167.34 148.5 171.92 148.5 176.86L148.5 181.94 148.5 181.94ZM143.57 156.56C141.89 155.04 140.99 152.88 140.99 150.6 140.99 148.31 141.89 146.41 143.57 144.63 145.12 143.24 147.19 142.35 149.65 142.35 151.98 142.35 154.18 143.24 155.6 144.63 157.4 146.41 158.19 148.31 158.19 150.6 158.19 152.88 157.4 155.04 155.6 156.56 153.92 158.21 151.98 159.09 149.65 159.09 147.19 159.1 145.12 158.21 143.57 156.56L143.57 156.56ZM167.49 178.76C167.24 181.05 166.46 182.7 164.9 183.34 164 183.97 162.97 183.97 161.93 183.85 159.48 183.21 157.54 181.31 156.12 178.26L154.56 174.07 152.63 163.03 154.82 162.27 156.5 161.39 161.93 166.84 165.3 170.9 165.94 172.16C167.1 174.32 167.75 176.36 167.49 178.76L167.49 178.76ZM185.33 169.37C183.01 170.64 180.68 170.9 178.1 170.01 176.54 169.63 175.51 168.99 174.6 167.98L161.03 156.94 161.93 155.04 162.32 153.51 176.93 152.24 182.1 152.12 183.4 152.24C185.33 152.88 187.15 154.02 188.18 155.92 189.47 157.32 190.12 159.23 190.12 161.39L189.73 163.92C189.08 166.46 187.53 168.36 185.33 169.37Z" fill="#EBEAE9"/><path d="M76 110L53.71 110C47.87 110 40.51 110.87 34.34 115.97 29.68 119.99 27.42 125.53 27.42 130.53 27.42 139.01 33.91 147.59 45.38 147.59 46.46 147.59 47.65 147.48 48.85 147.38 48.3 148.68 47.76 149.77 47.76 151.62 47.76 154.99 49.49 157.05 51 159 46.14 159.33 37.05 159.87 30.34 164 23.95 167.81 22 173.34 22 177.26 22 185.3 29.58 192.8 45.27 192.8 63.88 192.8 73.73 182.48 73.73 172.26 73.73 164.77 69.4 161.07 64.64 157.05L60.74 154C59.56 153.02 57.94 151.72 57.94 149.33 57.94 146.94 59.56 145.42 60.96 144.01 65.51 140.42 70.05 136.62 70.05 128.58 70.05 120.32 64.85 115.97 62.37 113.91L69.08 113.91 76 110 76 110ZM67 176.6C67 183.32 61.46 188.3 51.02 188.3 39.4 188.3 31.9 182.78 31.9 175.09 31.9 167.39 38.85 164.8 41.24 163.93 45.81 162.42 51.67 162.2 52.65 162.2 53.74 162.2 54.28 162.2 55.16 162.31 63.42 168.15 67 171.08 67 176.6L67 176.6ZM58.02 141.2C56.3 142.91 53.4 144.2 50.71 144.2 41.48 144.2 37.3 132.28 37.3 125.09 37.3 122.3 37.84 119.4 39.66 117.14 41.38 115 44.38 113.6 47.17 113.6 56.08 113.6 60.7 125.63 60.7 133.35 60.7 135.29 60.48 138.72 58.02 141.2L58.02 141.2Z" fill="#EBEAE9"/><path d="M969.63 15C970.85 17.77 971.64 22.38 970.46 25.75 975.29 29.87 976.95 39.89 974.62 48.07 981.51 48.6 989.71 47.82 995 49.93 990.05 49.3 983.29 48.05 976.91 48.48 975.7 48.57 973.91 48.44 974 50.14 981.39 50.72 988.73 51.35 994.79 53.24 988.78 52.26 981.47 50.76 974 50.55 970.91 56.64 964.69 59.64 956.11 60.27 957.04 62.27 958.8 63.03 959.23 66.26 959.88 71.08 958.23 78.14 959.85 81.35 960.64 82.89 961.91 82.93 962.77 84.24 960.67 86.73 955.46 83.96 954.86 81.35 953.85 76.87 956.41 69.92 953.62 66.88 953.81 71.77 952.46 78.63 953.82 83 954.36 84.72 955.92 85.38 955.49 86.93 945.72 87.92 949.8 74.3 948.21 66.26 946.73 66.36 947.38 68.46 947.38 69.36 947.33 77.21 948.98 87.98 940.51 86.93 940.27 85.28 941.65 84.72 942.18 83.21 943.72 78.79 941.89 72.21 942.6 66.88 939.36 69.31 942.94 77.81 940.93 82.17 939.78 84.68 936.06 85.77 933.24 84.65 933.61 82.79 935.54 83.09 936.35 81.35 937.5 78.92 936.36 75.43 936.77 71.84 930.79 73.03 926.15 71.67 923.87 67.91 922.86 66.23 922.61 64.24 921.38 62.75 920.16 61.25 918.2 61.05 917.64 59.03 925.05 57.24 925.33 66.65 931.99 66.88 934.03 66.95 935.09 66.29 936.98 65.85 937.51 63.48 938.64 61.71 940.3 60.47 932.02 59.34 925.18 56.76 922 50.55 914.48 50.92 911.59 51.93 905.21 53.44 911 51.34 914.14 50.59 921.8 50.34 921.35 47.63 917.39 48.38 914.93 48.48 910.37 48.68 908.63 49.25 905 49.93 910.26 48.06 913.64 48.29 920.76 48.28 918.58 41.45 919.34 30.61 924.09 26.58 922.74 23.19 923.16 17.64 924.92 15 930.22 15.24 933.44 17.55 936.77 19.76 940.91 18.58 945.25 18 950.91 18.31 953.3 18.44 955.77 19.51 957.57 19.34 959.33 19.17 961.27 17.2 962.97 16.45 965.2 15.47 967.08 15.09 969.63 15L969.63 15Z" fill="#EBEAE9"/><path d="M847.64 37.99C852.23 39.55 858.36 41.2 860.86 49.41 863.37 57.63 860.83 60.17 862.2 70.71 863.56 81.26 861.8 89.76 855.16 91.42 848.52 93.08 840.9 89.66 838.36 84.48 835.82 79.31 830.84 69.93 828.98 67.88 827.13 65.83 817.75 57.72 812.19 55.87 806.62 54.01 807.69 40.73 814.04 38.29 820.39 35.85 843.05 36.42 847.64 37.99ZM841.33 9.38C844.5 11.39 843.8 18.13 838.17 24.42 832.53 30.7 827.11 32.23 823.12 28.32 819.14 24.42 819.43 19.25 826.73 13.28 834.03 7.32 838.17 7.36 841.33 9.38ZM866.33 9.38C869.5 11.39 868.81 18.13 863.17 24.42 857.53 30.7 852.11 32.23 848.13 28.32 844.14 24.42 844.44 19.25 851.74 13.28 859.04 7.32 863.17 7.36 866.33 9.38ZM885.09 22.27C888.25 24.28 887.56 31.02 881.92 37.31 876.28 43.59 870.86 45.12 866.88 41.21 862.9 37.31 863.19 32.14 870.49 26.17 877.79 20.21 881.92 20.25 885.09 22.27ZM889.26 48.04C893.28 51.28 891.32 58.01 885.05 62.82 878.78 67.64 873.12 69.61 869.78 65.67 866.43 61.73 868.68 55.86 874.43 50.92 880.17 45.98 885.24 44.8 889.26 48.04Z" fill="#EBEAE9"/><path d="M794.88 47.5C794.88 58.55 785.93 67.5 774.88 67.5 763.83 67.5 754.88 58.55 754.88 47.5 754.88 36.46 763.83 27.5 774.88 27.5 785.93 27.5 794.88 36.46 794.88 47.5L794.88 47.5ZM725.12 27.5C714.08 27.5 705.12 36.46 705.12 47.5 705.12 58.55 714.08 67.5 725.12 67.5 736.17 67.5 745.12 58.55 745.12 47.5 745.12 36.46 736.17 27.5 725.12 27.5L725.12 27.5Z" fill="#EBEAE9"/><path d="M656.94 92.91L656.94 50.31 668.5 50.31 670.04 35.64 656.94 35.64 656.96 28.29C656.96 24.46 657.32 22.41 662.72 22.41L669.95 22.41 669.95 7.73 658.39 7.73C644.49 7.73 639.6 14.85 639.6 26.82L639.6 35.64 630.94 35.64 630.94 50.32 639.6 50.32 639.6 92.91 656.94 92.91Z" fill="#EBEAE9"/><path d="M532.59 67.38C529.79 64.35 528.38 60.11 528.38 54.67 528.38 48.36 530.53 42.45 534.82 36.95 539.1 31.44 544.37 28.68 550.61 28.68 554.27 28.68 557.11 29.7 559.13 31.72 560.67 33.29 561.69 35.08 562.22 37.1L564.1 30.51 573.98 30.51 567.29 53.21C566.77 55.06 566.39 56.43 566.17 57.31 565.94 58.2 565.83 58.98 565.83 59.64 565.83 60.69 566.17 61.67 566.87 62.6 567.57 63.52 568.68 63.98 570.22 63.98 573.22 63.98 576.22 62.02 579.24 58.1 582.25 54.18 583.76 48.97 583.76 42.49 583.76 32.9 579.65 26.02 571.42 21.83 566.26 19.18 560.46 17.86 554.01 17.86 542.16 17.86 532.64 21.49 525.46 28.74 518.97 35.29 515.73 43.15 515.73 52.32 515.73 62.5 519.53 70.57 527.13 76.53 533.86 81.8 542.07 84.43 551.76 84.43 558.38 84.43 564.57 83.21 570.32 80.77 573.46 79.48 576.7 77.65 580.05 75.28L581.3 74.39 585.12 80.24C580.17 84.08 574.81 87 569.04 89 563.27 91.01 557.28 92.01 551.08 92.01 536.61 92.01 525.4 87.51 517.46 78.52 510.87 71.06 507.57 62.22 507.57 52.01 507.57 40.57 511.69 30.88 519.91 22.93 528.56 14.53 539.63 10.33 553.12 10.33 564.1 10.33 573.2 13.21 580.41 18.96 588.01 25.02 591.81 33.08 591.81 43.12 591.81 51.03 589.41 57.82 584.6 63.48 579.79 69.15 574.3 71.98 568.13 71.98 564.92 71.98 562.45 71.08 560.73 69.26 559 67.45 558.14 65.58 558.14 63.67 558.14 63.42 558.15 63.15 558.16 62.86 558.18 62.56 558.21 62.24 558.24 61.89 556.92 64.4 555.44 66.4 553.8 67.9 550.84 70.59 547.28 71.93 543.13 71.93 538.91 71.93 535.4 70.41 532.59 67.38ZM557.56 37.73C556.45 36.48 554.95 35.85 553.07 35.85 549.44 35.85 546.32 38.11 543.71 42.62 541.09 47.13 539.78 51.5 539.78 55.72 539.78 58.26 540.37 60.32 541.54 61.89 542.7 63.46 544.35 64.24 546.48 64.24 550.21 64.24 553.27 61.41 555.65 55.75 558.04 50.08 559.24 45.63 559.24 42.38 559.24 40.54 558.68 38.99 557.56 37.73Z" fill="#EBEAE9"/><path d="M450.5 8C427.03 8 408 27.03 408 50.5 408 73.97 427.03 93 450.5 93 473.97 93 493 73.97 493 50.5 493 27.03 473.97 8 450.5 8L450.5 8ZM476.54 30.04C480.69 35.3 483.28 41.82 483.61 48.94 478.81 47.92 474.28 47.43 470.05 47.43L470.05 47.43 470.02 47.43C466.62 47.43 463.42 47.74 460.42 48.27 459.68 46.48 458.94 44.75 458.2 43.11 464.9 40.17 471.33 35.98 476.54 30.04L476.54 30.04ZM450.5 17.34C458.32 17.34 465.49 20.08 471.17 24.63 466.83 29.83 461.09 33.6 454.89 36.26 450.54 27.84 446.33 21.82 443.45 18.13 445.73 17.63 448.08 17.34 450.5 17.34L450.5 17.34ZM435.85 20.8C438.15 23.52 442.76 29.5 447.68 38.83 437.67 41.81 427.6 42.51 421.5 42.51 421.32 42.51 421.15 42.51 420.98 42.51L420.98 42.51C419.95 42.51 419.07 42.49 418.33 42.47 420.71 32.95 427.23 25.07 435.85 20.8L435.85 20.8ZM417.34 50.5C417.34 50.35 417.35 50.19 417.36 50.02 418.3 50.06 419.52 50.09 420.98 50.09L420.99 50.09C427.65 50.05 439.29 49.49 451.08 45.77 451.72 47.17 452.36 48.63 452.99 50.15 445.11 52.79 438.91 56.98 434.32 61.16 429.91 65.19 426.92 69.17 425.18 71.83 420.3 66.06 417.34 58.63 417.34 50.5L417.34 50.5ZM450.5 83.66C443.12 83.66 436.32 81.22 430.8 77.12 431.97 75.19 434.49 71.49 438.49 67.65 442.61 63.71 448.3 59.64 455.72 57.23 458.25 64.3 460.53 72.39 462.27 81.49 458.6 82.89 454.64 83.66 450.5 83.66L450.5 83.66ZM469.26 77.77C467.58 69.54 465.47 62.12 463.14 55.49 465.3 55.18 467.56 55.01 469.95 55.01L470.03 55.01 470.04 55.01 470.04 55.01C474 55.01 478.34 55.5 483.06 56.57 481.42 65.34 476.35 72.89 469.26 77.77L469.26 77.77Z" fill="#EBEAE9"/><path d="M336.76 33.87C336.49 33.91 336.26 33.98 335.99 34.02L331.62 25 318.63 26.5 323.92 37.48C296.55 48.95 308.68 76 308.68 76L350.45 63.8 338.97 40.16C359.57 34.15 376.77 46.43 376.77 46.43L362.59 50.32 358.51 42.62C354.67 41.9 350.3 41.68 345.64 42.47L355.29 62.38 397 50.18C397 50.18 381.87 26.08 336.76 33.87L336.76 33.87ZM319.69 62C319.69 62 315.55 52.84 327.59 45L334 58.13 319.69 62 319.69 62Z" fill="#EBEAE9"/><path d="M287 33L264 33 264 27 287 27 287 33 287 33ZM248.77 56.45C250.26 58.74 251 61.53 251 64.8 251 68.18 250.16 71.21 248.45 73.89 247.37 75.66 246.02 77.16 244.4 78.37 242.57 79.76 240.41 80.72 237.92 81.23 235.43 81.74 232.73 82 229.83 82L204 82 204 25 231.7 25C238.68 25.11 243.63 27.12 246.55 31.07 248.3 33.49 249.17 36.4 249.17 39.78 249.17 43.26 248.29 46.05 246.52 48.17 245.54 49.36 244.08 50.44 242.15 51.41 245.07 52.47 247.29 54.14 248.77 56.45L248.77 56.45ZM217 48L228.83 48C231.26 48 233.22 47.51 234.73 46.54 236.25 45.57 237 43.84 237 41.36 237 38.62 236 36.8 234 35.92 232.28 35.31 230.07 35 227.4 35L217 35 217 48 217 48ZM239 63.98C239 61.06 237.77 59.04 235.3 57.95 233.92 57.34 231.98 57.02 229.48 57L217 57 217 72 229.29 72C231.82 72 233.77 71.68 235.18 71.01 237.72 69.79 239 67.45 239 63.98L239 63.98ZM295.63 54.28C295.91 56.13 296.04 58.82 295.99 62.33L265.89 62.33C266.06 66.4 267.49 69.25 270.21 70.88 271.85 71.9 273.84 72.4 276.17 72.4 278.62 72.4 280.63 71.79 282.17 70.54 283.01 69.88 283.75 68.94 284.39 67.76L295.42 67.76C295.13 70.16 293.8 72.6 291.41 75.08 287.72 79.02 282.53 81 275.87 81 270.36 81 265.51 79.33 261.3 76.01 257.11 72.68 255 67.28 255 59.78 255 52.75 256.89 47.37 260.69 43.62 264.5 39.87 269.42 38 275.48 38 279.07 38 282.31 38.63 285.2 39.9 288.08 41.16 290.46 43.16 292.34 45.9 294.03 48.31 295.12 51.1 295.63 54.28L295.63 54.28ZM284 56C283.8 53.05 282.88 50.82 281.21 49.3 279.55 47.77 277.48 47 275.02 47 272.33 47 270.26 47.82 268.78 49.43 267.3 51.04 266.38 53.23 266 56L284 56 284 56Z" fill="#EBEAE9"/><path d="M153.89 91.78L145.61 91.78C127.35 91.78 112.5 76.92 112.5 58.67L112.5 17.28C112.5 12.7 116.2 9 120.78 9 125.35 9 129.06 12.7 129.06 17.28L129.06 58.67C129.06 67.79 136.48 75.22 145.61 75.22L153.89 75.22C163.02 75.22 170.44 68.72 170.44 60.74 170.44 52.57 165.99 46.25 162.17 46.25L145.61 46.25C141.04 46.25 137.33 42.54 137.33 37.97 137.33 33.4 141.04 29.69 145.61 29.69L162.17 29.69C175.86 29.69 187 43.61 187 60.74 187 77.85 172.14 91.78 153.89 91.78L153.89 91.78Z" fill="#EBEAE9"/><path d="M59.84 62.28C68.45 66.46 77.49 74.15 81.17 83.03 76.45 86.86 75.83 87.33 70.28 92 64.94 81.71 58.47 76.04 49.62 73.77 44.42 80.47 35.97 88.29 22.74 91.9 19.79 85.66 18.99 83.89 17 79.19 27.58 76.74 31.43 73.39 36.61 63.47 36.24 51.43 39.33 39.6 47.05 34.86 51.07 36.18 57.71 40.14 59.59 40.73 59.33 41.96 60.21 43.34 63.45 44.05 65.91 44.59 71.69 45.44 77.27 40.38 80.69 45.64 83.4 50.73 83.4 50.73 83.4 50.73 72.72 61.34 60.07 58 59.99 59.65 59.92 60.18 59.84 62.28L59.84 62.28ZM61.34 32.61C54.88 32.61 49.48 27.33 49.48 20.81 49.48 14.28 54.88 9 61.34 9 67.8 9 73.29 14.28 73.29 20.81 73.29 27.32 67.8 32.61 61.34 32.61L61.34 32.61Z" fill="#EBEAE9"/></g></svg>