<svg xmlns="http://www.w3.org/2000/svg" width="1300" height="500" viewBox="0" version="1.1"><title>icons</title><description>Created with Sketch.</description><g stroke="none" stroke-width="1" fill="none" fill-rule="evenodd"><g transform="translate(214.000000, 408.000000)" fill="#161D26"><path d="M36 84C16.12 84 0 67.91 0 48.06 0 29.34 14.34 13.96 32.65 12.27L32.65 6.48 29.93 6.48 29.93 0 42.07 0 42.07 6.48 39.35 6.48 39.35 12.27C46.24 12.91 52.57 15.48 57.78 19.44L64.54 12.69 71.35 19.48 64.6 26.23C69.24 32.28 72 39.85 72 48.06 72 67.91 55.88 84 36 84ZM64 48.5C64 33.31 51.46 21 36 21 20.54 21 8 33.31 8 48.5 8 63.69 20.54 76 36 76 51.46 76 64 63.69 64 48.5Z"/><path d="M32.76 29L39.03 29 39.03 42.07C41.38 43.22 43 45.67 43 48.51 43 51.35 41.38 53.8 39.03 54.95L39.03 58 32.76 58 32.76 54.85C30.53 53.65 29 51.26 29 48.51 29 45.76 30.53 43.37 32.76 42.18L32.76 29Z"/></g><path d="M150.5 407.37C135.86 407.37 124 419.24 124 433.87 124 438.3 125.09 442.48 127.01 446.14L150.3 493.29 174.01 446.14C175.91 442.48 177 438.3 177 433.87 177 419.24 165.14 407.37 150.5 407.37ZM163.5 433.47C163.5 426.29 157.68 420.47 150.5 420.47 143.32 420.47 137.5 426.29 137.5 433.47 137.5 440.65 143.32 446.47 150.5 446.47 157.68 446.47 163.5 440.65 163.5 433.47Z" fill="#161D26"/><g transform="translate(7.000000, 406.000000)" fill="#161D26"><path d="M84.83 54.62C87.94 51.5 87.91 46.46 84.78 43.37L41.01-0.3 9.98-0.2 10.03 5.77 35.01 5.7 78.78 49.37C81.91 52.46 82.37 53.62 82.83 56.62L84.83 54.62Z" opacity="0.5"/><path d="M44.9 85.39C48.03 88.49 53.08 88.47 56.19 85.34L75.83 65.62C78.94 62.5 78.91 57.46 75.78 54.37L31.01 9.7 -0.02 9.8 0.14 40.71 44.9 85.39ZM23.14 25.7C23.14 21.84 20.01 18.7 16.14 18.7 12.28 18.7 9.14 21.84 9.14 25.7 9.14 29.57 12.28 32.7 16.14 32.7 20.01 32.7 23.14 29.57 23.14 25.7Z"/></g><path d="M1087.56 315.84C1086 314.27 1083.48 314.27 1081.92 315.84L1038.52 359.49C1036.96 361.06 1034.43 361.06 1032.88 359.5L1018.08 344.61C1016.52 343.05 1013.99 343.05 1012.44 344.62L1005.82 351.27C1004.26 352.84 1004.26 355.38 1005.82 356.94L1032.88 384.17C1034.43 385.73 1036.96 385.73 1038.51 384.17L1094.19 328.16C1095.74 326.6 1095.73 324.06 1094.18 322.5L1087.56 315.84Z" fill="#13981F"/><path d="M808 308L808 320 878 320 878 308 808 308ZM808 326L808 338 890 338 890 326 808 326ZM808 344L808 356 871 356 871 344 808 344ZM808 363L808 375 893 375 893 363 808 363ZM808 381L808 393 886 393 886 381 808 381Z" fill="#EBEAE9"/><path d="M708 308L708 378 793 378 793 308 708 308ZM708 389L708 393 793 393 793 389 708 389ZM708 383L708 387 793 387 793 383 708 383Z" fill="#EBEAE9"/><path d="M660 388L660 393 690 393 690 388 660 388ZM660 355L660 385 690 385 690 355 660 355ZM660 341L660 346 690 346 690 341 660 341ZM660 308L660 338 690 338 690 308 660 308ZM610 388L610 393 640 393 640 388 610 388ZM610 355L610 385 640 385 640 355 610 355ZM610 341L610 346 640 346 640 341 610 341ZM610 308L610 338 640 338 640 308 610 308Z" fill="#EBEAE9"/><path d="M538 338L538 393 593 393 593 338 538 338ZM508 368L508 393 533 393 533 368 508 368ZM508 308L508 363 533 363 533 308 508 308ZM538 308L538 333 593 333 593 308 538 308Z" fill="#EBEAE9"/><g transform="translate(395.000000, 290.000000)" fill="#EBEAE9"><path d="M93.43 72.45L96.13 69.75C99.26 66.63 99.23 61.58 96.08 58.49L84.17 46.81 65.16 65.82 77.17 53.81 91.09 67.49C92.49 68.87 93.27 70.64 93.43 72.45ZM22.42 22.33L22.48 16.37 53.17 16.2 69.79 32.48 63.28 38.99 46.17 22.2 22.42 22.33 22.42 22.33Z" opacity="0.5"/><path d="M12.14 57.22L28.74 73.53 59.79 42.48 43.17 26.2 12.48 26.37 12.14 57.22ZM35 42C35 38.13 31.87 35 28 35 24.13 35 21 38.13 21 42 21 45.87 24.13 49 28 49 31.87 49 35 45.87 35 42ZM57.05 101.53C60.19 104.63 65.27 104.61 68.4 101.48L88.13 81.75C91.26 78.63 91.24 73.58 88.09 70.49L74.17 56.81 43.14 87.83 57.05 101.53ZM15.72 91.88L24.62 100.78 93.8 31.6 84.9 22.7 15.72 91.88Z"/></g><g transform="translate(307.000000, 322.000000)" fill="#EBEAE9"><path d="M31.69 53L2 53C0.9 53 0 52.11 0 51L0 2C0 0.9 0.9 0 2 0L70 0C71.1 0 72 0.89 72 2L72 12.69 66 18.69 66 5 6 5 6 47 37.69 47 31.69 53ZM62.81 53L70 53C71.1 53 72 52.1 72 51L72 43.81 62.81 53 62.81 53ZM40.22 44.47L8.88 44.47C11.63 38.73 16.26 35.23 21.14 35.23 26.01 35.23 26.54 38.73 33.01 38.73 39.48 38.73 40.1 26.09 50.88 26.09 53 26.09 54.78 27.01 56.27 28.43L40.22 44.47 40.22 44.47ZM38.52 51.84L48.41 61.73 78.82 31.33 68.92 21.43 38.52 51.84ZM78.81 11.54C79.6 10.75 80.87 10.75 81.65 11.53L88.72 18.6C89.5 19.38 89.5 20.65 88.71 21.44L81.65 28.5 71.75 18.6 78.81 11.54ZM23.5 28C28.19 28 32 24.19 32 19.5 32 14.81 28.19 11 23.5 11 18.81 11 15 14.81 15 19.5 15 24.19 18.81 28 23.5 28Z"/><path d="M55.13 75.62L62.13 61.62 48.13 61.62 55.13 75.62ZM48.13 14.62L48.13 18.62 62.13 18.62 62.13 14.62 48.13 14.62Z" opacity="0.5" transform="translate(55.132359, 45.117641) rotate(-315.000000) translate(-55.132359, -45.117641) "/></g><path d="M211.07 324.3L211.07 375.34C211.07 377.46 212.8 379.19 214.92 379.19L284.16 379.19C286.28 379.19 288.01 377.46 288.01 375.34L288.01 324.3C288.01 322.18 286.28 320.45 284.16 320.45L214.92 320.45C212.8 320.45 211.07 322.18 211.07 324.3ZM276.55 374.37L282.33 374.37 282.33 368.6 276.55 368.6 276.55 374.37ZM264.61 374.37L270.39 374.37 270.39 368.6 264.61 368.6 264.61 374.37ZM252.67 374.37L258.45 374.37 258.45 368.6 252.67 368.6 252.67 374.37ZM240.73 374.37L246.51 374.37 246.51 368.6 240.73 368.6 240.73 374.37ZM228.79 374.37L234.57 374.37 234.57 368.6 228.79 368.6 228.79 374.37ZM216.85 374.37L222.63 374.37 222.63 368.6 216.85 368.6 216.85 374.37ZM276.55 332.01L282.33 332.01 282.33 326.23 276.55 326.23 276.55 332.01ZM264.61 332.01L270.39 332.01 270.39 326.23 264.61 326.23 264.61 332.01ZM252.67 332.01L258.45 332.01 258.45 326.23 252.67 326.23 252.67 332.01ZM240.73 332.01L246.51 332.01 246.51 326.23 240.73 326.23 240.73 332.01ZM228.79 332.01L234.57 332.01 234.57 326.23 228.79 326.23 228.79 332.01ZM216.85 332.01L222.63 332.01 222.63 326.23 216.85 326.23 216.85 332.01ZM216.85 362.29L246.51 362.29 246.51 338.31 216.85 338.31 216.85 362.29ZM252.67 362.29L282.33 362.29 282.33 338.31 252.67 338.31 252.67 362.29Z" fill="#FFFFFF"/><path d="M172.56 328.04L148.15 334.29 148.15 368.19C148.59 372.69 143.37 378.29 136.5 379.88 129.22 381.56 122.89 378.91 121.63 373.48 120.38 368.04 125.26 362.27 132.55 360.59 135.56 359.89 138.53 360.15 141.05 361.02L141.05 334.16 141.05 327.22 179.66 317.26 179.66 325.94 179.66 359.69C180.11 364.19 174.89 369.8 168.02 371.38 160.73 373.06 154.4 370.42 153.15 364.98 151.89 359.55 156.78 353.78 164.06 352.09 167.08 351.4 170.04 351.65 172.56 352.52L172.56 328.04Z" fill="#FFFFFF" transform="translate(150.434324, 348.760124) rotate(-315.000000) translate(-150.434324, -348.760124) "/><g transform="translate(8.000000, 342.000000)" fill="#EBEAE9"><path d="M15.88 0.41L15.88 17.36 66.76 17.36 66.76 0.41 15.88 0.41 15.88 0.41ZM83.68 0.41C84.79 0.41 85.69 1.32 85.69 2.45L85.69 15.31C85.69 16.44 84.8 17.36 83.68 17.36L71.49 17.36 71.49 0.41 83.68 0.41 83.68 0.41Z"/><path d="M-0.09 8.9L16.21 17.77 16.21 0.02 -0.09 8.9 -0.09 8.9ZM70.91 0.02L66.25 0.02 66.25 17.77 70.91 17.77 70.91 0.02 70.91 0.02Z" opacity="0.5"/></g><path d="M1255.42 317.48L1293.69 378.52C1296.62 383.2 1294.53 387 1288.99 387L1211.21 387C1205.68 387 1203.58 383.21 1206.52 378.52L1244.79 317.48C1247.72 312.8 1252.48 312.79 1255.42 317.48ZM1257.51 326.62L1257.51 340.46 1253.57 365.93 1246.33 365.93 1242.3 340.46 1242.3 326.62 1257.51 326.62ZM1257.12 370.3L1257.12 381 1242.64 381 1242.64 370.3 1257.12 370.3Z" fill="#B33316"/><path d="M1255.42 217.48L1293.69 278.52C1296.62 283.2 1294.53 287 1288.99 287L1211.21 287C1205.68 287 1203.58 283.21 1206.52 278.52L1244.79 217.48C1247.72 212.8 1252.48 212.79 1255.42 217.48ZM1257.51 226.62L1257.51 240.46 1253.57 265.93 1246.33 265.93 1242.3 240.46 1242.3 226.62 1257.51 226.62ZM1257.12 270.3L1257.12 281 1242.64 281 1242.64 270.3 1257.12 270.3Z" fill="#C17117"/><path d="M1255.42 117.48L1293.69 178.52C1296.62 183.2 1294.53 187 1288.99 187L1211.21 187C1205.68 187 1203.58 183.21 1206.52 178.52L1244.79 117.48C1247.72 112.8 1252.48 112.79 1255.42 117.48ZM1257.51 126.62L1257.51 140.46 1253.57 165.93 1246.33 165.93 1242.3 140.46 1242.3 126.62 1257.51 126.62ZM1257.12 170.3L1257.12 181 1242.64 181 1242.64 170.3 1257.12 170.3Z" fill="#EBEAE9"/><path d="M1195 350C1195 325.15 1174.85 305 1150 305 1125.15 305 1105 325.15 1105 350 1105 374.85 1125.15 395 1150 395 1174.85 395 1195 374.85 1195 350L1195 350 1195 350ZM1176.84 334.48C1179.48 339.04 1181 344.34 1181 350 1181 367.12 1167.12 381 1150 381 1144.34 381 1139.04 379.48 1134.48 376.84L1176.84 334.48 1176.84 334.48ZM1165.52 323.16C1160.96 320.52 1155.66 319 1150 319 1132.88 319 1119 332.88 1119 350 1119 355.66 1120.52 360.96 1123.16 365.52L1165.52 323.16 1165.52 323.16Z" fill="#B33316"/><path d="M1195 250C1195 225.15 1174.85 205 1150 205 1125.15 205 1105 225.15 1105 250 1105 274.85 1125.15 295 1150 295 1174.85 295 1195 274.85 1195 250L1195 250 1195 250ZM1176.84 234.48C1179.48 239.04 1181 244.34 1181 250 1181 267.12 1167.12 281 1150 281 1144.34 281 1139.04 279.48 1134.48 276.84L1176.84 234.48 1176.84 234.48ZM1165.52 223.16C1160.96 220.52 1155.66 219 1150 219 1132.88 219 1119 232.88 1119 250 1119 255.66 1120.52 260.96 1123.16 265.52L1165.52 223.16 1165.52 223.16Z" fill="#C17117"/><path d="M1195 150C1195 125.15 1174.85 105 1150 105 1125.15 105 1105 125.15 1105 150 1105 174.85 1125.15 195 1150 195 1174.85 195 1195 174.85 1195 150L1195 150 1195 150ZM1176.84 134.48C1179.48 139.04 1181 144.34 1181 150 1181 167.12 1167.12 181 1150 181 1144.34 181 1139.04 179.48 1134.48 176.84L1176.84 134.48 1176.84 134.48ZM1165.52 123.16C1160.96 120.52 1155.66 119 1150 119 1132.88 119 1119 132.88 1119 150 1119 155.66 1120.52 160.96 1123.16 165.52L1165.52 123.16 1165.52 123.16Z" fill="#EBEAE9"/><path d="M1028 140C1028 121.77 1042.77 107 1061 107 1079.23 107 1094 121.77 1094 140 1094 158.23 1079.23 173 1061 173 1053.71 173 1046.98 170.64 1041.52 166.64L1015.39 192.76C1013.24 194.92 1009.76 194.91 1007.61 192.76 1005.47 190.62 1005.46 187.13 1007.61 184.98L1033.84 158.75C1030.16 153.43 1028 146.97 1028 140ZM1061.5 165C1075.03 165 1086 154.03 1086 140.5 1086 126.97 1075.03 116 1061.5 116 1047.97 116 1037 126.97 1037 140.5 1037 154.03 1047.97 165 1061.5 165Z" fill="#EBEAE9"/><path d="M924.47 282.25L924.47 213.05 976.53 213.05 976.53 247.65 976.53 282.25 941.77 293.95 941.77 282.25 924.47 282.25ZM930.24 276.49L930.24 218.82 964.61 218.82 941.77 229.87 941.77 276.49 930.24 276.49ZM955.95 255.04C955.95 252.6 954.73 250.88 953.22 251.19 951.72 251.51 950.5 253.74 950.5 256.18 950.5 258.62 951.72 260.34 953.22 260.03 954.73 259.71 955.95 257.48 955.95 255.04Z" fill="#27919E"/><path d="M924.47 182.25L924.47 113.05 976.53 113.05 976.53 147.65 976.53 182.25 941.77 193.95 941.77 182.25 924.47 182.25ZM930.24 176.49L930.24 118.82 964.61 118.82 941.77 129.87 941.77 176.49 930.24 176.49ZM955.95 155.04C955.95 152.6 954.73 150.88 953.22 151.19 951.72 151.51 950.5 153.74 950.5 156.18 950.5 158.62 951.72 160.34 953.22 160.03 954.73 159.71 955.95 157.48 955.95 155.04Z" fill="#EBEAE9"/><path d="M840.75 210.31C840.99 208.49 842.68 207 844.51 207L854.49 207C856.34 207 858.01 208.48 858.25 210.31L860.17 224.73 871.73 215.89C873.19 214.77 875.43 214.92 876.73 216.21L883.79 223.27C885.09 224.57 885.23 226.81 884.11 228.27L875.27 239.83 889.69 241.75C891.51 241.99 893 243.68 893 245.51L893 255.49C893 257.34 891.52 259.01 889.69 259.25L875.27 261.17 884.11 272.73C885.23 274.19 885.08 276.43 883.79 277.73L876.73 284.79C875.43 286.09 873.19 286.23 871.73 285.11L860.17 276.27 858.25 290.69C858.01 292.51 856.32 294 854.49 294L844.51 294C842.66 294 840.99 292.52 840.75 290.69L838.83 276.27 827.27 285.11C825.81 286.23 823.57 286.08 822.27 284.79L815.21 277.73C813.91 276.43 813.77 274.19 814.89 272.73L823.73 261.17 809.31 259.25C807.49 259.01 806 257.32 806 255.49L806 245.51C806 243.66 807.48 241.99 809.31 241.75L823.73 239.83 814.89 228.27C813.77 226.81 813.92 224.57 815.21 223.27L822.27 216.21C823.57 214.91 825.81 214.77 827.27 215.89L838.83 224.73 840.75 210.31 840.75 210.31ZM849.5 270C860.27 270 869 261.27 869 250.5 869 239.73 860.27 231 849.5 231 838.73 231 830 239.73 830 250.5 830 261.27 838.73 270 849.5 270L849.5 270Z" fill="#27919E"/><path d="M840.75 110.31C840.99 108.49 842.68 107 844.51 107L854.49 107C856.34 107 858.01 108.48 858.25 110.31L860.17 124.73 871.73 115.89C873.19 114.77 875.43 114.92 876.73 116.21L883.79 123.27C885.09 124.57 885.23 126.81 884.11 128.27L875.27 139.83 889.69 141.75C891.51 141.99 893 143.68 893 145.51L893 155.49C893 157.34 891.52 159.01 889.69 159.25L875.27 161.17 884.11 172.73C885.23 174.19 885.08 176.43 883.79 177.73L876.73 184.79C875.43 186.09 873.19 186.23 871.73 185.11L860.17 176.27 858.25 190.69C858.01 192.51 856.32 194 854.49 194L844.51 194C842.66 194 840.99 192.52 840.75 190.69L838.83 176.27 827.27 185.11C825.81 186.23 823.57 186.08 822.27 184.79L815.21 177.73C813.91 176.43 813.77 174.19 814.89 172.73L823.73 161.17 809.31 159.25C807.49 159.01 806 157.32 806 155.49L806 145.51C806 143.66 807.48 141.99 809.31 141.75L823.73 139.83 814.89 128.27C813.77 126.81 813.92 124.57 815.21 123.27L822.27 116.21C823.57 114.91 825.81 114.77 827.27 115.89L838.83 124.73 840.75 110.31 840.75 110.31ZM849.5 170C860.27 170 869 161.27 869 150.5 869 139.73 860.27 131 849.5 131 838.73 131 830 139.73 830 150.5 830 161.27 838.73 170 849.5 170L849.5 170Z" fill="#EBEAE9"/><g transform="translate(717.000000, 219.000000)" fill="#27919E"><path d="M21.58 7.48C21.69 6.67 22.44 6 23.26 6L27.74 6C28.56 6 29.31 6.66 29.42 7.48L30.29 13.95 35.46 9.99C36.12 9.48 37.13 9.55 37.71 10.13L40.87 13.29C41.46 13.88 41.52 14.88 41.01 15.54L37.05 20.71 43.52 21.58C44.33 21.69 45 22.44 45 23.26L45 27.74C45 28.56 44.34 29.31 43.52 29.42L37.05 30.29 41.01 35.46C41.52 36.12 41.45 37.13 40.87 37.71L37.71 40.87C37.12 41.46 36.12 41.52 35.46 41.01L30.29 37.05 29.42 43.52C29.31 44.33 28.56 45 27.74 45L23.26 45C22.44 45 21.69 44.34 21.58 43.52L20.71 37.05 15.54 41.01C14.88 41.52 13.87 41.45 13.29 40.87L10.13 37.71C9.54 37.12 9.48 36.12 9.99 35.46L13.95 30.29 7.48 29.42C6.67 29.31 6 28.56 6 27.74L6 23.26C6 22.44 6.66 21.69 7.48 21.58L13.95 20.71 9.99 15.54C9.48 14.88 9.55 13.87 10.13 13.29L13.29 10.13C13.88 9.54 14.88 9.48 15.54 9.99L20.71 13.95 21.58 7.48 21.58 7.48ZM25.5 34C30.19 34 34 30.19 34 25.5 34 20.81 30.19 17 25.5 17 20.81 17 17 20.81 17 25.5 17 30.19 20.81 34 25.5 34L25.5 34Z" transform="translate(25.500000, 25.500000) rotate(-22.000000) translate(-25.500000, -25.500000) "/><path d="M44.59 35.91C44.65 35.41 45.12 35 45.62 35L48.38 35C48.89 35 49.35 35.41 49.41 35.91L49.94 39.89 53.13 37.45C53.54 37.14 54.15 37.18 54.51 37.54L56.46 39.49C56.82 39.85 56.86 40.46 56.55 40.87L54.11 44.06 58.09 44.59C58.59 44.65 59 45.12 59 45.62L59 48.38C59 48.89 58.59 49.35 58.09 49.41L54.11 49.94 56.55 53.13C56.86 53.54 56.82 54.15 56.46 54.51L54.51 56.46C54.15 56.82 53.54 56.86 53.13 56.55L49.94 54.11 49.41 58.09C49.35 58.59 48.88 59 48.38 59L45.62 59C45.11 59 44.65 58.59 44.59 58.09L44.06 54.11 40.87 56.55C40.46 56.86 39.85 56.82 39.49 56.46L37.54 54.51C37.18 54.15 37.14 53.54 37.45 53.13L39.89 49.94 35.91 49.41C35.41 49.35 35 48.88 35 48.38L35 45.62C35 45.11 35.41 44.65 35.91 44.59L39.89 44.06 37.45 40.87C37.14 40.46 37.18 39.85 37.54 39.49L39.49 37.54C39.85 37.18 40.46 37.14 40.87 37.45L44.06 39.89 44.59 35.91 44.59 35.91ZM47 52C49.76 52 52 49.76 52 47 52 44.24 49.76 42 47 42 44.24 42 42 44.24 42 47 42 49.76 44.24 52 47 52L47 52Z"/></g><g transform="translate(717.000000, 119.000000)" fill="#EBEAE9"><path d="M21.58 7.48C21.69 6.67 22.44 6 23.26 6L27.74 6C28.56 6 29.31 6.66 29.42 7.48L30.29 13.95 35.46 9.99C36.12 9.48 37.13 9.55 37.71 10.13L40.87 13.29C41.46 13.88 41.52 14.88 41.01 15.54L37.05 20.71 43.52 21.58C44.33 21.69 45 22.44 45 23.26L45 27.74C45 28.56 44.34 29.31 43.52 29.42L37.05 30.29 41.01 35.46C41.52 36.12 41.45 37.13 40.87 37.71L37.71 40.87C37.12 41.46 36.12 41.52 35.46 41.01L30.29 37.05 29.42 43.52C29.31 44.33 28.56 45 27.74 45L23.26 45C22.44 45 21.69 44.34 21.58 43.52L20.71 37.05 15.54 41.01C14.88 41.52 13.87 41.45 13.29 40.87L10.13 37.71C9.54 37.12 9.48 36.12 9.99 35.46L13.95 30.29 7.48 29.42C6.67 29.31 6 28.56 6 27.74L6 23.26C6 22.44 6.66 21.69 7.48 21.58L13.95 20.71 9.99 15.54C9.48 14.88 9.55 13.87 10.13 13.29L13.29 10.13C13.88 9.54 14.88 9.48 15.54 9.99L20.71 13.95 21.58 7.48 21.58 7.48ZM25.5 34C30.19 34 34 30.19 34 25.5 34 20.81 30.19 17 25.5 17 20.81 17 17 20.81 17 25.5 17 30.19 20.81 34 25.5 34L25.5 34Z" transform="translate(25.500000, 25.500000) rotate(-22.000000) translate(-25.500000, -25.500000) "/><path d="M44.59 35.91C44.65 35.41 45.12 35 45.62 35L48.38 35C48.89 35 49.35 35.41 49.41 35.91L49.94 39.89 53.13 37.45C53.54 37.14 54.15 37.18 54.51 37.54L56.46 39.49C56.82 39.85 56.86 40.46 56.55 40.87L54.11 44.06 58.09 44.59C58.59 44.65 59 45.12 59 45.62L59 48.38C59 48.89 58.59 49.35 58.09 49.41L54.11 49.94 56.55 53.13C56.86 53.54 56.82 54.15 56.46 54.51L54.51 56.46C54.15 56.82 53.54 56.86 53.13 56.55L49.94 54.11 49.41 58.09C49.35 58.59 48.88 59 48.38 59L45.62 59C45.11 59 44.65 58.59 44.59 58.09L44.06 54.11 40.87 56.55C40.46 56.86 39.85 56.82 39.49 56.46L37.54 54.51C37.18 54.15 37.14 53.54 37.45 53.13L39.89 49.94 35.91 49.41C35.41 49.35 35 48.88 35 48.38L35 45.62C35 45.11 35.41 44.65 35.91 44.59L39.89 44.06 37.45 40.87C37.14 40.46 37.18 39.85 37.54 39.49L39.49 37.54C39.85 37.18 40.46 37.14 40.87 37.45L44.06 39.89 44.59 35.91 44.59 35.91ZM47 52C49.76 52 52 49.76 52 47 52 44.24 49.76 42 47 42 44.24 42 42 44.24 42 47 42 49.76 44.24 52 47 52L47 52Z"/></g><path d="M605.45 222.94C605.16 223.56 605 224.26 605 225L605 275C605 275.23 605.02 275.46 605.05 275.68L634.38 247.18 605.45 222.94ZM608.8 279.85C609.18 279.95 609.58 280 610 280L690 280C690.33 280 690.65 279.97 690.96 279.91L661.35 251.14 650.23 260.46 638.7 250.8 608.8 279.85ZM694.91 275.93C694.97 275.63 695 275.32 695 275L695 225C695 224.37 694.88 223.77 694.67 223.22L665.67 247.52 694.91 275.93ZM690.41 220.02C690.28 220.01 690.14 220 690 220L610.03 220 650.23 253.68 690.41 220.02Z" fill="#27919E"/><path d="M605.45 122.94C605.16 123.56 605 124.26 605 125L605 175C605 175.23 605.02 175.46 605.05 175.68L634.38 147.18 605.45 122.94ZM608.8 179.85C609.18 179.95 609.58 180 610 180L690 180C690.33 180 690.65 179.97 690.96 179.91L661.35 151.14 650.23 160.46 638.7 150.8 608.8 179.85ZM694.91 175.93C694.97 175.63 695 175.32 695 175L695 125C695 124.37 694.88 123.77 694.67 123.22L665.67 147.52 694.91 175.93ZM690.41 120.02C690.28 120.01 690.14 120 690 120L610.03 120 650.23 153.68 690.41 120.02Z" fill="#EBEAE9"/><path d="M605.45 22.94C605.16 23.56 605 24.26 605 25L605 75C605 75.23 605.02 75.46 605.05 75.68L634.38 47.18 605.45 22.94ZM608.8 79.85C609.18 79.95 609.58 80 610 80L690 80C690.33 80 690.65 79.97 690.96 79.91L661.35 51.14 650.23 60.46 638.7 50.8 608.8 79.85ZM694.91 75.93C694.97 75.63 695 75.32 695 75L695 25C695 24.37 694.88 23.77 694.67 23.22L665.67 47.52 694.91 75.93ZM690.41 20.02C690.28 20.01 690.14 20 690 20L610.03 20 650.23 53.68 690.41 20.02Z" fill="#8120A9"/><path d="M519.03 163.03L527.92 171.93C533.73 166.12 541.51 162.91 549.73 162.92 557.95 162.91 565.72 166.14 571.56 171.96L571.56 171.96 571.57 171.97 580.51 163.04C572.03 154.58 560.91 150.34 549.77 150.34 538.63 150.34 527.51 154.56 519.03 163.03L519.03 163.03ZM512.3 155.77C533.07 135.02 566.84 135.05 587.64 155.81L596.55 146.9C583.7 134.06 566.85 127.65 549.97 127.64 533.1 127.64 516.25 134.04 503.41 146.88L512.3 155.77Z" fill="#EBEAE9"/><path d="M519.03 63.03L527.92 71.93C533.73 66.12 541.51 62.91 549.73 62.92 557.95 62.91 565.72 66.14 571.56 71.96L571.56 71.96 571.57 71.97 580.51 63.04C572.03 54.58 560.91 50.34 549.77 50.34 538.63 50.34 527.51 54.56 519.03 63.03L519.03 63.03ZM512.3 55.77C533.07 35.02 566.84 35.05 587.64 55.81L596.55 46.9C583.7 34.06 566.85 27.65 549.97 27.64 533.1 27.64 516.25 34.04 503.41 46.88L512.3 55.77Z" fill="#5631B7"/><g transform="translate(417.000000, 103.000000)" fill="#EBEAE9"><path d="M64 83.88L64 14.88 14.88 0.25 0.25 11.89 0.25 79.39 47.75 93.27 48.13 93 48.13 26.76 4.63 13.64 15.88 4.26 60.63 18.39 60.63 83.97 64 83.88Z"/><path d="M50.5 91.24L50.5 25.4 9.01 12.77 16.38 6.64 58.49 19.89 58.49 85.61 50.5 91.24Z" opacity="0.5"/></g><g transform="translate(417.000000, 3.000000)" fill="#2451C0"><path d="M64 83.88L64 14.88 14.88 0.25 0.25 11.89 0.25 79.39 47.75 93.27 48.13 93 48.13 26.76 4.63 13.64 15.88 4.26 60.63 18.39 60.63 83.97 64 83.88Z"/><path d="M50.5 91.24L50.5 25.4 9.01 12.77 16.38 6.64 58.49 19.89 58.49 85.61 50.5 91.24Z" opacity="0.65"/></g><path d="M348.54 210.64C349.33 208.58 350.61 208.59 351.4 210.64L361.74 237.61 391.27 239.15C393.47 239.26 393.87 240.48 392.15 241.86L369.15 260.48 376.61 288.3C377.18 290.43 376.15 291.18 374.3 289.98L349.96 274.16 325.62 289.98C323.78 291.18 322.74 290.43 323.31 288.3L330.82 260.32 308.12 241.96C306.41 240.57 306.8 239.36 309.01 239.24L338.16 237.72 348.54 210.64Z" fill="#D4C90F"/><path d="M348.54 110.64C349.33 108.58 350.61 108.59 351.4 110.64L361.74 137.61 391.27 139.15C393.47 139.26 393.87 140.48 392.15 141.86L369.15 160.48 376.61 188.3C377.18 190.43 376.15 191.18 374.3 189.98L349.96 174.16 325.62 189.98C323.78 191.18 322.74 190.43 323.31 188.3L330.82 160.32 308.12 141.96C306.41 140.57 306.8 139.36 309.01 139.24L338.16 137.72 348.54 110.64Z" fill="#EBEAE9"/><path d="M348.54 10.64C349.33 8.58 350.61 8.59 351.4 10.64L361.74 37.61 391.27 39.15C393.47 39.26 393.87 40.48 392.15 41.86L369.15 60.48 376.61 88.3C377.18 90.43 376.15 91.18 374.3 89.98L349.96 74.16 325.62 89.98C323.78 91.18 322.74 90.43 323.31 88.3L330.82 60.32 308.12 41.96C306.41 40.57 306.8 39.36 309.01 39.24L338.16 37.72 348.54 10.64Z" fill="#1B73B0"/><path d="M280.52 264.64C304.65 245.73 293.71 222.17 284.41 214.61 275.19 207.11 257.7 206.67 249.64 220.62 241.57 206.67 224.08 207.11 214.86 214.61 205.57 222.17 194.62 245.73 218.76 264.64 238.62 280.19 249.64 290.27 249.64 290.27 249.64 290.27 260.66 280.19 280.52 264.64Z" fill="#B13537"/><path d="M280.52 164.64C304.65 145.73 293.71 122.17 284.41 114.61 275.19 107.11 257.7 106.67 249.64 120.62 241.57 106.67 224.08 107.11 214.86 114.61 205.57 122.17 194.62 145.73 218.76 164.64 238.62 180.19 249.64 190.27 249.64 190.27 249.64 190.27 260.66 180.19 280.52 164.64Z" fill="#EBEAE9"/><path d="M280.52 64.64C304.65 45.73 293.71 22.17 284.41 14.61 275.19 7.11 257.7 6.67 249.64 20.62 241.57 6.67 224.08 7.11 214.86 14.61 205.57 22.17 194.62 45.73 218.76 64.64 238.62 80.19 249.64 90.27 249.64 90.27 249.64 90.27 260.66 80.19 280.52 64.64Z" fill="#1B97B2"/><path d="M135.44 177.08L119 177.08C112.38 177.08 107 171.71 107 165.09L107 128C107 121.37 112.37 116 119 116L181 116C187.62 116 193 121.37 193 128L193 165.09C193 171.72 187.63 177.08 181 177.08L151.88 177.08 135.44 193.61 135.44 177.08 135.44 177.08Z" fill="#EBEAE9"/><path d="M135.44 77.08L119 77.08C112.38 77.08 107 71.71 107 65.09L107 28C107 21.37 112.37 16 119 16L181 16C187.62 16 193 21.37 193 28L193 65.09C193 71.72 187.63 77.08 181 77.08L151.88 77.08 135.44 93.61 135.44 77.08 135.44 77.08Z" fill="#1EABAE"/><path d="M41.74 155C50.65 143.38 73.6 113.19 75.57 110.53 77.96 107.3 84.16 103.95 89.54 108.02 94.93 112.08 95.43 116.79 90.65 123.48 86.82 128.84 62.8 153.04 52.97 164.42L41.74 155ZM37.27 159.75C30.59 161.87 24.29 168.69 21.33 176.3 18.22 184.31 9.74 183.83 7.23 183.83 19.52 201.13 47.37 191.14 48.75 170.72L37.27 159.75Z" fill="#EBEAE9"/><path d="M41.74 55C50.65 43.38 73.6 13.19 75.57 10.53 77.96 7.3 84.16 3.95 89.54 8.02 94.93 12.08 95.43 16.79 90.65 23.48 86.82 28.84 62.8 53.04 52.97 64.42L41.74 55ZM37.27 59.75C30.59 61.87 24.29 68.69 21.33 76.3 18.22 84.31 9.74 83.83 7.23 83.83 19.52 101.13 47.37 91.14 48.75 70.72L37.27 59.75Z" fill="#139E87"/></g></svg>