<svg width="400" height="215" viewBox="0" version="1.1" xmlns="http://www.w3.org/2000/svg"><title>logo</title><description>Created with Sketch (http://www.bohemiancoding.com/sketch)</description><g stroke="none" stroke-width="1" fill="none" fill-rule="evenodd"><g transform="translate(-34.000000, -65.000000)" fill="#B13537"><g transform="translate(34.000000, 65.000000)"><path d="M138.5 66.7C129.3 38 138.4 6.4 138.4 6.4L116.1 10.1C116.1 10.1 114 41.6 125.3 65.2 62.2 44.1 16.4 77.2 2.9 118.3 -11.3 161.7 26.2 225 114.3 213.7 116.1 213.4 117.8 213.2 119.6 213 95.6 168.5 103.1 138.6 123.2 129.6 139.2 122.5 154.8 143.6 154.8 143.6 184.2 128.1 243.2 127.8 268.3 134 268.3 134 284.7 107.9 301.8 113.9 315.7 118.8 324.9 131.9 325 152 392.7 122.7 415.1 78.9 390.1 35.7 361.9-12.9 223.8-20.2 138.5 66.7Z"/></g></g></g></svg>